<svg xmlns="http://www.w3.org/2000/svg" version="1.1" xmlns:xlink="http://www.w3.org/1999/xlink" xmlns:svgjs="http://svgjs.dev/svgjs" width="1000" height="1000" viewBox="0 0 1000 1000"><rect width="1000" height="1000" fill="#ffffff"></rect><g transform="matrix(0.7,0,0,0.7,149.5757576217161,455.5220704478238)"><svg viewBox="0 0 396 51" data-background-color="#ffffff" preserveAspectRatio="xMidYMid meet" height="128" width="1000" xmlns="http://www.w3.org/2000/svg" xmlns:xlink="http://www.w3.org/1999/xlink"><g id="tight-bounds" transform="matrix(1,0,0,1,0.24000002599939307,-0.18331935594929405)"><svg viewBox="0 0 395.52 51.36664070459898" height="51.36664070459898" width="395.52"><g><svg viewBox="0 0 436.62271648659714 56.70469812204951" height="51.36664070459898" width="395.52"><g><rect width="1.970802975668987" height="49.23707506979696" x="400.67917009337424" y="3.7338115261262743" fill="#233565" opacity="1" stroke-width="0" stroke="transparent" fill-opacity="1" class="rect-o-0" data-fill-palette-color="primary" rx="1%" id="o-0" data-palette-color="#233565"></rect></g><g transform="matrix(1,0,0,1,0,7.836901115276021)"><svg viewBox="0 0 395.5199999999999 41.030895891497465" height="41.030895891497465" width="395.5199999999999"><g id="textblocktransform"><svg viewBox="0 0 395.5199999999999 41.030895891497465" height="41.030895891497465" width="395.5199999999999" id="textblock"><g><svg viewBox="0 0 395.5199999999999 21.85385254483434" height="21.85385254483434" width="395.5199999999999"><g transform="matrix(1,0,0,1,0,0)"><svg width="395.5199999999999" viewBox="3.390000104904175 -38.22999954223633 722.8200073242188 39.939998626708984" height="21.85385254483434" data-palette-color="#233565"><path d="M3.39 0.78L3.39 0.78 4.61-15.92Q5.22-24.32 5.52-28.25 5.81-32.18 5.81-32.15L5.81-32.15Q5.83-32.59 5.86-32.89 5.88-33.18 5.96-33.37 6.03-33.57 6.15-33.67 6.27-33.76 6.52-33.81L6.52-33.81 14.97-35.84Q15.28-35.94 15.63-35.94L15.63-35.94Q15.97-35.94 16.09-35.73 16.21-35.52 16.21-34.89L16.21-34.89Q16.04-33.37 15.94-32.06 15.84-30.74 15.78-29.54 15.72-28.34 15.67-27.23 15.63-26.12 15.55-25.02L15.55-25.02Q15.41-23.83 15.3-22.63 15.19-21.44 15.09-20.15 14.99-18.87 14.88-17.44 14.77-16.02 14.62-14.33L14.62-14.33 13.55-1.46Q13.53-1.25 13.46-1.04 13.4-0.83 13.13-0.71L13.13-0.71Q13.11-0.71 12.84-0.61 12.57-0.51 12.13-0.35 11.69-0.2 11.11-0.02 10.52 0.15 9.86 0.29L9.86 0.29Q8.76 0.54 7.95 0.78 7.13 1.03 6.49 1.23 5.86 1.44 5.32 1.56 4.79 1.68 4.25 1.68L4.25 1.68Q3.88 1.68 3.64 1.49 3.39 1.29 3.39 0.78ZM40.5-14.43L40.5-32.71Q40.7-33.52 40.84-33.89 40.99-34.25 41.48-34.38L41.48-34.38 47.8-35.86Q48.09-35.96 48.44-35.96L48.44-35.96Q48.75-35.96 48.9-35.74 49.05-35.52 49.05-34.91L49.05-34.91Q48.9-34.33 48.8-33.12 48.7-31.91 48.65-30.47 48.61-29.03 48.58-27.58 48.56-26.12 48.56-25.05L48.56-25.05 48.56-23.71Q48.56-22.19 48.53-20.41 48.51-18.63 48.47-16.8 48.44-14.97 48.39-13.18 48.34-11.4 48.29-9.84L48.29-9.84 48.14-5.66Q48.12-5.54 48.12-5.44 48.12-5.35 48.12-5.25L48.12-5.25 48.12-4.88Q48.12-4.47 48.13-4.19 48.14-3.91 48.14-3.69L48.14-3.69Q48.14-3.44 48.11-3.25 48.07-3.05 47.92-2.87 47.78-2.69 47.52-2.49 47.26-2.29 46.82-2L46.82-2Q46.58-1.83 46.02-1.5 45.46-1.17 44.77-0.76 44.09-0.34 43.36 0.1 42.62 0.54 42.01 0.89 41.4 1.25 41.03 1.46 40.65 1.68 40.65 1.68L40.65 1.68 29.32-15.75 28.29-1.46Q28.27-1.27 28.21-1.05 28.15-0.83 27.88-0.71L27.88-0.71Q27.66-0.61 27.12-0.4 26.58-0.2 25.86 0.07 25.14 0.34 24.35 0.62 23.56 0.9 22.85 1.14 22.14 1.37 21.59 1.51 21.04 1.66 20.85 1.66L20.85 1.66Q20.48 1.66 20.24 1.46 19.99 1.27 19.99 0.76L19.99 0.76Q20.24-2.29 20.55-5.9 20.87-9.5 21.16-13.28 21.46-17.07 21.71-20.84 21.97-24.61 22.14-28L22.14-28Q22.14-28.1 21.84-28.65 21.53-29.2 21.15-29.85 20.77-30.49 20.47-31.07 20.16-31.64 20.16-31.79L20.16-31.79Q20.16-31.96 20.35-32.1 20.53-32.25 20.94-32.5L20.94-32.5 27.46-36.18Q27.54-36.18 27.67-36.21 27.81-36.23 27.9-36.23L27.9-36.23Q28.17-36.23 28.33-36.17 28.49-36.11 28.66-35.79L28.66-35.79 40.5-14.43ZM63.67-16.65L63.67-16.65Q63.67-14.89 64.05-13.12 64.42-11.35 65.3-9.94 66.18-8.52 67.62-7.64 69.06-6.76 71.19-6.76L71.19-6.76Q72.82-6.86 74.06-7.43 75.29-8.01 76.18-8.92 77.07-9.84 77.66-11.02 78.24-12.21 78.58-13.51 78.93-14.82 79.06-16.19 79.19-17.55 79.19-18.82L79.19-18.82Q79.19-20.56 78.73-22.18 78.27-23.8 77.34-25.05 76.41-26.29 75.03-27.05 73.65-27.81 71.82-27.81L71.82-27.81Q70.38-27.81 69.22-27.27 68.06-26.73 67.16-25.84 66.25-24.95 65.61-23.79 64.96-22.63 64.53-21.4 64.11-20.17 63.9-18.93 63.69-17.7 63.67-16.65ZM68.43 1.27L68.43 1.27Q64.77 1.27 61.88-0.1 59-1.46 57.01-3.8 55.02-6.13 53.96-9.19 52.9-12.26 52.9-15.67L52.9-15.67Q52.9-19.51 53.99-22.74 55.07-25.98 57.03-28.48 58.98-30.98 61.68-32.7 64.37-34.42 67.6-35.25L67.6-35.25Q67.89-35.25 68.05-35.72 68.21-36.18 68.33-36.74 68.45-37.3 68.62-37.77 68.79-38.23 69.11-38.23L69.11-38.23Q73.85-37.74 77.63-36.56 81.42-35.38 84.05-33.18 86.69-30.98 88.09-27.62 89.5-24.27 89.5-19.43L89.5-19.43Q89.5-16.33 88.74-13.6 87.98-10.86 86.62-8.56 85.25-6.25 83.33-4.43 81.42-2.61 79.07-1.34 76.73-0.07 74.03 0.6 71.33 1.27 68.43 1.27ZM122.99-34.3L110.05-2.15Q109.93-1.83 109.82-1.54 109.71-1.25 109.54-1 109.37-0.76 109.11-0.56 108.85-0.37 108.46-0.24L108.46-0.24Q106.93 0.24 105.41 0.6 103.9 0.95 102.36 1.46L102.36 1.46Q102.07 1.56 101.85 1.61 101.63 1.66 101.43 1.66L101.43 1.66Q100.99 1.66 100.8 1.44 100.6 1.22 100.51 0.88L100.51 0.88 92.16-32.32Q91.96-32.96 91.96-33.37L91.96-33.37Q91.96-33.91 92.3-34.27 92.64-34.62 93.41-34.85 94.18-35.08 95.39-35.28 96.6-35.47 98.36-35.72L98.36-35.72Q99.21-35.84 99.8-35.9 100.38-35.96 100.8-35.96L100.8-35.96Q101.51-35.96 101.74-35.73 101.97-35.5 102.17-35.01L102.17-35.01 106.83-14.84 113.4-33.37Q113.54-33.76 113.65-34.01 113.76-34.25 114.07-34.44 114.37-34.62 114.99-34.8 115.62-34.99 116.79-35.23L116.79-35.23Q118.62-35.62 119.82-35.79 121.01-35.96 121.75-35.96L121.75-35.96Q122.67-35.96 122.95-35.74 123.23-35.52 123.23-35.11L123.23-35.11Q123.26-34.94 123.17-34.75 123.09-34.57 122.99-34.3L122.99-34.3ZM119.72-1.78L119.72-1.78Q120.03-2.42 120.38-3.21 120.72-4 121.01-4.93L121.01-4.93 121.67-6.54Q121.23-7.2 120.78-7.97 120.33-8.74 119.96-9.55 119.59-10.35 119.36-11.16 119.13-11.96 119.13-12.72L119.13-12.72Q119.13-12.77 119.51-12.81 119.89-12.84 120.46-12.87 121.03-12.89 121.71-12.9 122.38-12.92 122.95-12.93 123.53-12.94 123.9-12.95 124.28-12.96 124.28-12.96L124.28-12.96Q124.84-14.43 125.38-15.75 125.92-17.07 126.45-18.41 126.99-19.75 127.53-21.15 128.07-22.56 128.6-24.17L128.6-24.17Q129.63-27.2 130.61-29.49 131.58-31.79 132.44-33.76L132.44-33.76Q132.53-34.01 132.77-34.22 133-34.42 133.27-34.57 133.53-34.72 133.79-34.81 134.05-34.91 134.19-34.96L134.19-34.96Q134.29-34.99 134.94-35.18 135.59-35.38 136.42-35.6 137.25-35.82 138.06-35.99 138.88-36.16 139.37-36.16L139.37-36.16 139.81-36.16Q140.2-36.16 140.55-35.97 140.91-35.79 141.03-35.25L141.03-35.25Q142.2-32.25 143.53-28.7 144.86-25.15 146.13-20.87L146.13-20.87Q146.82-18.58 147.48-16.53 148.13-14.48 148.79-12.52 149.45-10.57 150.12-8.62 150.8-6.67 151.5-4.59L151.5-4.59Q151.72-3.71 151.96-3.2 152.19-2.69 152.38-2.39 152.58-2.1 152.7-1.97 152.82-1.83 152.82-1.68L152.82-1.68Q152.82-1.54 152.36-1.39L152.36-1.39 147.11 0.32Q146.52 0.54 145.91 0.76 145.3 0.98 144.77 1.15 144.23 1.32 143.83 1.43 143.42 1.54 143.25 1.54L143.25 1.54 143.11 1.54Q142.76 1.54 142.62 1.33 142.47 1.12 142.42 0.93L142.42 0.93Q142.18 0.12 141.93-0.52 141.69-1.17 141.46-1.82 141.23-2.47 140.99-3.2 140.76-3.93 140.54-4.93L140.54-4.93Q140.49-5.05 140.27-5.14 140.05-5.22 139.75-5.27 139.44-5.32 139.1-5.33 138.76-5.35 138.47-5.35L138.47-5.35Q137.54-5.35 136.97-5.33 136.39-5.32 135.95-5.31 135.51-5.3 135.11-5.29 134.71-5.27 134.12-5.27L134.12-5.27Q133.41-5.27 132.67-5.29 131.92-5.3 131.31-5.32L131.31-5.32 129.92-5.37Q129.29-3.61 128.65-2.08 128.02-0.54 127.28 1.1L127.28 1.1Q127.24 1.29 127.05 1.42 126.87 1.54 126.67 1.54L126.67 1.54Q126.53 1.54 126.5 1.51L126.5 1.51Q124.14 0.66 122.52-0.17 120.91-1 119.72-1.78ZM136.17-23.73L136.17-23.73Q135.59-21.56 135.01-19.79 134.44-18.02 133.96-16.65 133.49-15.28 133.14-14.34 132.8-13.4 132.66-12.89L132.66-12.89 132.66-12.67Q132.66-12.52 132.63-12.48L132.63-12.48 138.49-12.48Q138.22-13.67 137.92-14.89 137.61-16.11 137.32-17.46 137.03-18.8 136.73-20.34 136.44-21.88 136.17-23.73ZM155.94-0.37L155.53-9.08Q155.53-9.11 155.52-9.13 155.51-9.16 155.51-9.18L155.51-9.18Q155.51-9.59 155.94-9.59L155.94-9.59Q156.16-9.59 156.43-9.38L156.43-9.38Q157.75-8.13 159.36-7.4 160.97-6.67 162.88-6.67L162.88-6.67Q163.39-6.67 164.05-6.77 164.71-6.88 165.3-7.14 165.88-7.4 166.28-7.81 166.69-8.23 166.69-8.86L166.69-8.86Q166.69-9.57 166.34-10.13 166-10.69 165.44-11.08L165.44-11.08Q165.22-11.23 164.78-11.57 164.34-11.91 163.78-12.35 163.22-12.79 162.61-13.29 162-13.79 161.45-14.25 160.9-14.7 160.46-15.06 160.02-15.43 159.8-15.63L159.8-15.63Q158.36-16.7 157.52-17.8 156.68-18.9 156.24-20.09 155.8-21.29 155.68-22.57 155.55-23.85 155.55-25.29L155.55-25.29Q155.55-27.44 156.58-29.37 157.6-31.3 159.47-32.73 161.34-34.16 163.95-35 166.56-35.84 169.76-35.84L169.76-35.84Q170.15-35.84 170.93-35.75 171.72-35.67 172.66-35.47 173.6-35.28 174.57-34.94 175.55-34.59 176.35-34.06L176.35-34.06Q176.62-33.86 176.78-33.67 176.94-33.47 176.99-33.06L176.99-33.06Q177.11-31.08 177.18-29.16 177.26-27.25 177.38-25.1L177.38-25.1Q177.38-24.68 177.21-24.55 177.04-24.41 176.77-24.41L176.77-24.41Q176.5-24.41 176.35-24.56L176.35-24.56Q175.65-25.27 174.89-25.95 174.13-26.64 173.3-27.16 172.47-27.69 171.53-28 170.59-28.32 169.49-28.32L169.49-28.32Q168.84-28.32 168.18-28.21 167.52-28.1 166.98-27.81 166.44-27.51 166.11-27 165.78-26.49 165.78-25.71L165.78-25.71Q165.78-24.88 165.99-24.27 166.2-23.66 167.03-23.12L167.03-23.12 172.89-19.14Q174.5-17.99 175.5-16.86 176.5-15.72 177.06-14.6 177.62-13.48 177.83-12.39 178.04-11.3 178.04-10.25L178.04-10.25Q178.04-8.54 177.48-7.03 176.92-5.52 175.94-4.24 174.96-2.95 173.66-1.94 172.35-0.93 170.86-0.21 169.37 0.51 167.77 0.89 166.17 1.27 164.64 1.27L164.64 1.27Q163.44 1.27 162.28 1.23 161.12 1.2 160.02 1.04 158.92 0.88 157.9 0.55 156.87 0.22 155.94-0.37L155.94-0.37ZM181.89 0.78L181.89 0.78 183.11-15.92Q183.73-24.32 184.02-28.25 184.31-32.18 184.31-32.15L184.31-32.15Q184.34-32.59 184.36-32.89 184.38-33.18 184.46-33.37 184.53-33.57 184.65-33.67 184.78-33.76 185.02-33.81L185.02-33.81 193.47-35.84Q193.78-35.94 194.13-35.94L194.13-35.94Q194.47-35.94 194.59-35.73 194.71-35.52 194.71-34.89L194.71-34.89Q194.54-33.37 194.44-32.06 194.35-30.74 194.28-29.54 194.22-28.34 194.17-27.23 194.13-26.12 194.05-25.02L194.05-25.02Q193.91-23.83 193.8-22.63 193.69-21.44 193.59-20.15 193.49-18.87 193.38-17.44 193.27-16.02 193.12-14.33L193.12-14.33 192.05-1.46Q192.03-1.25 191.96-1.04 191.9-0.83 191.64-0.71L191.64-0.71Q191.61-0.71 191.34-0.61 191.07-0.51 190.63-0.35 190.19-0.2 189.61-0.02 189.02 0.15 188.36 0.29L188.36 0.29Q187.27 0.54 186.45 0.78 185.63 1.03 184.99 1.23 184.36 1.44 183.82 1.56 183.29 1.68 182.75 1.68L182.75 1.68Q182.38 1.68 182.14 1.49 181.89 1.29 181.89 0.78ZM208.62-16.5L208.62-16.5Q208.62-19.19 209.27-21.67 209.92-24.15 211.11-26.29 212.31-28.44 214.01-30.2 215.7-31.96 217.8-33.22 219.9-34.47 222.36-35.16 224.81-35.84 227.52-35.84L227.52-35.84Q229.67-35.84 231.29-35.56 232.91-35.28 234.12-34.85 235.33-34.42 236.15-33.91 236.97-33.4 237.5-32.93L237.5-32.93Q237.48-32.93 237.48-32.76L237.48-32.76Q237.48-32.4 237.54-31.42 237.6-30.44 237.69-29.25 237.77-28.05 237.83-26.82 237.9-25.59 237.9-24.68L237.9-24.68Q237.9-24.54 237.8-24.35 237.7-24.17 237.31-24.17L237.31-24.17Q237.09-24.17 236.77-24.24L236.77-24.24Q236.26-24.39 235.48-24.91 234.7-25.44 233.66-26.01 232.62-26.59 231.34-27.04 230.06-27.49 228.54-27.49L228.54-27.49Q226.54-27.49 224.91-26.7 223.27-25.9 222.12-24.51 220.98-23.12 220.34-21.2 219.71-19.29 219.71-17.02L219.71-17.02Q219.71-15.01 220.15-13.2 220.59-11.38 221.48-10.01 222.37-8.64 223.7-7.82 225.03-7.01 226.79-7.01L226.79-7.01Q228.18-7.01 229.25-7.1 230.33-7.2 231.25-7.42 232.18-7.64 233.07-8.01 233.96-8.37 234.99-8.94L234.99-8.94Q235.04-8.96 235.23-8.96L235.23-8.96Q235.4-8.96 235.47-8.83 235.53-8.69 235.53-8.28L235.53-8.28 235.53-5.35Q235.53-4.54 235.51-3.77 235.5-3 235.49-2.39 235.48-1.78 235.47-1.4 235.45-1.03 235.43-1.03L235.43-1.03Q234.31-0.32 233.02 0.13 231.74 0.59 230.39 0.84 229.03 1.1 227.67 1.18 226.3 1.27 225.03 1.27L225.03 1.27Q221.59 1.27 218.58-0.04 215.58-1.34 213.37-3.69 211.16-6.03 209.89-9.3 208.62-12.57 208.62-16.5ZM250.42-16.65L250.42-16.65Q250.42-14.89 250.8-13.12 251.17-11.35 252.05-9.94 252.93-8.52 254.37-7.64 255.81-6.76 257.94-6.76L257.94-6.76Q259.57-6.86 260.81-7.43 262.04-8.01 262.93-8.92 263.82-9.84 264.41-11.02 264.99-12.21 265.33-13.51 265.68-14.82 265.81-16.19 265.94-17.55 265.94-18.82L265.94-18.82Q265.94-20.56 265.48-22.18 265.02-23.8 264.09-25.05 263.16-26.29 261.78-27.05 260.4-27.81 258.57-27.81L258.57-27.81Q257.13-27.81 255.97-27.27 254.81-26.73 253.91-25.84 253-24.95 252.36-23.79 251.71-22.63 251.28-21.4 250.86-20.17 250.65-18.93 250.44-17.7 250.42-16.65ZM255.18 1.27L255.18 1.27Q251.52 1.27 248.63-0.1 245.75-1.46 243.76-3.8 241.77-6.13 240.71-9.19 239.65-12.26 239.65-15.67L239.65-15.67Q239.65-19.51 240.74-22.74 241.82-25.98 243.78-28.48 245.73-30.98 248.43-32.7 251.12-34.42 254.35-35.25L254.35-35.25Q254.64-35.25 254.8-35.72 254.96-36.18 255.08-36.74 255.2-37.3 255.37-37.77 255.54-38.23 255.86-38.23L255.86-38.23Q260.6-37.74 264.38-36.56 268.17-35.38 270.8-33.18 273.44-30.98 274.84-27.62 276.25-24.27 276.25-19.43L276.25-19.43Q276.25-16.33 275.49-13.6 274.73-10.86 273.37-8.56 272-6.25 270.08-4.43 268.17-2.61 265.82-1.34 263.48-0.07 260.78 0.6 258.08 1.27 255.18 1.27ZM292.85-15.48L291.65-1.95Q291.63-1.73 291.56-1.53 291.5-1.32 291.23-1.2L291.23-1.2Q291.14-1.15 290.27-0.84 289.4-0.54 288.27-0.13 287.13 0.27 286.02 0.67 284.91 1.07 284.33 1.29L284.33 1.29Q284.03 1.42 283.61 1.55 283.18 1.68 282.76 1.68L282.76 1.68Q282.42 1.68 282.16 1.51 281.91 1.34 281.91 0.88L281.91 0.88Q281.91-0.2 281.97-1.09 282.03-1.98 282.13-2.95 282.23-3.93 282.34-5.11 282.45-6.3 282.54-7.93L282.54-7.93Q282.67-10.08 282.81-12.07 282.96-14.06 283.1-16.21L283.1-16.21 283.45-20.39Q283.52-21.41 283.59-22.47 283.67-23.54 283.74-24.66L283.74-24.66 284.01-27.64Q284.01-27.69 283.86-27.69L283.86-27.69Q283.67-27.69 283.2-27.6 282.74-27.51 282.1-27.39 281.47-27.27 280.7-27.14 279.93-27 279.13-26.88L279.13-26.88Q278.93-26.88 278.75-26.97 278.56-27.05 278.56-27.17L278.56-27.17Q278.56-27.27 278.61-27.32L278.61-27.32 282.57-34.23Q283.91-34.52 285.46-34.83 287.01-35.13 288.79-35.38 290.58-35.62 292.58-35.78 294.58-35.94 296.83-35.94L296.83-35.94Q299.36-35.89 301.77-35.44 304.17-34.99 306.04-33.92 307.91-32.86 309.04-31.04 310.18-29.22 310.18-26.44L310.18-26.44Q310.18-24.9 309.66-23.61 309.13-22.31 308.31-21.28 307.49-20.24 306.52-19.45 305.54-18.65 304.65-18.09 303.76-17.53 303.08-17.2 302.39-16.87 302.15-16.77L302.15-16.77Q302.15-16.72 302.18-16.65 302.22-16.58 302.34-16.37 302.47-16.16 302.7-15.78 302.93-15.41 303.3-14.75L303.3-14.75Q303.69-14.16 304.22-13.18 304.76-12.21 305.5-10.88 306.25-9.55 307.23-7.91 308.2-6.27 309.47-4.39L309.47-4.39Q309.89-4.03 310.42-3.94 310.96-3.86 311.43-3.85 311.89-3.83 312.21-3.8 312.52-3.76 312.52-3.49L312.52-3.49Q312.52-3.3 312.12-3.04 311.72-2.78 311.18-2.51 310.64-2.25 310.09-2 309.55-1.76 309.25-1.61L309.25-1.61Q308.67-1.32 308.03-1.05 307.4-0.78 306.66-0.45 305.93-0.12 305.04 0.32 304.15 0.76 303.03 1.37L303.03 1.37Q302.73 1.54 302.48 1.6 302.22 1.66 302 1.66L302 1.66Q301.56 1.66 301.24 1.45 300.93 1.25 300.71 0.95 300.49 0.66 300.35 0.35 300.22 0.05 300.12-0.15L300.12-0.15 292.85-15.48ZM294.12-28.86L293.14-18.48Q294.38-18.48 295.73-19.12 297.07-19.75 298.17-20.75 299.27-21.75 299.98-23.02 300.68-24.29 300.68-25.59L300.68-25.59Q300.68-29.13 296.43-29.13L296.43-29.13Q295.63-29.13 295.09-29.02 294.56-28.91 294.12-28.86L294.12-28.86ZM345.43-25.37L345.43-25.37Q345.41-23.27 345.03-21.61 344.65-19.95 343.95-18.62 343.26-17.29 342.27-16.22 341.28-15.16 340.01-14.23L340.01-14.23Q337.57-12.48 334.66-11.58 331.76-10.69 328.83-10.69L328.83-10.69Q328.34-10.69 327.87-10.72 327.39-10.74 326.9-10.79L326.9-10.79 326.1-1.88 325.68-1.12Q325.63-1.03 324.85-0.73 324.07-0.44 322.9-0.05L322.9-0.05 321.36 0.46Q320.63 0.73 320.07 0.95 319.5 1.17 319.02 1.34 318.53 1.51 318.06 1.6 317.6 1.68 317.09 1.68L317.09 1.68Q316.74 1.68 316.55 1.51 316.35 1.34 316.35 0.85L316.35 0.85 316.62-3.32Q316.7-4.57 316.81-5.82 316.92-7.08 317.01-8.69L317.01-8.69 317.48-14.53Q317.62-16.31 317.75-18.09 317.87-19.87 317.99-21.48 318.11-23.1 318.21-24.5 318.31-25.9 318.38-26.95L318.38-26.95Q317.06-26.66 316.27-26.53 315.48-26.39 315.06-26.39L315.06-26.39Q314.55-26.39 314.55-26.83L314.55-26.83Q314.89-28.03 315.18-29.17L315.18-29.17Q315.45-30.15 315.73-31.19 316.01-32.23 316.21-32.93L316.21-32.93Q316.33-33.37 316.49-33.61 316.65-33.84 316.9-33.97 317.16-34.11 317.56-34.22 317.97-34.33 318.55-34.52L318.55-34.52Q319.02-34.67 319.86-34.85 320.7-35.03 321.79-35.22 322.87-35.4 324.14-35.57 325.41-35.74 326.72-35.88 328.02-36.01 329.29-36.1 330.56-36.18 331.69-36.18L331.69-36.18Q334.47-36.18 336.96-35.67 339.45-35.16 341.33-33.92 343.21-32.69 344.32-30.6 345.43-28.52 345.43-25.37ZM327.58-18.04L327.58-18.04Q327.58-17.77 327.68-17.57 327.78-17.36 328.22-17.36L328.22-17.36Q328.9-17.36 329.84-17.66 330.78-17.97 331.72-18.58 332.66-19.19 333.47-20.09 334.27-21 334.69-22.22L334.69-22.22Q334.86-22.71 334.97-23.46 335.08-24.22 335.08-25.24L335.08-25.24Q335.08-26.95 333.9-27.76 332.71-28.56 330.81-28.56L330.81-28.56Q330.49-28.56 330.09-28.53 329.68-28.49 329.33-28.39 328.98-28.3 328.73-28.16 328.49-28.03 328.46-27.81L328.46-27.81 328.41-27.27Q328.39-26.95 328.32-26.23 328.24-25.51 328.16-24.58 328.07-23.66 327.99-22.63 327.9-21.61 327.82-20.68 327.73-19.75 327.67-19.04 327.61-18.33 327.58-18.04ZM357.68-16.65L357.68-16.65Q357.68-14.89 358.06-13.12 358.44-11.35 359.32-9.94 360.2-8.52 361.64-7.64 363.08-6.76 365.2-6.76L365.2-6.76Q366.84-6.86 368.07-7.43 369.31-8.01 370.2-8.92 371.09-9.84 371.67-11.02 372.26-12.21 372.6-13.51 372.94-14.82 373.08-16.19 373.21-17.55 373.21-18.82L373.21-18.82Q373.21-20.56 372.75-22.18 372.28-23.8 371.36-25.05 370.43-26.29 369.05-27.05 367.67-27.81 365.84-27.81L365.84-27.81Q364.4-27.81 363.24-27.27 362.08-26.73 361.18-25.84 360.27-24.95 359.63-23.79 358.98-22.63 358.55-21.4 358.12-20.17 357.92-18.93 357.71-17.7 357.68-16.65ZM362.45 1.27L362.45 1.27Q358.78 1.27 355.9-0.1 353.02-1.46 351.03-3.8 349.04-6.13 347.98-9.19 346.92-12.26 346.92-15.67L346.92-15.67Q346.92-19.51 348-22.74 349.09-25.98 351.04-28.48 353-30.98 355.7-32.7 358.39-34.42 361.62-35.25L361.62-35.25Q361.91-35.25 362.07-35.72 362.23-36.18 362.35-36.74 362.47-37.3 362.64-37.77 362.81-38.23 363.13-38.23L363.13-38.23Q367.87-37.74 371.65-36.56 375.43-35.38 378.07-33.18 380.71-30.98 382.11-27.62 383.51-24.27 383.51-19.43L383.51-19.43Q383.51-16.33 382.76-13.6 382-10.86 380.63-8.56 379.27-6.25 377.35-4.43 375.43-2.61 373.09-1.34 370.75-0.07 368.05 0.6 365.35 1.27 362.45 1.27ZM400.11-15.48L398.92-1.95Q398.89-1.73 398.83-1.53 398.77-1.32 398.5-1.2L398.5-1.2Q398.41-1.15 397.54-0.84 396.67-0.54 395.54-0.13 394.4 0.27 393.29 0.67 392.18 1.07 391.59 1.29L391.59 1.29Q391.3 1.42 390.87 1.55 390.45 1.68 390.03 1.68L390.03 1.68Q389.69 1.68 389.43 1.51 389.18 1.34 389.18 0.88L389.18 0.88Q389.18-0.2 389.24-1.09 389.3-1.98 389.4-2.95 389.49-3.93 389.6-5.11 389.71-6.3 389.81-7.93L389.81-7.93Q389.93-10.08 390.08-12.07 390.23-14.06 390.37-16.21L390.37-16.21 390.71-20.39Q390.79-21.41 390.86-22.47 390.93-23.54 391.01-24.66L391.01-24.66 391.28-27.64Q391.28-27.69 391.13-27.69L391.13-27.69Q390.93-27.69 390.47-27.6 390.01-27.51 389.37-27.39 388.74-27.27 387.97-27.14 387.2-27 386.39-26.88L386.39-26.88Q386.2-26.88 386.01-26.97 385.83-27.05 385.83-27.17L385.83-27.17Q385.83-27.27 385.88-27.32L385.88-27.32 389.84-34.23Q391.18-34.52 392.73-34.83 394.28-35.13 396.06-35.38 397.84-35.62 399.85-35.78 401.85-35.94 404.09-35.94L404.09-35.94Q406.63-35.89 409.04-35.44 411.44-34.99 413.31-33.92 415.18-32.86 416.31-31.04 417.45-29.22 417.45-26.44L417.45-26.44Q417.45-24.9 416.92-23.61 416.4-22.31 415.58-21.28 414.76-20.24 413.79-19.45 412.81-18.65 411.92-18.09 411.03-17.53 410.34-17.2 409.66-16.87 409.42-16.77L409.42-16.77Q409.42-16.72 409.45-16.65 409.49-16.58 409.61-16.37 409.73-16.16 409.97-15.78 410.2-15.41 410.56-14.75L410.56-14.75Q410.95-14.16 411.49-13.18 412.03-12.21 412.77-10.88 413.52-9.55 414.49-7.91 415.47-6.27 416.74-4.39L416.74-4.39Q417.16-4.03 417.69-3.94 418.23-3.86 418.69-3.85 419.16-3.83 419.47-3.8 419.79-3.76 419.79-3.49L419.79-3.49Q419.79-3.3 419.39-3.04 418.99-2.78 418.45-2.51 417.91-2.25 417.36-2 416.81-1.76 416.52-1.61L416.52-1.61Q415.93-1.32 415.3-1.05 414.66-0.78 413.93-0.45 413.2-0.12 412.31 0.32 411.42 0.76 410.29 1.37L410.29 1.37Q410 1.54 409.75 1.6 409.49 1.66 409.27 1.66L409.27 1.66Q408.83 1.66 408.51 1.45 408.2 1.25 407.98 0.95 407.76 0.66 407.62 0.35 407.49 0.05 407.39-0.15L407.39-0.15 400.11-15.48ZM401.38-28.86L400.41-18.48Q401.65-18.48 402.99-19.12 404.34-19.75 405.44-20.75 406.53-21.75 407.24-23.02 407.95-24.29 407.95-25.59L407.95-25.59Q407.95-29.13 403.7-29.13L403.7-29.13Q402.9-29.13 402.36-29.02 401.82-28.91 401.38-28.86L401.38-28.86ZM420.45-1.78L420.45-1.78Q420.77-2.42 421.11-3.21 421.45-4 421.74-4.93L421.74-4.93 422.4-6.54Q421.96-7.2 421.51-7.97 421.06-8.74 420.69-9.55 420.33-10.35 420.09-11.16 419.86-11.96 419.86-12.72L419.86-12.72Q419.86-12.77 420.24-12.81 420.62-12.84 421.19-12.87 421.77-12.89 422.44-12.9 423.11-12.92 423.68-12.93 424.26-12.94 424.64-12.95 425.01-12.96 425.01-12.96L425.01-12.96Q425.58-14.43 426.11-15.75 426.65-17.07 427.19-18.41 427.72-19.75 428.26-21.15 428.8-22.56 429.34-24.17L429.34-24.17Q430.36-27.2 431.34-29.49 432.31-31.79 433.17-33.76L433.17-33.76Q433.27-34.01 433.5-34.22 433.73-34.42 434-34.57 434.27-34.72 434.52-34.81 434.78-34.91 434.93-34.96L434.93-34.96Q435.02-34.99 435.67-35.18 436.32-35.38 437.15-35.6 437.98-35.82 438.8-35.99 439.61-36.16 440.1-36.16L440.1-36.16 440.54-36.16Q440.93-36.16 441.29-35.97 441.64-35.79 441.76-35.25L441.76-35.25Q442.93-32.25 444.26-28.7 445.59-25.15 446.86-20.87L446.86-20.87Q447.55-18.58 448.21-16.53 448.87-14.48 449.53-12.52 450.18-10.57 450.86-8.62 451.53-6.67 452.24-4.59L452.24-4.59Q452.46-3.71 452.69-3.2 452.92-2.69 453.11-2.39 453.31-2.1 453.43-1.97 453.55-1.83 453.55-1.68L453.55-1.68Q453.55-1.54 453.09-1.39L453.09-1.39 447.84 0.32Q447.26 0.54 446.64 0.76 446.03 0.98 445.5 1.15 444.96 1.32 444.56 1.43 444.15 1.54 443.98 1.54L443.98 1.54 443.84 1.54Q443.5 1.54 443.35 1.33 443.2 1.12 443.15 0.93L443.15 0.93Q442.91 0.12 442.67-0.52 442.42-1.17 442.19-1.82 441.96-2.47 441.73-3.2 441.49-3.93 441.27-4.93L441.27-4.93Q441.22-5.05 441.01-5.14 440.79-5.22 440.48-5.27 440.17-5.32 439.83-5.33 439.49-5.35 439.2-5.35L439.2-5.35Q438.27-5.35 437.7-5.33 437.12-5.32 436.68-5.31 436.24-5.3 435.84-5.29 435.44-5.27 434.85-5.27L434.85-5.27Q434.14-5.27 433.4-5.29 432.66-5.3 432.05-5.32L432.05-5.32 430.65-5.37Q430.02-3.61 429.38-2.08 428.75-0.54 428.02 1.1L428.02 1.1Q427.97 1.29 427.78 1.42 427.6 1.54 427.41 1.54L427.41 1.54Q427.26 1.54 427.24 1.51L427.24 1.51Q424.87 0.66 423.26-0.17 421.64-1 420.45-1.78ZM436.9-23.73L436.9-23.73Q436.32-21.56 435.74-19.79 435.17-18.02 434.69-16.65 434.22-15.28 433.88-14.34 433.53-13.4 433.39-12.89L433.39-12.89 433.39-12.67Q433.39-12.52 433.36-12.48L433.36-12.48 439.22-12.48Q438.95-13.67 438.65-14.89 438.34-16.11 438.05-17.46 437.76-18.8 437.47-20.34 437.17-21.88 436.9-23.73ZM459.07 0.88L459.07 0.78Q459.19-1 459.31-2.66 459.44-4.32 459.53-5.88L459.53-5.88 460.41-17.41Q460.56-18.73 460.66-19.81 460.75-20.9 460.81-21.94 460.88-22.97 460.94-24.04 461-25.1 461.07-26.39L461.07-26.39Q460.27-26.42 459.37-26.42 458.48-26.42 457.51-26.42L457.51-26.42 452.79-26.42Q452.53-26.42 452.46-26.62 452.4-26.83 452.4-27L452.4-27 452.4-27.17 455.09-34.23 455.07-34.33Q455.07-34.45 455.22-34.53 455.38-34.62 455.94-34.67L455.94-34.67Q459.31-34.86 462.47-35.05 465.64-35.23 468.72-35.38 471.81-35.52 474.9-35.67 477.99-35.82 481.26-35.94L481.26-35.94Q481.55-35.94 481.88-35.86 482.21-35.79 482.21-35.33L482.21-35.33Q482.21-35.28 482.19-35.23 482.16-35.18 482.16-35.13L482.16-35.13Q481.77-34.13 481.44-33.23 481.11-32.32 480.8-31.45 480.48-30.57 480.15-29.66 479.82-28.76 479.43-27.76L479.43-27.76Q479.41-27.73 479.33-27.53 479.26-27.32 479.11-27.06 478.97-26.81 478.72-26.59 478.48-26.37 478.11-26.34L478.11-26.34Q477.99-26.37 477.87-26.37 477.75-26.37 477.6-26.37L477.6-26.37 471.08-26.37Q470.96-25.12 470.85-23.73 470.74-22.34 470.59-21.02L470.59-21.02 468.81-1.95Q468.79-1.73 468.72-1.51 468.66-1.29 468.4-1.2L468.4-1.2 461.49 1.29Q461.22 1.39 460.78 1.54 460.34 1.68 459.92 1.68L459.92 1.68Q459.58 1.68 459.33 1.51 459.07 1.34 459.07 0.88L459.07 0.88ZM503.6-20.26L503.6-20.26Q503.5-19.92 503.23-19.3 502.96-18.68 502.61-17.9 502.25-17.11 501.85-16.22 501.45-15.33 501.06-14.43L501.06-14.43Q500.91-14.09 500.79-13.93 500.67-13.77 500.4-13.7 500.13-13.62 499.65-13.61 499.18-13.6 498.32-13.57L498.32-13.57 494.93-13.5 494.25-6.03 506.77-6.03 506.77-5.08Q506.72-5.03 506.36-4.43 505.99-3.83 505.5-3 505.01-2.17 504.48-1.33 503.94-0.49 503.57 0.02L503.57 0.02Q503.33 0.46 503.01 0.72 502.69 0.98 502.32 1.1 501.94 1.22 501.49 1.25 501.03 1.27 500.5 1.27L500.5 1.27Q498.3 1.27 495.92 1.17 493.54 1.07 491.17 0.93 488.8 0.78 486.54 0.6 484.29 0.42 482.36 0.22L482.36 0.22Q482.19 0.2 482.05 0.02 481.92-0.15 481.92-0.37L481.92-0.37Q481.82-0.37 482.05-0.78 482.28-1.2 482.7-1.86 483.11-2.51 483.61-3.36 484.12-4.2 484.58-5.05L484.58-5.05 484.97-10.55Q485.07-11.94 485.13-12.62 485.19-13.31 485.19-13.35L485.19-13.35Q483.72-13.38 483-13.5 482.28-13.62 482.28-14.04L482.28-14.04Q482.28-14.23 482.64-14.77 482.99-15.31 483.5-16 484.02-16.7 484.59-17.46 485.17-18.21 485.6-18.85L485.6-18.85 486.21-27.15 486.14-27.15Q485.6-27.12 485.17-27.11 484.73-27.1 484.36-27.1L484.36-27.1Q483.19-27.1 482.69-27.23 482.19-27.37 482.19-27.73L482.19-27.73Q482.19-27.91 482.48-28.44 482.77-28.98 483.21-29.68 483.65-30.37 484.14-31.14 484.63-31.91 485.02-32.57L485.02-32.57 486.48-35.06 496.69-35.06 508.72-35.94Q508.75-35.94 508.86-35.93 508.97-35.91 509.09-35.85 509.21-35.79 509.32-35.64 509.43-35.5 509.43-35.23L509.43-35.23 509.07-33.96Q508.9-33.42 508.65-32.82 508.41-32.23 508.11-31.59L508.11-31.59 507.04-28.76Q506.87-28.34 506.65-28.13 506.43-27.91 505.72-27.88L505.72-27.88Q503.87-27.83 501.58-27.72 499.3-27.61 496.35-27.51L496.35-27.51Q496.25-27.17 496.25-26.97 496.25-26.76 496.2-26.17L496.2-26.17 496.08-25.05Q496.03-24.27 495.93-23.36 495.83-22.46 495.69-21.14L495.69-21.14Q496.93-21.19 498.12-21.24 499.3-21.29 500.28-21.33 501.25-21.36 501.97-21.39 502.69-21.41 502.99-21.41L502.99-21.41Q503.18-21.41 503.43-21.26 503.67-21.12 503.67-20.7L503.67-20.7Q503.67-20.51 503.6-20.26ZM552.32-25.37L552.32-25.37Q552.3-23.27 551.92-21.61 551.54-19.95 550.85-18.62 550.15-17.29 549.16-16.22 548.17-15.16 546.9-14.23L546.9-14.23Q544.46-12.48 541.56-11.58 538.65-10.69 535.72-10.69L535.72-10.69Q535.23-10.69 534.76-10.72 534.28-10.74 533.79-10.79L533.79-10.79 532.99-1.88 532.57-1.12Q532.52-1.03 531.74-0.73 530.96-0.44 529.79-0.05L529.79-0.05 528.25 0.46Q527.52 0.73 526.96 0.95 526.4 1.17 525.91 1.34 525.42 1.51 524.95 1.6 524.49 1.68 523.98 1.68L523.98 1.68Q523.64 1.68 523.44 1.51 523.25 1.34 523.25 0.85L523.25 0.85 523.51-3.32Q523.59-4.57 523.7-5.82 523.81-7.08 523.91-8.69L523.91-8.69 524.37-14.53Q524.52-16.31 524.64-18.09 524.76-19.87 524.88-21.48 525-23.1 525.1-24.5 525.2-25.9 525.27-26.95L525.27-26.95Q523.95-26.66 523.16-26.53 522.37-26.39 521.95-26.39L521.95-26.39Q521.44-26.39 521.44-26.83L521.44-26.83Q521.78-28.03 522.07-29.17L522.07-29.17Q522.34-30.15 522.62-31.19 522.9-32.23 523.1-32.93L523.1-32.93Q523.22-33.37 523.38-33.61 523.54-33.84 523.8-33.97 524.05-34.11 524.45-34.22 524.86-34.33 525.44-34.52L525.44-34.52Q525.91-34.67 526.75-34.85 527.59-35.03 528.68-35.22 529.76-35.4 531.03-35.57 532.3-35.74 533.61-35.88 534.92-36.01 536.19-36.1 537.45-36.18 538.58-36.18L538.58-36.18Q541.36-36.18 543.85-35.67 546.34-35.16 548.22-33.92 550.1-32.69 551.21-30.6 552.32-28.52 552.32-25.37ZM534.48-18.04L534.48-18.04Q534.48-17.77 534.57-17.57 534.67-17.36 535.11-17.36L535.11-17.36Q535.79-17.36 536.73-17.66 537.67-17.97 538.61-18.58 539.55-19.19 540.36-20.09 541.17-21 541.58-22.22L541.58-22.22Q541.75-22.71 541.86-23.46 541.97-24.22 541.97-25.24L541.97-25.24Q541.97-26.95 540.79-27.76 539.6-28.56 537.7-28.56L537.7-28.56Q537.38-28.56 536.98-28.53 536.58-28.49 536.22-28.39 535.87-28.3 535.62-28.16 535.38-28.03 535.36-27.81L535.36-27.81 535.31-27.27Q535.28-26.95 535.21-26.23 535.14-25.51 535.05-24.58 534.96-23.66 534.88-22.63 534.79-21.61 534.71-20.68 534.62-19.75 534.56-19.04 534.5-18.33 534.48-18.04ZM568.14-15.48L566.94-1.95Q566.92-1.73 566.86-1.53 566.8-1.32 566.53-1.2L566.53-1.2Q566.43-1.15 565.57-0.84 564.7-0.54 563.56-0.13 562.43 0.27 561.32 0.67 560.21 1.07 559.62 1.29L559.62 1.29Q559.33 1.42 558.9 1.55 558.47 1.68 558.06 1.68L558.06 1.68Q557.72 1.68 557.46 1.51 557.2 1.34 557.2 0.88L557.2 0.88Q557.2-0.2 557.26-1.09 557.33-1.98 557.42-2.95 557.52-3.93 557.63-5.11 557.74-6.3 557.84-7.93L557.84-7.93Q557.96-10.08 558.11-12.07 558.25-14.06 558.4-16.21L558.4-16.21 558.74-20.39Q558.81-21.41 558.89-22.47 558.96-23.54 559.03-24.66L559.03-24.66 559.3-27.64Q559.3-27.69 559.16-27.69L559.16-27.69Q558.96-27.69 558.5-27.6 558.03-27.51 557.4-27.39 556.76-27.27 555.99-27.14 555.23-27 554.42-26.88L554.42-26.88Q554.22-26.88 554.04-26.97 553.86-27.05 553.86-27.17L553.86-27.17Q553.86-27.27 553.91-27.32L553.91-27.32 557.86-34.23Q559.21-34.52 560.76-34.83 562.31-35.13 564.09-35.38 565.87-35.62 567.87-35.78 569.87-35.94 572.12-35.94L572.12-35.94Q574.66-35.89 577.06-35.44 579.47-34.99 581.34-33.92 583.2-32.86 584.34-31.04 585.47-29.22 585.47-26.44L585.47-26.44Q585.47-24.9 584.95-23.61 584.43-22.31 583.61-21.28 582.79-20.24 581.81-19.45 580.84-18.65 579.95-18.09 579.05-17.53 578.37-17.2 577.69-16.87 577.44-16.77L577.44-16.77Q577.44-16.72 577.48-16.65 577.52-16.58 577.64-16.37 577.76-16.16 577.99-15.78 578.22-15.41 578.59-14.75L578.59-14.75Q578.98-14.16 579.52-13.18 580.06-12.21 580.8-10.88 581.54-9.55 582.52-7.91 583.5-6.27 584.77-4.39L584.77-4.39Q585.18-4.03 585.72-3.94 586.26-3.86 586.72-3.85 587.18-3.83 587.5-3.8 587.82-3.76 587.82-3.49L587.82-3.49Q587.82-3.3 587.42-3.04 587.01-2.78 586.48-2.51 585.94-2.25 585.39-2 584.84-1.76 584.55-1.61L584.55-1.61Q583.96-1.32 583.33-1.05 582.69-0.78 581.96-0.45 581.23-0.12 580.34 0.32 579.44 0.76 578.32 1.37L578.32 1.37Q578.03 1.54 577.77 1.6 577.52 1.66 577.3 1.66L577.3 1.66Q576.86 1.66 576.54 1.45 576.22 1.25 576 0.95 575.78 0.66 575.65 0.35 575.51 0.05 575.42-0.15L575.42-0.15 568.14-15.48ZM569.41-28.86L568.43-18.48Q569.68-18.48 571.02-19.12 572.36-19.75 573.46-20.75 574.56-21.75 575.27-23.02 575.98-24.29 575.98-25.59L575.98-25.59Q575.98-29.13 571.73-29.13L571.73-29.13Q570.92-29.13 570.39-29.02 569.85-28.91 569.41-28.86L569.41-28.86ZM599.53-16.65L599.53-16.65Q599.53-14.89 599.91-13.12 600.29-11.35 601.17-9.94 602.05-8.52 603.49-7.64 604.93-6.76 607.05-6.76L607.05-6.76Q608.69-6.86 609.92-7.43 611.16-8.01 612.05-8.92 612.94-9.84 613.52-11.02 614.11-12.21 614.45-13.51 614.79-14.82 614.93-16.19 615.06-17.55 615.06-18.82L615.06-18.82Q615.06-20.56 614.6-22.18 614.13-23.8 613.21-25.05 612.28-26.29 610.9-27.05 609.52-27.81 607.69-27.81L607.69-27.81Q606.25-27.81 605.09-27.27 603.93-26.73 603.03-25.84 602.12-24.95 601.48-23.79 600.83-22.63 600.4-21.4 599.97-20.17 599.77-18.93 599.56-17.7 599.53-16.65ZM604.3 1.27L604.3 1.27Q600.63 1.27 597.75-0.1 594.87-1.46 592.88-3.8 590.89-6.13 589.83-9.19 588.77-12.26 588.77-15.67L588.77-15.67Q588.77-19.51 589.85-22.74 590.94-25.98 592.89-28.48 594.85-30.98 597.55-32.7 600.24-34.42 603.47-35.25L603.47-35.25Q603.76-35.25 603.92-35.72 604.08-36.18 604.2-36.74 604.32-37.3 604.49-37.77 604.66-38.23 604.98-38.23L604.98-38.23Q609.72-37.74 613.5-36.56 617.28-35.38 619.92-33.18 622.56-30.98 623.96-27.62 625.37-24.27 625.37-19.43L625.37-19.43Q625.37-16.33 624.61-13.6 623.85-10.86 622.48-8.56 621.12-6.25 619.2-4.43 617.28-2.61 614.94-1.34 612.6-0.07 609.9 0.6 607.2 1.27 604.3 1.27ZM653-20.07L653-20.07Q652.9-19.7 652.63-19.02 652.36-18.33 652.02-17.47 651.68-16.6 651.27-15.64 650.85-14.67 650.46-13.75L650.46-13.75Q650.29-13.33 650.06-13.13 649.83-12.94 649.12-12.92L649.12-12.92 641.99-12.79 641.11-1.95Q641.09-1.73 640.99-1.53 640.89-1.32 640.69-1.2L640.69-1.2Q640.62-1.15 640.12-0.92 639.62-0.68 638.86-0.37 638.11-0.05 637.2 0.32 636.3 0.68 635.42 0.99 634.54 1.29 633.81 1.5 633.08 1.71 632.66 1.71L632.66 1.71Q632.17 1.71 631.77 1.53 631.37 1.34 631.37 0.78L631.37 0.78Q631.34-0.44 631.43-1.92 631.51-3.39 631.64-4.92 631.76-6.45 631.91-7.92 632.05-9.4 632.15-10.62L632.15-10.62 632.32-12.67Q630.27-12.67 629.39-12.78 628.51-12.89 628.51-13.35L628.51-13.35Q628.51-13.67 628.88-14.18L628.88-14.18Q629.39-14.89 630.04-15.89 630.68-16.89 631.28-17.85 631.88-18.8 632.33-19.53 632.78-20.26 632.91-20.43L632.91-20.43 633.37-27.15Q632.91-27.15 632.56-27.14 632.22-27.12 631.94-27.11 631.66-27.1 631.42-27.09 631.17-27.08 630.9-27.08L630.9-27.08Q629.73-27.08 629.23-27.21 628.73-27.34 628.73-27.71L628.73-27.71Q628.73-27.88 629.02-28.42 629.32-28.96 629.74-29.65 630.17-30.35 630.67-31.12 631.17-31.88 631.56-32.54L631.56-32.54 633.03-35.03 644.14-35.42Q646.29-35.5 648.41-35.58 650.53-35.67 652.33-35.74 654.12-35.82 655.42-35.88 656.71-35.94 657.22-35.96L657.22-35.96Q657.25-35.96 657.36-35.95 657.47-35.94 657.59-35.88 657.71-35.82 657.82-35.67 657.93-35.52 657.93-35.25L657.93-35.25Q657.93-35.11 657.59-34.28 657.25-33.45 656.61-31.81L656.61-31.81 655.54-28.98Q655.37-28.56 655.15-28.34 654.93-28.13 654.22-28.1L654.22-28.1Q653.39-28.08 652.54-28.03 651.68-27.98 650.78-27.93L650.78-27.93 643.36-27.56Q643.21-26.61 643.15-26.15 643.09-25.68 643.07-25.38 643.06-25.07 643.06-24.77 643.06-24.46 643.04-23.8L643.04-23.8Q643.01-23.34 642.98-23.02 642.94-22.71 642.9-22.4 642.87-22.09 642.83-21.75 642.79-21.41 642.77-20.9L642.77-20.9Q644.38-20.95 645.93-21 647.48-21.04 648.79-21.09 650.09-21.14 651.05-21.18 652-21.22 652.39-21.22L652.39-21.22Q652.58-21.22 652.83-21.07 653.07-20.92 653.07-20.51L653.07-20.51Q653.07-20.31 653-20.07ZM658.07 0.78L658.07 0.78 659.3-15.92Q659.91-24.32 660.2-28.25 660.49-32.18 660.49-32.15L660.49-32.15Q660.52-32.59 660.54-32.89 660.57-33.18 660.64-33.37 660.71-33.57 660.83-33.67 660.96-33.76 661.2-33.81L661.2-33.81 669.65-35.84Q669.96-35.94 670.31-35.94L670.31-35.94Q670.65-35.94 670.77-35.73 670.89-35.52 670.89-34.89L670.89-34.89Q670.72-33.37 670.62-32.06 670.53-30.74 670.47-29.54 670.4-28.34 670.36-27.23 670.31-26.12 670.23-25.02L670.23-25.02Q670.09-23.83 669.98-22.63 669.87-21.44 669.77-20.15 669.67-18.87 669.56-17.44 669.45-16.02 669.31-14.33L669.31-14.33 668.23-1.46Q668.21-1.25 668.15-1.04 668.08-0.83 667.82-0.71L667.82-0.71Q667.79-0.71 667.52-0.61 667.25-0.51 666.82-0.35 666.38-0.2 665.79-0.02 665.2 0.15 664.54 0.29L664.54 0.29Q663.45 0.54 662.63 0.78 661.81 1.03 661.18 1.23 660.54 1.44 660 1.56 659.47 1.68 658.93 1.68L658.93 1.68Q658.56 1.68 658.32 1.49 658.07 1.29 658.07 0.78ZM687.34-34.99L687.34-34.99Q687.32-34.4 687.25-33.53 687.17-32.67 687.09-31.7 687-30.74 686.89-29.75 686.78-28.76 686.7-27.93 686.61-27.1 686.56-26.5 686.51-25.9 686.51-25.73L686.51-25.73Q686.42-24.22 686.31-22.92 686.2-21.63 686.08-20.36 685.95-19.09 685.82-17.74 685.68-16.38 685.54-14.75 685.39-13.11 685.21-11.11 685.03-9.11 684.83-6.52L684.83-6.52 694.94-7.54Q695.62-7.62 696.06-7.62L696.06-7.62Q696.6-7.62 696.73-7.45 696.87-7.28 696.87-6.91L696.87-6.91Q696.87-6.86 696.84-6.77 696.82-6.69 696.73-6.45 696.65-6.2 696.49-5.74 696.33-5.27 696.06-4.44L696.06-4.44 695.52-2.83Q695.25-2.05 695.02-1.43 694.79-0.81 694.45-0.35 694.11 0.1 693.59 0.37 693.08 0.63 692.28 0.71L692.28 0.71Q691.76 0.76 690.88 0.79 690.01 0.83 688.86 0.87 687.71 0.9 686.38 0.95 685.05 1 683.66 1.07L683.66 1.07Q682.29 1.12 680.9 1.14 679.51 1.15 678.26 1.17 677.02 1.2 675.97 1.22 674.92 1.25 674.23 1.27L674.23 1.27Q673.6 1.27 673.32 1.17 673.04 1.07 673.04 0.85L673.04 0.85Q673.04 0.59 673.21 0.09 673.38-0.42 673.65-1.04 673.92-1.66 674.25-2.33 674.58-3 674.89-3.64L674.89-3.64 675.55-12.35Q675.75-14.58 675.94-16.87 676.14-19.17 676.29-21.31L676.29-21.31 676.7-27.78Q676.85-30.08 676.9-31.12 676.94-32.15 676.94-32.25L676.94-32.25Q676.99-32.69 677.02-32.98 677.04-33.28 677.1-33.47 677.16-33.67 677.29-33.76 677.41-33.86 677.65-33.91L677.65-33.91 686.22-35.94Q686.49-36.04 686.88-36.04L686.88-36.04Q687.15-36.04 687.26-35.88 687.37-35.72 687.37-35.28L687.37-35.28Q687.37-35.23 687.36-35.14 687.34-35.06 687.34-34.99ZM720.37-20.26L720.37-20.26Q720.28-19.92 720.01-19.3 719.74-18.68 719.39-17.9 719.03-17.11 718.63-16.22 718.23-15.33 717.84-14.43L717.84-14.43Q717.69-14.09 717.57-13.93 717.44-13.77 717.18-13.7 716.91-13.62 716.43-13.61 715.96-13.6 715.1-13.57L715.1-13.57 711.71-13.5 711.02-6.03 723.55-6.03 723.55-5.08Q723.5-5.03 723.13-4.43 722.77-3.83 722.28-3 721.79-2.17 721.25-1.33 720.72-0.49 720.35 0.02L720.35 0.02Q720.11 0.46 719.79 0.72 719.47 0.98 719.09 1.1 718.71 1.22 718.26 1.25 717.81 1.27 717.27 1.27L717.27 1.27Q715.08 1.27 712.7 1.17 710.32 1.07 707.95 0.93 705.58 0.78 703.32 0.6 701.06 0.42 699.13 0.22L699.13 0.22Q698.96 0.2 698.83 0.02 698.69-0.15 698.69-0.37L698.69-0.37Q698.6-0.37 698.83-0.78 699.06-1.2 699.48-1.86 699.89-2.51 700.39-3.36 700.89-4.2 701.36-5.05L701.36-5.05 701.75-10.55Q701.84-11.94 701.91-12.62 701.97-13.31 701.97-13.35L701.97-13.35Q700.5-13.38 699.78-13.5 699.06-13.62 699.06-14.04L699.06-14.04Q699.06-14.23 699.42-14.77 699.77-15.31 700.28-16 700.79-16.7 701.37-17.46 701.94-18.21 702.38-18.85L702.38-18.85 702.99-27.15 702.92-27.15Q702.38-27.12 701.94-27.11 701.5-27.1 701.14-27.1L701.14-27.1Q699.96-27.1 699.46-27.23 698.96-27.37 698.96-27.73L698.96-27.73Q698.96-27.91 699.26-28.44 699.55-28.98 699.99-29.68 700.43-30.37 700.92-31.14 701.4-31.91 701.8-32.57L701.8-32.57 703.26-35.06 713.47-35.06 725.5-35.94Q725.53-35.94 725.64-35.93 725.75-35.91 725.87-35.85 725.99-35.79 726.1-35.64 726.21-35.5 726.21-35.23L726.21-35.23 725.84-33.96Q725.67-33.42 725.43-32.82 725.18-32.23 724.89-31.59L724.89-31.59 723.82-28.76Q723.65-28.34 723.43-28.13 723.21-27.91 722.5-27.88L722.5-27.88Q720.64-27.83 718.36-27.72 716.08-27.61 713.12-27.51L713.12-27.51Q713.03-27.17 713.03-26.97 713.03-26.76 712.98-26.17L712.98-26.17 712.86-25.05Q712.81-24.27 712.71-23.36 712.61-22.46 712.46-21.14L712.46-21.14Q713.71-21.19 714.89-21.24 716.08-21.29 717.05-21.33 718.03-21.36 718.75-21.39 719.47-21.41 719.76-21.41L719.76-21.41Q719.96-21.41 720.2-21.26 720.45-21.12 720.45-20.7L720.45-20.7Q720.45-20.51 720.37-20.26Z" opacity="1" transform="matrix(1,0,0,1,0,0)" fill="#233565" class="wordmark-text-0" data-fill-palette-color="primary" id="text-0"></path></svg></g></svg></g><g transform="matrix(1,0,0,1,163.310208,27.01302263820865)"><svg viewBox="0 0 232.20979199999994 14.017873253288812" height="14.017873253288812" width="232.20979199999994"><g transform="matrix(1,0,0,1,0,0)"><svg width="232.20979199999994" viewBox="2.3499999046325684 -36.54999923706055 748.6700439453125 45.19999694824219" height="14.017873253288812" data-palette-color="#233565"><path d="M19.35 0.6Q10.95 0.6 6.65-3.83 2.35-8.25 2.35-17.15L2.35-17.15Q2.35-34.9 19.65-34.9L19.65-34.9Q26.75-34.9 31.05-31.75 35.35-28.6 35.35-22.6L35.35-22.6 30.5-22.6Q30.5-26.75 27.6-28.8 24.7-30.85 19.65-30.85L19.65-30.85Q13.4-30.85 10.35-27.65 7.3-24.45 7.3-17.15L7.3-17.15 7.3-17.05Q7.35-9.8 10.33-6.63 13.3-3.45 19.35-3.45L19.35-3.45Q25.15-3.45 27.88-5.85 30.6-8.25 30.6-13.2L30.6-13.2 30.6-13.7 18.5-13.7 18.5-17.85 35.35-17.85 35.35 0 31.65 0 31.3-3.8Q27.4 0.6 19.35 0.6L19.35 0.6ZM42.25 0L42.25-36.15 46.65-36.15 46.65 0 42.25 0ZM63.9 0.6Q57.85 0.6 54.8-2.78 51.75-6.15 51.75-13.15L51.75-13.15Q51.75-20.15 54.8-23.53 57.85-26.9 63.9-26.9L63.9-26.9Q69.95-26.9 73-23.53 76.05-20.15 76.05-13.15L76.05-13.15Q76.05-6.15 73-2.78 69.95 0.6 63.9 0.6L63.9 0.6ZM63.9-3.05Q67.9-3.05 69.7-5.38 71.5-7.7 71.5-12.95L71.5-12.95 71.5-13.35Q71.5-18.6 69.7-20.93 67.9-23.25 63.9-23.25L63.9-23.25Q59.9-23.25 58.1-20.93 56.3-18.6 56.3-13.35L56.3-13.35 56.3-12.95Q56.3-7.7 58.1-5.38 59.9-3.05 63.9-3.05L63.9-3.05ZM93.44 0.6Q90.84 0.6 88.72-0.45 86.59-1.5 85.29-3.55L85.29-3.55 84.99-3.55 84.44 0 81.14 0 81.14-36.15 85.54-36.15 85.54-23.3 85.84-23.3Q87.14-25.2 89.09-26.05 91.04-26.9 93.84-26.9L93.84-26.9Q98.49-26.9 101.17-23.48 103.84-20.05 103.84-13.15L103.84-13.15Q103.84-6.1 101.14-2.75 98.44 0.6 93.44 0.6L93.44 0.6ZM92.34-3.05Q94.89-3.05 96.39-4 97.89-4.95 98.59-7.1 99.29-9.25 99.29-12.95L99.29-12.95 99.29-13.15Q99.29-16.9 98.59-19.1 97.89-21.3 96.37-22.28 94.84-23.25 92.34-23.25L92.34-23.25Q88.84-23.25 87.19-20.7 85.54-18.15 85.54-13.15L85.54-13.15 85.54-12.95Q85.54-8.05 87.17-5.55 88.79-3.05 92.34-3.05L92.34-3.05ZM116.09 0.6Q112.69 0.6 110.04-1 107.39-2.6 107.39-6.8L107.39-6.8Q107.39-11.85 111.89-13.73 116.39-15.6 124.89-15.6L124.89-15.6 124.89-18.5Q124.89-20.8 123.59-22.03 122.29-23.25 118.89-23.25L118.89-23.25Q115.69-23.25 114.32-22.05 112.94-20.85 112.94-19.1L112.94-19.1 112.94-18.5 108.69-18.5Q108.64-18.8 108.64-19.6L108.64-19.6Q108.64-23.1 111.54-25 114.44-26.9 119.29-26.9L119.29-26.9Q124.19-26.9 126.74-24.85 129.29-22.8 129.29-19.05L129.29-19.05 129.29-4.8Q129.29-3.9 129.79-3.48 130.29-3.05 131.04-3.05L131.04-3.05 133.04-3.05 133.04-0.2Q131.74 0.4 129.64 0.4L129.64 0.4Q127.94 0.4 126.79-0.63 125.64-1.65 125.24-3.35L125.24-3.35 124.89-3.35Q123.54-1.5 121.22-0.45 118.89 0.6 116.09 0.6L116.09 0.6ZM117.24-3.05Q119.19-3.05 120.94-3.85 122.69-4.65 123.79-6.23 124.89-7.8 124.89-10.05L124.89-10.05 124.89-11.95Q118.44-11.95 115.22-10.93 111.99-9.9 111.99-7.05L111.99-7.05Q111.99-4.9 113.32-3.98 114.64-3.05 117.24-3.05L117.24-3.05ZM136.74 0L136.74-36.15 141.14-36.15 141.14 0 136.74 0ZM177.43 0.6Q169.13 0.6 164.93-3.83 160.73-8.25 160.73-17.15L160.73-17.15Q160.73-26.05 164.93-30.48 169.13-34.9 177.43-34.9L177.43-34.9Q184.13-34.9 188.16-31.58 192.18-28.25 192.18-21.9L192.18-21.9 187.33-21.9Q187.33-26.3 184.71-28.58 182.08-30.85 177.43-30.85L177.43-30.85Q171.38-30.85 168.53-27.65 165.68-24.45 165.63-17.25L165.63-17.25 165.63-17.15Q165.63-9.9 168.48-6.68 171.33-3.45 177.43-3.45L177.43-3.45Q182.18-3.45 184.86-5.7 187.53-7.95 187.53-12.3L187.53-12.3 192.18-12.3Q192.18-5.9 188.18-2.65 184.18 0.6 177.43 0.6L177.43 0.6ZM208.38 0.6Q202.33 0.6 199.28-2.78 196.23-6.15 196.23-13.15L196.23-13.15Q196.23-20.15 199.28-23.53 202.33-26.9 208.38-26.9L208.38-26.9Q214.43-26.9 217.48-23.53 220.53-20.15 220.53-13.15L220.53-13.15Q220.53-6.15 217.48-2.78 214.43 0.6 208.38 0.6L208.38 0.6ZM208.38-3.05Q212.38-3.05 214.18-5.38 215.98-7.7 215.98-12.95L215.98-12.95 215.98-13.35Q215.98-18.6 214.18-20.93 212.38-23.25 208.38-23.25L208.38-23.25Q204.38-23.25 202.58-20.93 200.78-18.6 200.78-13.35L200.78-13.35 200.78-12.95Q200.78-7.7 202.58-5.38 204.38-3.05 208.38-3.05L208.38-3.05ZM225.63 0L225.63-26.3 228.98-26.3 229.48-22.35 229.78-22.35Q230.53-24.3 232.03-25.6 233.53-26.9 235.98-26.9L235.98-26.9Q237.33-26.9 238.33-26.5L238.33-26.5 238.33-22.25 236.48-22.25Q233.68-22.25 231.85-20.63 230.03-19 230.03-15.55L230.03-15.55 230.03 0 225.63 0ZM242.28 8.65L242.28-26.3 245.58-26.3 246.13-22.75 246.43-22.75Q247.73-24.8 249.85-25.85 251.98-26.9 254.58-26.9L254.58-26.9Q259.58-26.9 262.28-23.55 264.98-20.2 264.98-13.15L264.98-13.15Q264.98-6.25 262.3-2.83 259.63 0.6 254.98 0.6L254.98 0.6Q252.18 0.6 250.23-0.25 248.28-1.1 246.98-3L246.98-3 246.68-3 246.68 8.65 242.28 8.65ZM253.48-3.05Q256.03-3.05 257.53-4 259.03-4.95 259.73-7.1 260.43-9.25 260.43-12.95L260.43-12.95 260.43-13.15Q260.43-16.9 259.73-19.1 259.03-21.3 257.5-22.28 255.98-23.25 253.48-23.25L253.48-23.25Q249.98-23.25 248.33-20.7 246.68-18.15 246.68-13.15L246.68-13.15 246.68-12.95Q246.68-8.05 248.3-5.55 249.93-3.05 253.48-3.05L253.48-3.05ZM280.62 0.6Q274.57 0.6 271.52-2.78 268.47-6.15 268.47-13.15L268.47-13.15Q268.47-20.15 271.52-23.53 274.57-26.9 280.62-26.9L280.62-26.9Q286.67-26.9 289.72-23.53 292.77-20.15 292.77-13.15L292.77-13.15Q292.77-6.15 289.72-2.78 286.67 0.6 280.62 0.6L280.62 0.6ZM280.62-3.05Q284.62-3.05 286.42-5.38 288.22-7.7 288.22-12.95L288.22-12.95 288.22-13.35Q288.22-18.6 286.42-20.93 284.62-23.25 280.62-23.25L280.62-23.25Q276.62-23.25 274.82-20.93 273.02-18.6 273.02-13.35L273.02-13.35 273.02-12.95Q273.02-7.7 274.82-5.38 276.62-3.05 280.62-3.05L280.62-3.05ZM297.87 0L297.87-26.3 301.22-26.3 301.72-22.35 302.02-22.35Q302.77-24.3 304.27-25.6 305.77-26.9 308.22-26.9L308.22-26.9Q309.57-26.9 310.57-26.5L310.57-26.5 310.57-22.25 308.72-22.25Q305.92-22.25 304.1-20.63 302.27-19 302.27-15.55L302.27-15.55 302.27 0 297.87 0ZM321.67 0.6Q318.27 0.6 315.62-1 312.97-2.6 312.97-6.8L312.97-6.8Q312.97-11.85 317.47-13.73 321.97-15.6 330.47-15.6L330.47-15.6 330.47-18.5Q330.47-20.8 329.17-22.03 327.87-23.25 324.47-23.25L324.47-23.25Q321.27-23.25 319.89-22.05 318.52-20.85 318.52-19.1L318.52-19.1 318.52-18.5 314.27-18.5Q314.22-18.8 314.22-19.6L314.22-19.6Q314.22-23.1 317.12-25 320.02-26.9 324.87-26.9L324.87-26.9Q329.77-26.9 332.32-24.85 334.87-22.8 334.87-19.05L334.87-19.05 334.87-4.8Q334.87-3.9 335.37-3.48 335.87-3.05 336.62-3.05L336.62-3.05 338.62-3.05 338.62-0.2Q337.32 0.4 335.22 0.4L335.22 0.4Q333.52 0.4 332.37-0.63 331.22-1.65 330.82-3.35L330.82-3.35 330.47-3.35Q329.12-1.5 326.79-0.45 324.47 0.6 321.67 0.6L321.67 0.6ZM322.82-3.05Q324.77-3.05 326.52-3.85 328.27-4.65 329.37-6.23 330.47-7.8 330.47-10.05L330.47-10.05 330.47-11.95Q324.02-11.95 320.79-10.93 317.57-9.9 317.57-7.05L317.57-7.05Q317.57-4.9 318.89-3.98 320.22-3.05 322.82-3.05L322.82-3.05ZM348.27 0.55Q345.57 0.55 344.32-1.05 343.07-2.65 343.07-5L343.07-5 343.07-22.65 339.87-22.65 339.87-26.3 343.12-26.3 344.07-33.6 347.47-33.6 347.47-26.3 351.92-26.3 351.92-22.65 347.47-22.65 347.47-5.4Q347.47-3.05 349.67-3.05L349.67-3.05 351.92-3.05 351.92-0.15Q351.27 0.15 350.22 0.35 349.17 0.55 348.27 0.55L348.27 0.55ZM367.36 0.6Q361.01 0.6 357.91-2.75 354.81-6.1 354.81-13.15L354.81-13.15Q354.81-20.2 357.91-23.55 361.01-26.9 367.36-26.9L367.36-26.9Q373.06-26.9 375.89-23.88 378.71-20.85 378.71-14.15L378.71-14.15 378.71-11.95 359.36-11.95Q359.61-7.4 361.54-5.23 363.46-3.05 367.36-3.05L367.36-3.05Q370.51-3.05 372.46-4.5 374.41-5.95 374.41-8.95L374.41-8.95 378.71-8.95Q378.71-4.35 375.54-1.88 372.36 0.6 367.36 0.6L367.36 0.6ZM359.46-15.6L374.11-15.6Q374.11-23.25 367.36-23.25L367.36-23.25Q363.61-23.25 361.74-21.45 359.86-19.65 359.46-15.6L359.46-15.6ZM398.51 0L398.51-34.3 415.21-34.3Q420.36-34.3 423.11-31.45 425.86-28.6 425.86-23.85L425.86-23.85Q425.86-19 422.98-16.07 420.11-13.15 415.21-13.15L415.21-13.15 403.26-13.15 403.26 0 398.51 0ZM403.26-17.3L414.96-17.3Q417.76-17.3 419.41-19.05 421.06-20.8 421.06-23.8L421.06-23.8Q421.06-26.85 419.51-28.5 417.96-30.15 414.96-30.15L414.96-30.15 403.26-30.15 403.26-17.3ZM431.26 0L431.26-26.3 434.61-26.3 435.11-22.35 435.41-22.35Q436.16-24.3 437.66-25.6 439.16-26.9 441.61-26.9L441.61-26.9Q442.96-26.9 443.96-26.5L443.96-26.5 443.96-22.25 442.11-22.25Q439.31-22.25 437.48-20.63 435.66-19 435.66-15.55L435.66-15.55 435.66 0 431.26 0ZM458.45 0.6Q452.4 0.6 449.35-2.78 446.3-6.15 446.3-13.15L446.3-13.15Q446.3-20.15 449.35-23.53 452.4-26.9 458.45-26.9L458.45-26.9Q464.5-26.9 467.55-23.53 470.6-20.15 470.6-13.15L470.6-13.15Q470.6-6.15 467.55-2.78 464.5 0.6 458.45 0.6L458.45 0.6ZM458.45-3.05Q462.45-3.05 464.25-5.38 466.05-7.7 466.05-12.95L466.05-12.95 466.05-13.35Q466.05-18.6 464.25-20.93 462.45-23.25 458.45-23.25L458.45-23.25Q454.45-23.25 452.65-20.93 450.85-18.6 450.85-13.35L450.85-13.35 450.85-12.95Q450.85-7.7 452.65-5.38 454.45-3.05 458.45-3.05L458.45-3.05ZM476.65 0L476.65-22.65 472.8-22.65 472.8-26.3 476.65-26.3 476.65-30.5Q476.65-33.1 477.95-34.83 479.25-36.55 482.35-36.55L482.35-36.55Q483.35-36.55 484.38-36.38 485.4-36.2 486.1-35.95L486.1-35.95 486.1-32.9 483.5-32.9Q481.05-32.9 481.05-30.5L481.05-30.5 481.05-26.3 486.1-26.3 486.1-22.65 481.05-22.65 481.05 0 476.65 0ZM489.6-31.4L489.6-36.15 493.95-36.15 493.95-31.4 489.6-31.4ZM489.6 0L489.6-26.3 494-26.3 494 0 489.6 0ZM500.7 0L500.7-36.15 505.1-36.15 505.1 0 500.7 0ZM522.94 0.6Q516.59 0.6 513.49-2.75 510.39-6.1 510.39-13.15L510.39-13.15Q510.39-20.2 513.49-23.55 516.59-26.9 522.94-26.9L522.94-26.9Q528.64-26.9 531.47-23.88 534.29-20.85 534.29-14.15L534.29-14.15 534.29-11.95 514.94-11.95Q515.19-7.4 517.12-5.23 519.04-3.05 522.94-3.05L522.94-3.05Q526.09-3.05 528.04-4.5 529.99-5.95 529.99-8.95L529.99-8.95 534.29-8.95Q534.29-4.35 531.12-1.88 527.94 0.6 522.94 0.6L522.94 0.6ZM515.04-15.6L529.69-15.6Q529.69-23.25 522.94-23.25L522.94-23.25Q519.19-23.25 517.32-21.45 515.44-19.65 515.04-15.6L515.04-15.6ZM566.74 0.6Q560.49 0.6 556.54-1.9 552.59-4.4 552.59-9.7L552.59-9.7 552.64-10.7 557.34-10.7Q557.24-10 557.24-9.65L557.24-9.65Q557.24-6.6 559.76-5.03 562.29-3.45 566.49-3.45L566.49-3.45Q571.19-3.45 573.69-4.93 576.19-6.4 576.19-9.15L576.19-9.15Q576.19-11 574.89-12.23 573.59-13.45 571.61-14.15 569.64-14.85 566.29-15.7L566.29-15.7Q562.14-16.75 559.59-17.73 557.04-18.7 555.24-20.63 553.44-22.55 553.44-25.7L553.44-25.7Q553.44-30.2 557.19-32.55 560.94-34.9 566.79-34.9L566.79-34.9Q572.64-34.9 576.29-32.52 579.94-30.15 579.94-25.25L579.94-25.25 579.94-24.65 575.29-24.65 575.29-25.4Q575.29-27.95 572.96-29.4 570.64-30.85 566.94-30.85L566.94-30.85Q562.99-30.85 560.61-29.65 558.24-28.45 558.24-26.05L558.24-26.05Q558.24-24.3 559.51-23.2 560.79-22.1 562.66-21.43 564.54-20.75 567.89-19.9L567.89-19.9Q572.04-18.85 574.66-17.85 577.29-16.85 579.11-14.93 580.94-13 580.94-9.9L580.94-9.9Q580.94-4.4 577.11-1.9 573.29 0.6 566.74 0.6L566.74 0.6ZM592.78 0.55Q590.08 0.55 588.83-1.05 587.58-2.65 587.58-5L587.58-5 587.58-22.65 584.38-22.65 584.38-26.3 587.63-26.3 588.58-33.6 591.98-33.6 591.98-26.3 596.43-26.3 596.43-22.65 591.98-22.65 591.98-5.4Q591.98-3.05 594.18-3.05L594.18-3.05 596.43-3.05 596.43-0.15Q595.78 0.15 594.73 0.35 593.68 0.55 592.78 0.55L592.78 0.55ZM600.73 0L600.73-26.3 604.08-26.3 604.58-22.35 604.88-22.35Q605.63-24.3 607.13-25.6 608.63-26.9 611.08-26.9L611.08-26.9Q612.43-26.9 613.43-26.5L613.43-26.5 613.43-22.25 611.58-22.25Q608.78-22.25 606.96-20.63 605.13-19 605.13-15.55L605.13-15.55 605.13 0 600.73 0ZM625.43 0.6Q621.48 0.6 619.35-1.53 617.23-3.65 617.23-8.35L617.23-8.35 617.23-26.3 621.63-26.3 621.63-8.65Q621.63-5.5 623.03-4.28 624.43-3.05 627.08-3.05L627.08-3.05Q628.98-3.05 630.58-3.98 632.18-4.9 633.13-6.65 634.08-8.4 634.08-10.75L634.08-10.75 634.08-26.3 638.48-26.3 638.48 0 635.13 0 634.63-3.55 634.28-3.55Q631.38 0.6 625.43 0.6L625.43 0.6ZM655.18 0.6Q649.18 0.6 646.38-2.73 643.58-6.05 643.58-13.15L643.58-13.15Q643.58-20.2 646.4-23.55 649.23-26.9 655.18-26.9L655.18-26.9Q660.58-26.9 663.08-24.3 665.58-21.7 665.58-16.55L665.58-16.55 661.08-16.55Q661.08-20.1 659.8-21.68 658.53-23.25 655.18-23.25L655.18-23.25Q651.53-23.25 649.83-20.88 648.13-18.5 648.13-13.15L648.13-13.15 648.13-12.95Q648.13-7.65 649.78-5.35 651.43-3.05 655.18-3.05L655.18-3.05Q658.48-3.05 659.9-4.73 661.33-6.4 661.33-9.75L661.33-9.75 665.58-9.75Q665.58-5.25 663.03-2.33 660.48 0.6 655.18 0.6L655.18 0.6ZM676.12 0.55Q673.42 0.55 672.17-1.05 670.92-2.65 670.92-5L670.92-5 670.92-22.65 667.72-22.65 667.72-26.3 670.97-26.3 671.92-33.6 675.32-33.6 675.32-26.3 679.77-26.3 679.77-22.65 675.32-22.65 675.32-5.4Q675.32-3.05 677.52-3.05L677.52-3.05 679.77-3.05 679.77-0.15Q679.12 0.15 678.07 0.35 677.02 0.55 676.12 0.55L676.12 0.55ZM692.12 0.6Q688.17 0.6 686.05-1.53 683.92-3.65 683.92-8.35L683.92-8.35 683.92-26.3 688.32-26.3 688.32-8.65Q688.32-5.5 689.72-4.28 691.12-3.05 693.77-3.05L693.77-3.05Q695.67-3.05 697.27-3.98 698.87-4.9 699.82-6.65 700.77-8.4 700.77-10.75L700.77-10.75 700.77-26.3 705.17-26.3 705.17 0 701.82 0 701.32-3.55 700.97-3.55Q698.07 0.6 692.12 0.6L692.12 0.6ZM711.87 0L711.87-26.3 715.22-26.3 715.72-22.35 716.02-22.35Q716.77-24.3 718.27-25.6 719.77-26.9 722.22-26.9L722.22-26.9Q723.57-26.9 724.57-26.5L724.57-26.5 724.57-22.25 722.72-22.25Q719.92-22.25 718.09-20.63 716.27-19 716.27-15.55L716.27-15.55 716.27 0 711.87 0ZM739.67 0.6Q733.32 0.6 730.22-2.75 727.12-6.1 727.12-13.15L727.12-13.15Q727.12-20.2 730.22-23.55 733.32-26.9 739.67-26.9L739.67-26.9Q745.37-26.9 748.19-23.88 751.02-20.85 751.02-14.15L751.02-14.15 751.02-11.95 731.67-11.95Q731.92-7.4 733.84-5.23 735.77-3.05 739.67-3.05L739.67-3.05Q742.82-3.05 744.77-4.5 746.72-5.95 746.72-8.95L746.72-8.95 751.02-8.95Q751.02-4.35 747.84-1.88 744.67 0.6 739.67 0.6L739.67 0.6ZM731.77-15.6L746.42-15.6Q746.42-23.25 739.67-23.25L739.67-23.25Q735.92-23.25 734.04-21.45 732.17-19.65 731.77-15.6L731.77-15.6Z" opacity="1" transform="matrix(1,0,0,1,0,0)" fill="#233565" class="slogan-text-1" data-fill-palette-color="secondary" id="text-1"></path></svg></g></svg></g></svg></g></svg></g><g transform="matrix(1,0,0,1,407.8091431624175,0)"><svg viewBox="0 0 28.813573324179615 56.70469812204951" height="56.70469812204951" width="28.813573324179615"><g><svg xmlns="http://www.w3.org/2000/svg" xmlns:xlink="http://www.w3.org/1999/xlink" version="1.1" x="0" y="0" viewBox="26.103477478027344 2.969003677368164 48.16752624511719 94.79299926757812" enable-background="new 0 0 100 100" xml:space="preserve" height="56.70469812204951" width="28.813573324179615" class="icon-icon-0" data-fill-palette-color="accent" id="icon-0"><path d="M74.221 47.819c0.029-0.052 0.041-0.137 0.05-0.18l-0.107 0.27C74.181 47.876 74.207 47.853 74.221 47.819z" fill="#278966" data-fill-palette-color="accent"></path><path d="M26.222 79.151C29.457 68.9 34.97 57.747 34.97 57.747l14.852 40.015L27.255 85.091l8.23-7.903C35.485 77.188 28.538 78.658 26.222 79.151L26.222 79.151zM73.403 79.151C70.17 68.9 64.66 58.338 64.66 58.338L49.822 97.762l22.549-12.671-8.229-7.903C64.142 77.188 71.089 78.658 73.403 79.151L73.403 79.151z" fill="#278966" data-fill-palette-color="accent"></path><path d="M26.125 36.351c0.142 2.354 2.774 9.639 5.296 8.91 1.232 9.681 8.069 12.777 8.069 12.777l8.507 4.916h3.872l8.385-4.916c0 0 6.821-3.096 8.066-12.777 2.523 0.729 5.158-6.556 5.299-8.91 0.137-2.269-0.352-5.786-3.42-5.141 0.07-0.49 0.128-0.981 0.184-1.456 0-0.029 0-0.057 0.013-0.07 0.518-4.133 0.854-7.748 0.67-9.75-0.488-5.156-3.836-10.48-9.329-13.772-0.042-0.015-0.081-0.028-0.127-0.042-2.924-1.192-7.354-2.97-12.283-3.151-4.345 0.111-8.458 0.861-11.251 3.151-0.45 0.369-1.188 1.327-1.708 1.583-0.173 0.082-3.928 0.852-5.615 3.662-2.49 4.151-1.838 15.096-1.221 19.846C26.462 30.565 25.985 34.082 26.125 36.351" fill="#278966" data-fill-palette-color="accent"></path></svg></g></svg></g></svg></g><defs></defs></svg><rect width="395.52" height="51.36664070459898" fill="none" stroke="none" visibility="hidden"></rect></g></svg></g></svg>