<svg xmlns="http://www.w3.org/2000/svg" version="1.1" xmlns:xlink="http://www.w3.org/1999/xlink" xmlns:svgjs="http://svgjs.dev/svgjs" width="1500" height="272" viewBox="0 0 1500 272"><g transform="matrix(1,0,0,1,-0.9090909090911055,-0.6090170204815593)"><svg viewBox="0 0 396 72" data-background-color="#ffffff" preserveAspectRatio="xMidYMid meet" height="272" width="1500" xmlns="http://www.w3.org/2000/svg" xmlns:xlink="http://www.w3.org/1999/xlink"><g id="tight-bounds" transform="matrix(1,0,0,1,0.24000000000003752,0.16121038777453123)"><svg viewBox="0 0 395.5199999999999 71.67757922445092" height="71.67757922445092" width="395.5199999999999"><g><svg viewBox="0 0 503.1349713433741 91.17995744603698" height="71.67757922445092" width="395.5199999999999"><g><rect width="3.758661524427907" height="66.30669843217593" x="405.3594280744186" y="12.436629506930522" fill="#374151" opacity="1" stroke-width="0" stroke="transparent" fill-opacity="1" class="rect-qz-0" data-fill-palette-color="primary" rx="1%" id="qz-0" data-palette-color="#374151"></rect></g><g transform="matrix(1,0,0,1,0,12.60157154283145)"><svg viewBox="0 0 395.52 65.97681436037408" height="65.97681436037408" width="395.52"><g id="textblocktransform"><svg viewBox="0 0 395.52 65.97681436037408" height="65.97681436037408" width="395.52" id="textblock"><g><svg viewBox="0 0 395.52 41.67906976744186" height="41.67906976744186" width="395.52"><g transform="matrix(1,0,0,1,0,0)"><svg width="395.52" viewBox="2.15 -39.85 479.66 50.75000000000001" height="41.67906976744186" data-palette-color="#374151"><g class="wordmark-text-0" data-fill-palette-color="primary" id="text-0"><path d="M17.25-35.3Q20.4-35.3 22.75-34.4 25.1-33.5 27.35-31.65L27.35-31.65 24-27.75Q20.95-30.2 17.6-30.2L17.6-30.2Q13.75-30.2 11.43-27.1 9.1-24 9.1-17.35L9.1-17.35Q9.1-10.85 11.4-7.7 13.7-4.55 17.6-4.55L17.6-4.55Q19.65-4.55 21.25-5.28 22.85-6 24.65-7.35L24.65-7.35 27.75-3.45Q26-1.65 23.33-0.45 20.65 0.75 17.35 0.75L17.35 0.75Q12.85 0.75 9.4-1.35 5.95-3.45 4.05-7.53 2.15-11.6 2.15-17.35L2.15-17.35Q2.15-23 4.13-27.05 6.1-31.1 9.53-33.2 12.95-35.3 17.25-35.3L17.25-35.3ZM43.05-27.2Q48.9-27.2 52.17-23.48 55.45-19.75 55.45-13.25L55.45-13.25Q55.45-9.1 53.95-5.93 52.45-2.75 49.65-1 46.85 0.75 43 0.75L43 0.75Q37.15 0.75 33.85-2.98 30.55-6.7 30.55-13.25L30.55-13.25Q30.55-17.4 32.05-20.55 33.55-23.7 36.37-25.45 39.2-27.2 43.05-27.2L43.05-27.2ZM43.05-22.35Q37.3-22.35 37.3-13.25L37.3-13.25Q37.3-8.55 38.72-6.33 40.15-4.1 43-4.1L43-4.1Q45.85-4.1 47.27-6.35 48.7-8.6 48.7-13.25L48.7-13.25Q48.7-17.9 47.27-20.13 45.85-22.35 43.05-22.35L43.05-22.35ZM74.5-27.15Q75.95-27.15 77.15-26.8L77.15-26.8 76.05-20.6Q74.84-20.9 73.7-20.9L73.7-20.9Q71.34-20.9 70-19.23 68.65-17.55 67.84-14.1L67.84-14.1 67.84 0 61.45 0 61.45-26.45 67-26.45 67.59-21.25Q68.55-24.1 70.34-25.63 72.15-27.15 74.5-27.15L74.5-27.15ZM94.84-27.2Q99.84-27.2 102.24-23.55 104.64-19.9 104.64-13.3L104.64-13.3Q104.64-9.2 103.42-6.03 102.19-2.85 99.82-1.05 97.44 0.75 94.19 0.75L94.19 0.75Q89.99 0.75 87.54-2.15L87.54-2.15 87.54 10.2 81.14 10.9 81.14-26.45 86.74-26.45 87.09-23.2Q88.64-25.2 90.64-26.2 92.64-27.2 94.84-27.2L94.84-27.2ZM92.39-4.15Q97.94-4.15 97.94-13.25L97.94-13.25Q97.94-18.1 96.69-20.25 95.44-22.4 92.94-22.4L92.94-22.4Q91.34-22.4 89.94-21.43 88.54-20.45 87.54-18.8L87.54-18.8 87.54-6.9Q89.39-4.15 92.39-4.15L92.39-4.15ZM121.74-27.2Q127.59-27.2 130.87-23.48 134.14-19.75 134.14-13.25L134.14-13.25Q134.14-9.1 132.64-5.93 131.14-2.75 128.34-1 125.54 0.75 121.69 0.75L121.69 0.75Q115.84 0.75 112.54-2.98 109.24-6.7 109.24-13.25L109.24-13.25Q109.24-17.4 110.74-20.55 112.24-23.7 115.07-25.45 117.89-27.2 121.74-27.2L121.74-27.2ZM121.74-22.35Q115.99-22.35 115.99-13.25L115.99-13.25Q115.99-8.55 117.42-6.33 118.84-4.1 121.69-4.1L121.69-4.1Q124.54-4.1 125.97-6.35 127.39-8.6 127.39-13.25L127.39-13.25Q127.39-17.9 125.97-20.13 124.54-22.35 121.74-22.35L121.74-22.35ZM153.19-27.15Q154.64-27.15 155.84-26.8L155.84-26.8 154.74-20.6Q153.54-20.9 152.39-20.9L152.39-20.9Q150.04-20.9 148.69-19.23 147.34-17.55 146.54-14.1L146.54-14.1 146.54 0 140.14 0 140.14-26.45 145.69-26.45 146.29-21.25Q147.24-24.1 149.04-25.63 150.84-27.15 153.19-27.15L153.19-27.15ZM179.39-7Q179.39-5.45 179.86-4.73 180.34-4 181.39-3.6L181.39-3.6 180.04 0.65Q177.79 0.45 176.36-0.45 174.94-1.35 174.19-3.2L174.19-3.2Q172.84-1.2 170.81-0.23 168.79 0.75 166.29 0.75L166.29 0.75Q162.34 0.75 160.04-1.5 157.74-3.75 157.74-7.4L157.74-7.4Q157.74-11.7 160.86-13.98 163.99-16.25 169.79-16.25L169.79-16.25 173.09-16.25 173.09-17.75Q173.09-20.3 171.91-21.33 170.74-22.35 168.14-22.35L168.14-22.35Q165.24-22.35 161.14-20.95L161.14-20.95 159.64-25.3Q164.59-27.2 169.24-27.2L169.24-27.2Q179.39-27.2 179.39-18.1L179.39-18.1 179.39-7ZM167.99-3.9Q171.24-3.9 173.09-7.15L173.09-7.15 173.09-12.5 170.44-12.5Q164.24-12.5 164.24-7.9L164.24-7.9Q164.24-6 165.19-4.95 166.14-3.9 167.99-3.9L167.99-3.9ZM200.03-5.35L202.28-1.25Q200.88-0.25 199.16 0.25 197.43 0.75 195.63 0.75L195.63 0.75Q191.73 0.7 189.71-1.48 187.68-3.65 187.68-7.9L187.68-7.9 187.68-21.85 183.53-21.85 183.53-26.45 187.68-26.45 187.68-32.3 194.08-33.05 194.08-26.45 200.23-26.45 199.58-21.85 194.08-21.85 194.08-8.05Q194.08-6.1 194.76-5.25 195.43-4.4 196.88-4.4L196.88-4.4Q198.33-4.4 200.03-5.35L200.03-5.35ZM227.58-13.85Q227.58-13.35 227.43-11.25L227.43-11.25 210.83-11.25Q211.13-7.4 212.83-5.75 214.53-4.1 217.33-4.1L217.33-4.1Q219.08-4.1 220.63-4.67 222.18-5.25 223.93-6.45L223.93-6.45 226.58-2.8Q222.18 0.75 216.78 0.75L216.78 0.75Q210.73 0.75 207.46-2.95 204.18-6.65 204.18-13.05L204.18-13.05Q204.18-17.1 205.58-20.33 206.98-23.55 209.63-25.38 212.28-27.2 215.93-27.2L215.93-27.2Q221.48-27.2 224.53-23.68 227.58-20.15 227.58-13.85L227.58-13.85ZM221.23-15.4L221.23-15.7Q221.23-22.65 216.08-22.65L216.08-22.65Q213.73-22.65 212.41-20.93 211.08-19.2 210.83-15.4L210.83-15.4 221.23-15.4Z" fill="#374151" data-fill-palette-color="primary"></path><path d="M257.38-35.3Q262.03-35.3 265.43-33.2 268.83-31.1 270.65-27.05 272.48-23 272.48-17.3L272.48-17.3Q272.48-11.65 270.63-7.6 268.78-3.55 265.38-1.4 261.98 0.75 257.38 0.75L257.38 0.75Q252.73 0.75 249.33-1.35 245.93-3.45 244.08-7.5 242.23-11.55 242.23-17.25L242.23-17.25Q242.23-22.85 244.08-26.93 245.93-31 249.35-33.15 252.78-35.3 257.38-35.3L257.38-35.3ZM257.38-30.25Q253.38-30.25 251.28-27.13 249.18-24 249.18-17.25L249.18-17.25Q249.18-4.3 257.38-4.3L257.38-4.3Q261.38-4.3 263.45-7.4 265.53-10.5 265.53-17.3L265.53-17.3Q265.53-24.05 263.45-27.15 261.38-30.25 257.38-30.25L257.38-30.25ZM304.63-26.45L310.78-26.45 305.03 0 297.03 0 293.03-20.75 288.93 0 281.08 0 275.23-26.45 281.63-26.45 285.33-4.7 289.93-26.45 296.48-26.45 300.68-4.7 304.63-26.45ZM329.27-27.2Q332.82-27.2 334.8-25.08 336.77-22.95 336.77-19.15L336.77-19.15 336.77 0 330.37 0 330.37-18.15Q330.37-20.5 329.55-21.45 328.72-22.4 327.12-22.4L327.12-22.4Q325.47-22.4 324.15-21.38 322.82-20.35 321.57-18.4L321.57-18.4 321.57 0 315.17 0 315.17-26.45 320.72-26.45 321.22-23Q324.47-27.2 329.27-27.2L329.27-27.2ZM365.92-13.85Q365.92-13.35 365.77-11.25L365.77-11.25 349.17-11.25Q349.47-7.4 351.17-5.75 352.87-4.1 355.67-4.1L355.67-4.1Q357.42-4.1 358.97-4.67 360.52-5.25 362.27-6.45L362.27-6.45 364.92-2.8Q360.52 0.75 355.12 0.75L355.12 0.75Q349.07 0.75 345.8-2.95 342.52-6.65 342.52-13.05L342.52-13.05Q342.52-17.1 343.92-20.33 345.32-23.55 347.97-25.38 350.62-27.2 354.27-27.2L354.27-27.2Q359.82-27.2 362.87-23.68 365.92-20.15 365.92-13.85L365.92-13.85ZM359.57-15.4L359.57-15.7Q359.57-22.65 354.42-22.65L354.42-22.65Q352.07-22.65 350.75-20.93 349.42-19.2 349.17-15.4L349.17-15.4 359.57-15.4ZM384.72-27.15Q386.17-27.15 387.37-26.8L387.37-26.8 386.27-20.6Q385.07-20.9 383.92-20.9L383.92-20.9Q381.57-20.9 380.22-19.23 378.87-17.55 378.07-14.1L378.07-14.1 378.07 0 371.67 0 371.67-26.45 377.22-26.45 377.82-21.25Q378.77-24.1 380.57-25.63 382.37-27.15 384.72-27.15L384.72-27.15ZM399.71-27.2Q405.07-27.2 409.11-24.05L409.11-24.05 406.61-20.3Q403.21-22.45 399.96-22.45L399.96-22.45Q398.07-22.45 397.02-21.73 395.96-21 395.96-19.8L395.96-19.8Q395.96-18.9 396.42-18.3 396.86-17.7 398.04-17.18 399.21-16.65 401.52-16L401.52-16Q405.82-14.85 407.89-12.95 409.96-11.05 409.96-7.65L409.96-7.65Q409.96-3.7 406.77-1.48 403.57 0.75 398.82 0.75L398.82 0.75Q395.57 0.75 392.89-0.25 390.21-1.25 388.27-3L388.27-3 391.46-6.6Q394.92-4 398.67-4L398.67-4Q400.82-4 402.09-4.85 403.36-5.7 403.36-7.2L403.36-7.2Q403.36-8.35 402.89-9.03 402.42-9.7 401.19-10.23 399.96-10.75 397.36-11.5L397.36-11.5Q393.32-12.6 391.42-14.58 389.52-16.55 389.52-19.5L389.52-19.5Q389.52-21.7 390.79-23.45 392.07-25.2 394.39-26.2 396.71-27.2 399.71-27.2L399.71-27.2ZM429.26-27.2Q432.76-27.2 434.76-25.05 436.76-22.9 436.76-19.15L436.76-19.15 436.76 0 430.36 0 430.36-18.15Q430.36-20.5 429.54-21.45 428.71-22.4 427.11-22.4L427.11-22.4Q425.51-22.4 424.16-21.38 422.81-20.35 421.56-18.45L421.56-18.45 421.56 0 415.16 0 415.16-37 421.56-37.65 421.56-23.3Q424.76-27.2 429.26-27.2L429.26-27.2ZM444.21-26.45L450.61-26.45 450.61 0 444.21 0 444.21-26.45ZM447.36-39.85Q449.16-39.85 450.29-38.73 451.41-37.6 451.41-35.95L451.41-35.95Q451.41-34.3 450.29-33.2 449.16-32.1 447.36-32.1L447.36-32.1Q445.61-32.1 444.49-33.2 443.36-34.3 443.36-35.95L443.36-35.95Q443.36-37.6 444.49-38.73 445.61-39.85 447.36-39.85L447.36-39.85ZM472.01-27.2Q477.01-27.2 479.41-23.55 481.81-19.9 481.81-13.3L481.81-13.3Q481.81-9.2 480.58-6.03 479.36-2.85 476.98-1.05 474.61 0.75 471.36 0.75L471.36 0.75Q467.16 0.75 464.71-2.15L464.71-2.15 464.71 10.2 458.31 10.9 458.31-26.45 463.91-26.45 464.26-23.2Q465.81-25.2 467.81-26.2 469.81-27.2 472.01-27.2L472.01-27.2ZM469.56-4.15Q475.11-4.15 475.11-13.25L475.11-13.25Q475.11-18.1 473.86-20.25 472.61-22.4 470.11-22.4L470.11-22.4Q468.51-22.4 467.11-21.43 465.71-20.45 464.71-18.8L464.71-18.8 464.71-6.9Q466.56-4.15 469.56-4.15L469.56-4.15Z" fill="#0a6e95" data-fill-palette-color="accent"></path></g></svg></g></svg></g><g transform="matrix(1,0,0,1,163.310208,51.518497841860466)"><svg viewBox="0 0 232.209792 14.45831651851361" height="14.45831651851361" width="232.209792"><g transform="matrix(1,0,0,1,0,0)"><svg width="232.209792" viewBox="2.9 -37 755.12 47" height="14.45831651851361" data-palette-color="#374151"><path d="M27.25 0L27.25-5.1 27.1-5.1Q26.45-2.65 23.93-1.03 21.4 0.6 17.4 0.6L17.4 0.6Q14.2 0.6 11.53-0.58 8.85-1.75 6.95-4.03 5.05-6.3 3.98-9.68 2.9-13.05 2.9-17.45L2.9-17.45Q2.9-21.8 3.95-25.18 5-28.55 6.95-30.83 8.9-33.1 11.65-34.3 14.4-35.5 17.75-35.5L17.75-35.5Q22.45-35.5 25.6-33.4 28.75-31.3 30.45-27.85L30.45-27.85 27-25.75Q25.8-28.55 23.43-30.15 21.05-31.75 17.75-31.75L17.75-31.75Q15.45-31.75 13.55-30.93 11.65-30.1 10.28-28.6 8.9-27.1 8.15-25 7.4-22.9 7.4-20.3L7.4-20.3 7.4-14.65Q7.4-12.05 8.15-9.93 8.9-7.8 10.28-6.3 11.65-4.8 13.65-3.98 15.65-3.15 18.15-3.15L18.15-3.15Q19.95-3.15 21.58-3.63 23.2-4.1 24.43-5.05 25.65-6 26.35-7.43 27.05-8.85 27.05-10.8L27.05-10.8 27.05-14.25 19.35-14.25 19.35-17.95 31.15-17.95 31.15 0 27.25 0ZM46.8 0L43.25 0Q41.15 0 40.07-1.18 39-2.35 39-4.15L39-4.15 39-37 43-37 43-3.5 46.8-3.5 46.8 0ZM62.35 0.6L62.35 0.6Q59.75 0.6 57.6-0.35 55.45-1.3 53.92-3.08 52.4-4.85 51.55-7.33 50.7-9.8 50.7-12.9L50.7-12.9Q50.7-15.95 51.55-18.45 52.4-20.95 53.92-22.73 55.45-24.5 57.6-25.45 59.75-26.4 62.35-26.4L62.35-26.4Q64.95-26.4 67.07-25.45 69.2-24.5 70.75-22.73 72.3-20.95 73.15-18.45 74-15.95 74-12.9L74-12.9Q74-9.8 73.15-7.33 72.3-4.85 70.75-3.08 69.2-1.3 67.07-0.35 64.95 0.6 62.35 0.6ZM62.35-2.95L62.35-2.95Q65.59-2.95 67.65-4.95 69.7-6.95 69.7-11.05L69.7-11.05 69.7-14.75Q69.7-18.85 67.65-20.85 65.59-22.85 62.35-22.85L62.35-22.85Q59.1-22.85 57.05-20.85 55-18.85 55-14.75L55-14.75 55-11.05Q55-6.95 57.05-4.95 59.1-2.95 62.35-2.95ZM80.59 0L80.59-37 84.59-37 84.59-21.6 84.79-21.6Q85.79-24.05 87.72-25.23 89.64-26.4 92.34-26.4L92.34-26.4Q94.74-26.4 96.69-25.45 98.64-24.5 100.02-22.75 101.39-21 102.12-18.5 102.84-16 102.84-12.9L102.84-12.9Q102.84-9.8 102.12-7.3 101.39-4.8 100.02-3.05 98.64-1.3 96.69-0.35 94.74 0.6 92.34 0.6L92.34 0.6Q87.09 0.6 84.79-4.2L84.79-4.2 84.59-4.2 84.59 0 80.59 0ZM91.24-3L91.24-3Q94.64-3 96.59-5.13 98.54-7.25 98.54-10.7L98.54-10.7 98.54-15.1Q98.54-18.55 96.59-20.68 94.64-22.8 91.24-22.8L91.24-22.8Q89.89-22.8 88.67-22.43 87.44-22.05 86.54-21.4 85.64-20.75 85.12-19.83 84.59-18.9 84.59-17.85L84.59-17.85 84.59-8.25Q84.59-7 85.12-6.03 85.64-5.05 86.54-4.38 87.44-3.7 88.67-3.35 89.89-3 91.24-3ZM130.59 0L128.34 0Q126.09 0 125.12-1.2 124.14-2.4 123.89-4.2L123.89-4.2 123.64-4.2Q122.79-1.8 120.84-0.6 118.89 0.6 116.19 0.6L116.19 0.6Q112.09 0.6 109.81-1.5 107.54-3.6 107.54-7.2L107.54-7.2Q107.54-10.85 110.22-12.8 112.89-14.75 118.54-14.75L118.54-14.75 123.64-14.75 123.64-17.3Q123.64-20.05 122.14-21.5 120.64-22.95 117.54-22.95L117.54-22.95Q115.19-22.95 113.62-21.9 112.04-20.85 110.99-19.1L110.99-19.1 108.59-21.35Q109.64-23.45 111.94-24.93 114.24-26.4 117.74-26.4L117.74-26.4Q122.44-26.4 125.04-24.1 127.64-21.8 127.64-17.7L127.64-17.7 127.64-3.5 130.59-3.5 130.59 0ZM116.84-2.8L116.84-2.8Q118.34-2.8 119.59-3.15 120.84-3.5 121.74-4.15 122.64-4.8 123.14-5.65 123.64-6.5 123.64-7.5L123.64-7.5 123.64-11.75 118.34-11.75Q114.89-11.75 113.31-10.75 111.74-9.75 111.74-7.85L111.74-7.85 111.74-6.8Q111.74-4.9 113.12-3.85 114.49-2.8 116.84-2.8ZM144.09 0L140.54 0Q138.44 0 137.36-1.18 136.29-2.35 136.29-4.15L136.29-4.15 136.29-37 140.29-37 140.29-3.5 144.09-3.5 144.09 0ZM174.38 0.6L174.38 0.6Q167.73 0.6 164.03-3.93 160.33-8.45 160.33-17.25L160.33-17.25Q160.33-26.05 164.03-30.78 167.73-35.5 174.38-35.5L174.38-35.5Q178.78-35.5 181.76-33.5 184.73-31.5 186.38-27.85L186.38-27.85 182.98-25.8Q181.93-28.5 179.78-30.13 177.63-31.75 174.38-31.75L174.38-31.75Q172.13-31.75 170.36-30.9 168.58-30.05 167.36-28.48 166.13-26.9 165.48-24.73 164.83-22.55 164.83-19.85L164.83-19.85 164.83-14.65Q164.83-9.25 167.33-6.2 169.83-3.15 174.38-3.15L174.38-3.15Q177.73-3.15 179.98-4.88 182.23-6.6 183.28-9.45L183.28-9.45 186.63-7.35Q184.98-3.65 181.88-1.53 178.78 0.6 174.38 0.6ZM202.48 0.6L202.48 0.6Q199.88 0.6 197.73-0.35 195.58-1.3 194.06-3.08 192.53-4.85 191.68-7.33 190.83-9.8 190.83-12.9L190.83-12.9Q190.83-15.95 191.68-18.45 192.53-20.95 194.06-22.73 195.58-24.5 197.73-25.45 199.88-26.4 202.48-26.4L202.48-26.4Q205.08-26.4 207.21-25.45 209.33-24.5 210.88-22.73 212.43-20.95 213.28-18.45 214.13-15.95 214.13-12.9L214.13-12.9Q214.13-9.8 213.28-7.33 212.43-4.85 210.88-3.08 209.33-1.3 207.21-0.35 205.08 0.6 202.48 0.6ZM202.48-2.95L202.48-2.95Q205.73-2.95 207.78-4.95 209.83-6.95 209.83-11.05L209.83-11.05 209.83-14.75Q209.83-18.85 207.78-20.85 205.73-22.85 202.48-22.85L202.48-22.85Q199.23-22.85 197.18-20.85 195.13-18.85 195.13-14.75L195.13-14.75 195.13-11.05Q195.13-6.95 197.18-4.95 199.23-2.95 202.48-2.95ZM224.73 0L220.73 0 220.73-25.8 224.73-25.8 224.73-21.05 224.98-21.05Q225.68-22.9 227.48-24.35 229.28-25.8 232.43-25.8L232.43-25.8 233.98-25.8 233.98-21.8 231.63-21.8Q228.38-21.8 226.55-20.58 224.73-19.35 224.73-17.5L224.73-17.5 224.73 0ZM239.08 10L239.08-25.8 243.08-25.8 243.08-21.6 243.28-21.6Q244.28-24.05 246.2-25.23 248.13-26.4 250.83-26.4L250.83-26.4Q253.23-26.4 255.18-25.45 257.13-24.5 258.5-22.75 259.88-21 260.6-18.5 261.33-16 261.33-12.9L261.33-12.9Q261.33-9.8 260.6-7.3 259.88-4.8 258.5-3.05 257.13-1.3 255.18-0.35 253.23 0.6 250.83 0.6L250.83 0.6Q245.58 0.6 243.28-4.2L243.28-4.2 243.08-4.2 243.08 10 239.08 10ZM249.73-3L249.73-3Q253.13-3 255.08-5.13 257.03-7.25 257.03-10.7L257.03-10.7 257.03-15.1Q257.03-18.55 255.08-20.68 253.13-22.8 249.73-22.8L249.73-22.8Q248.38-22.8 247.15-22.43 245.93-22.05 245.03-21.4 244.13-20.75 243.6-19.83 243.08-18.9 243.08-17.85L243.08-17.85 243.08-8.25Q243.08-7 243.6-6.03 244.13-5.05 245.03-4.38 245.93-3.7 247.15-3.35 248.38-3 249.73-3ZM277.82 0.6L277.82 0.6Q275.22 0.6 273.07-0.35 270.92-1.3 269.4-3.08 267.87-4.85 267.02-7.33 266.17-9.8 266.17-12.9L266.17-12.9Q266.17-15.95 267.02-18.45 267.87-20.95 269.4-22.73 270.92-24.5 273.07-25.45 275.22-26.4 277.82-26.4L277.82-26.4Q280.42-26.4 282.55-25.45 284.67-24.5 286.22-22.73 287.77-20.95 288.62-18.45 289.47-15.95 289.47-12.9L289.47-12.9Q289.47-9.8 288.62-7.33 287.77-4.85 286.22-3.08 284.67-1.3 282.55-0.35 280.42 0.6 277.82 0.6ZM277.82-2.95L277.82-2.95Q281.07-2.95 283.12-4.95 285.17-6.95 285.17-11.05L285.17-11.05 285.17-14.75Q285.17-18.85 283.12-20.85 281.07-22.85 277.82-22.85L277.82-22.85Q274.57-22.85 272.52-20.85 270.47-18.85 270.47-14.75L270.47-14.75 270.47-11.05Q270.47-6.95 272.52-4.95 274.57-2.95 277.82-2.95ZM300.07 0L296.07 0 296.07-25.8 300.07-25.8 300.07-21.05 300.32-21.05Q301.02-22.9 302.82-24.35 304.62-25.8 307.77-25.8L307.77-25.8 309.32-25.8 309.32-21.8 306.97-21.8Q303.72-21.8 301.9-20.58 300.07-19.35 300.07-17.5L300.07-17.5 300.07 0ZM335.22 0L332.97 0Q330.72 0 329.74-1.2 328.77-2.4 328.52-4.2L328.52-4.2 328.27-4.2Q327.42-1.8 325.47-0.6 323.52 0.6 320.82 0.6L320.82 0.6Q316.72 0.6 314.44-1.5 312.17-3.6 312.17-7.2L312.17-7.2Q312.17-10.85 314.84-12.8 317.52-14.75 323.17-14.75L323.17-14.75 328.27-14.75 328.27-17.3Q328.27-20.05 326.77-21.5 325.27-22.95 322.17-22.95L322.17-22.95Q319.82-22.95 318.24-21.9 316.67-20.85 315.62-19.1L315.62-19.1 313.22-21.35Q314.27-23.45 316.57-24.93 318.87-26.4 322.37-26.4L322.37-26.4Q327.07-26.4 329.67-24.1 332.27-21.8 332.27-17.7L332.27-17.7 332.27-3.5 335.22-3.5 335.22 0ZM321.47-2.8L321.47-2.8Q322.97-2.8 324.22-3.15 325.47-3.5 326.37-4.15 327.27-4.8 327.77-5.65 328.27-6.5 328.27-7.5L328.27-7.5 328.27-11.75 322.97-11.75Q319.52-11.75 317.94-10.75 316.37-9.75 316.37-7.85L316.37-7.85 316.37-6.8Q316.37-4.9 317.74-3.85 319.12-2.8 321.47-2.8ZM351.62 0L346.62 0Q344.52 0 343.44-1.18 342.37-2.35 342.37-4.25L342.37-4.25 342.37-22.3 338.12-22.3 338.12-25.8 340.52-25.8Q341.82-25.8 342.29-26.33 342.77-26.85 342.77-28.15L342.77-28.15 342.77-32.95 346.37-32.95 346.37-25.8 352.02-25.8 352.02-22.3 346.37-22.3 346.37-3.5 351.62-3.5 351.62 0ZM367.96 0.6L367.96 0.6Q365.31 0.6 363.19-0.35 361.06-1.3 359.54-3.08 358.01-4.85 357.19-7.33 356.36-9.8 356.36-12.9L356.36-12.9Q356.36-15.95 357.19-18.45 358.01-20.95 359.54-22.73 361.06-24.5 363.19-25.45 365.31-26.4 367.96-26.4L367.96-26.4Q370.56-26.4 372.61-25.45 374.66-24.5 376.11-22.83 377.56-21.15 378.34-18.85 379.11-16.55 379.11-13.8L379.11-13.8 379.11-11.9 360.56-11.9 360.56-10.7Q360.56-9.05 361.09-7.63 361.61-6.2 362.59-5.15 363.56-4.1 364.99-3.5 366.41-2.9 368.21-2.9L368.21-2.9Q370.66-2.9 372.49-4.05 374.31-5.2 375.31-7.35L375.31-7.35 378.16-5.3Q376.91-2.65 374.26-1.03 371.61 0.6 367.96 0.6ZM367.96-23.05L367.96-23.05Q366.31-23.05 364.96-22.48 363.61-21.9 362.64-20.85 361.66-19.8 361.11-18.38 360.56-16.95 360.56-15.25L360.56-15.25 360.56-14.9 374.81-14.9 374.81-15.45Q374.81-18.9 372.94-20.98 371.06-23.05 367.96-23.05ZM402.11 0L397.91 0 397.91-34.9 411.81-34.9Q416.51-34.9 419.03-32.23 421.56-29.55 421.56-24.9L421.56-24.9Q421.56-20.25 419.03-17.57 416.51-14.9 411.81-14.9L411.81-14.9 402.11-14.9 402.11 0ZM402.11-31.2L402.11-18.6 411.81-18.6Q414.31-18.6 415.68-19.9 417.06-21.2 417.06-23.6L417.06-23.6 417.06-26.2Q417.06-28.6 415.68-29.9 414.31-31.2 411.81-31.2L411.81-31.2 402.11-31.2ZM431.31 0L427.31 0 427.31-25.8 431.31-25.8 431.31-21.05 431.56-21.05Q432.26-22.9 434.06-24.35 435.86-25.8 439.01-25.8L439.01-25.8 440.56-25.8 440.56-21.8 438.21-21.8Q434.96-21.8 433.13-20.58 431.31-19.35 431.31-17.5L431.31-17.5 431.31 0ZM455.15 0.6L455.15 0.6Q452.55 0.6 450.4-0.35 448.25-1.3 446.73-3.08 445.2-4.85 444.35-7.33 443.5-9.8 443.5-12.9L443.5-12.9Q443.5-15.95 444.35-18.45 445.2-20.95 446.73-22.73 448.25-24.5 450.4-25.45 452.55-26.4 455.15-26.4L455.15-26.4Q457.75-26.4 459.88-25.45 462-24.5 463.55-22.73 465.1-20.95 465.95-18.45 466.8-15.95 466.8-12.9L466.8-12.9Q466.8-9.8 465.95-7.33 465.1-4.85 463.55-3.08 462-1.3 459.88-0.35 457.75 0.6 455.15 0.6ZM455.15-2.95L455.15-2.95Q458.4-2.95 460.45-4.95 462.5-6.95 462.5-11.05L462.5-11.05 462.5-14.75Q462.5-18.85 460.45-20.85 458.4-22.85 455.15-22.85L455.15-22.85Q451.9-22.85 449.85-20.85 447.8-18.85 447.8-14.75L447.8-14.75 447.8-11.05Q447.8-6.95 449.85-4.95 451.9-2.95 455.15-2.95ZM474.5 0L474.5-22.3 470.3-22.3 470.3-25.8 474.5-25.8 474.5-31Q474.5-33.7 475.9-35.35 477.3-37 480.15-37L480.15-37 484.05-37 484.05-33.5 478.5-33.5 478.5-25.8 484.05-25.8 484.05-22.3 478.5-22.3 478.5 0 474.5 0ZM491.3-31.85L491.3-31.85Q490-31.85 489.42-32.48 488.85-33.1 488.85-34.1L488.85-34.1 488.85-34.75Q488.85-35.75 489.42-36.38 490-37 491.3-37L491.3-37Q492.6-37 493.17-36.38 493.75-35.75 493.75-34.75L493.75-34.75 493.75-34.1Q493.75-33.1 493.17-32.48 492.6-31.85 491.3-31.85ZM489.3 0L489.3-25.8 493.3-25.8 493.3 0 489.3 0ZM509.6 0L506.05 0Q503.95 0 502.87-1.18 501.8-2.35 501.8-4.15L501.8-4.15 501.8-37 505.8-37 505.8-3.5 509.6-3.5 509.6 0ZM525.09 0.6L525.09 0.6Q522.44 0.6 520.32-0.35 518.19-1.3 516.67-3.08 515.14-4.85 514.32-7.33 513.49-9.8 513.49-12.9L513.49-12.9Q513.49-15.95 514.32-18.45 515.14-20.95 516.67-22.73 518.19-24.5 520.32-25.45 522.44-26.4 525.09-26.4L525.09-26.4Q527.69-26.4 529.74-25.45 531.79-24.5 533.24-22.83 534.69-21.15 535.47-18.85 536.24-16.55 536.24-13.8L536.24-13.8 536.24-11.9 517.69-11.9 517.69-10.7Q517.69-9.05 518.22-7.63 518.74-6.2 519.72-5.15 520.69-4.1 522.12-3.5 523.54-2.9 525.34-2.9L525.34-2.9Q527.79-2.9 529.62-4.05 531.44-5.2 532.44-7.35L532.44-7.35 535.29-5.3Q534.04-2.65 531.39-1.03 528.74 0.6 525.09 0.6ZM525.09-23.05L525.09-23.05Q523.44-23.05 522.09-22.48 520.74-21.9 519.77-20.85 518.79-19.8 518.24-18.38 517.69-16.95 517.69-15.25L517.69-15.25 517.69-14.9 531.94-14.9 531.94-15.45Q531.94-18.9 530.07-20.98 528.19-23.05 525.09-23.05ZM564.84 0.6L564.84 0.6Q560.59 0.6 557.59-1.03 554.59-2.65 552.49-5.5L552.49-5.5 555.59-8.1Q557.44-5.65 559.69-4.38 561.94-3.1 564.99-3.1L564.99-3.1Q568.74-3.1 570.71-4.9 572.69-6.7 572.69-9.7L572.69-9.7Q572.69-12.2 571.19-13.55 569.69-14.9 566.24-15.7L566.24-15.7 563.39-16.35Q558.59-17.45 556.06-19.68 553.54-21.9 553.54-25.95L553.54-25.95Q553.54-28.25 554.39-30.05 555.24-31.85 556.76-33.05 558.29-34.25 560.41-34.88 562.54-35.5 565.09-35.5L565.09-35.5Q569.04-35.5 571.86-34.05 574.69-32.6 576.64-29.8L576.64-29.8 573.49-27.5Q572.04-29.5 569.99-30.65 567.94-31.8 564.89-31.8L564.89-31.8Q561.54-31.8 559.61-30.38 557.69-28.95 557.69-26.1L557.69-26.1Q557.69-23.6 559.31-22.33 560.94-21.05 564.24-20.3L564.24-20.3 567.09-19.65Q572.24-18.5 574.54-16.15 576.84-13.8 576.84-9.9L576.84-9.9Q576.84-7.5 576.01-5.55 575.19-3.6 573.64-2.25 572.09-0.9 569.86-0.15 567.64 0.6 564.84 0.6ZM594.38 0L589.38 0Q587.28 0 586.21-1.18 585.13-2.35 585.13-4.25L585.13-4.25 585.13-22.3 580.88-22.3 580.88-25.8 583.28-25.8Q584.58-25.8 585.06-26.33 585.53-26.85 585.53-28.15L585.53-28.15 585.53-32.95 589.13-32.95 589.13-25.8 594.78-25.8 594.78-22.3 589.13-22.3 589.13-3.5 594.38-3.5 594.38 0ZM605.23 0L601.23 0 601.23-25.8 605.23-25.8 605.23-21.05 605.48-21.05Q606.18-22.9 607.98-24.35 609.78-25.8 612.93-25.8L612.93-25.8 614.48-25.8 614.48-21.8 612.13-21.8Q608.88-21.8 607.06-20.58 605.23-19.35 605.23-17.5L605.23-17.5 605.23 0ZM635.48 0L635.48-4.2 635.28-4.2Q634.88-3.3 634.3-2.43 633.73-1.55 632.88-0.88 632.03-0.2 630.83 0.2 629.63 0.6 628.03 0.6L628.03 0.6Q624.03 0.6 621.68-1.98 619.33-4.55 619.33-9.25L619.33-9.25 619.33-25.8 623.33-25.8 623.33-9.95Q623.33-3 629.23-3L629.23-3Q630.43-3 631.55-3.3 632.68-3.6 633.55-4.2 634.43-4.8 634.95-5.73 635.48-6.65 635.48-7.95L635.48-7.95 635.48-25.8 639.48-25.8 639.48 0 635.48 0ZM657.58 0.6L657.58 0.6Q654.88 0.6 652.73-0.35 650.58-1.3 649.1-3.05 647.63-4.8 646.85-7.3 646.08-9.8 646.08-12.9L646.08-12.9Q646.08-16 646.85-18.5 647.63-21 649.1-22.75 650.58-24.5 652.73-25.45 654.88-26.4 657.58-26.4L657.58-26.4Q661.43-26.4 663.75-24.73 666.08-23.05 667.23-20.35L667.23-20.35 663.88-18.65Q663.18-20.65 661.58-21.75 659.98-22.85 657.58-22.85L657.58-22.85Q655.78-22.85 654.43-22.28 653.08-21.7 652.18-20.68 651.28-19.65 650.83-18.23 650.38-16.8 650.38-15.1L650.38-15.1 650.38-10.7Q650.38-7.3 652.2-5.13 654.03-2.95 657.58-2.95L657.58-2.95Q662.43-2.95 664.58-7.45L664.58-7.45 667.48-5.5Q666.23-2.7 663.75-1.05 661.28 0.6 657.58 0.6ZM683.82 0L678.82 0Q676.72 0 675.65-1.18 674.57-2.35 674.57-4.25L674.57-4.25 674.57-22.3 670.32-22.3 670.32-25.8 672.72-25.8Q674.02-25.8 674.5-26.33 674.97-26.85 674.97-28.15L674.97-28.15 674.97-32.95 678.57-32.95 678.57-25.8 684.22-25.8 684.22-22.3 678.57-22.3 678.57-3.5 683.82-3.5 683.82 0ZM706.57 0L706.57-4.2 706.37-4.2Q705.97-3.3 705.4-2.43 704.82-1.55 703.97-0.88 703.12-0.2 701.92 0.2 700.72 0.6 699.12 0.6L699.12 0.6Q695.12 0.6 692.77-1.98 690.42-4.55 690.42-9.25L690.42-9.25 690.42-25.8 694.42-25.8 694.42-9.95Q694.42-3 700.32-3L700.32-3Q701.52-3 702.65-3.3 703.77-3.6 704.65-4.2 705.52-4.8 706.05-5.73 706.57-6.65 706.57-7.95L706.57-7.95 706.57-25.8 710.57-25.8 710.57 0 706.57 0ZM723.07 0L719.07 0 719.07-25.8 723.07-25.8 723.07-21.05 723.32-21.05Q724.02-22.9 725.82-24.35 727.62-25.8 730.77-25.8L730.77-25.8 732.32-25.8 732.32-21.8 729.97-21.8Q726.72-21.8 724.89-20.58 723.07-19.35 723.07-17.5L723.07-17.5 723.07 0ZM746.87 0.6L746.87 0.6Q744.22 0.6 742.09-0.35 739.97-1.3 738.44-3.08 736.92-4.85 736.09-7.33 735.27-9.8 735.27-12.9L735.27-12.9Q735.27-15.95 736.09-18.45 736.92-20.95 738.44-22.73 739.97-24.5 742.09-25.45 744.22-26.4 746.87-26.4L746.87-26.4Q749.47-26.4 751.52-25.45 753.57-24.5 755.02-22.83 756.47-21.15 757.24-18.85 758.02-16.55 758.02-13.8L758.02-13.8 758.02-11.9 739.47-11.9 739.47-10.7Q739.47-9.05 739.99-7.63 740.52-6.2 741.49-5.15 742.47-4.1 743.89-3.5 745.32-2.9 747.12-2.9L747.12-2.9Q749.57-2.9 751.39-4.05 753.22-5.2 754.22-7.35L754.22-7.35 757.07-5.3Q755.82-2.65 753.17-1.03 750.52 0.6 746.87 0.6ZM746.87-23.05L746.87-23.05Q745.22-23.05 743.87-22.48 742.52-21.9 741.54-20.85 740.57-19.8 740.02-18.38 739.47-16.95 739.47-15.25L739.47-15.25 739.47-14.9 753.72-14.9 753.72-15.45Q753.72-18.9 751.84-20.98 749.97-23.05 746.87-23.05Z" opacity="1" transform="matrix(1,0,0,1,0,0)" fill="#374151" class="slogan-text-1" data-fill-palette-color="secondary" id="text-1"></path></svg></g></svg></g></svg></g></svg></g><g transform="matrix(1,0,0,1,418.9575176732651,0)"><svg viewBox="0 0 84.177453670109 91.17995744603698" height="91.17995744603698" width="84.177453670109"><g><svg xmlns="http://www.w3.org/2000/svg" xmlns:xlink="http://www.w3.org/1999/xlink" version="1.1" x="0" y="0" viewBox="4.845071399866432 3.9160000000000004 22.31192860013357 24.168" enable-background="new 0 0 32 32" xml:space="preserve" height="91.17995744603698" width="84.177453670109" class="icon-icon-0" data-fill-palette-color="accent" id="icon-0"><path d="M23.436 18.742v0.926c-0.865-0.635-2.656-1.809-3.873-1.654-0.797 0.1-1.568 0.686-2.314 1.252-0.729 0.553-1.48 1.124-2.096 1.124h-4.225c-0.141 0-0.271 0.015-0.396 0.036-0.68-0.398-2.975-1.736-3.707-2.051-0.586-0.252-1.246-0.112-1.643 0.346-0.361 0.422-0.545 1.205 0.039 2.148 0.844 1.361 3.41 5.505 5.877 6.268 0.404 0.125 3.156 0.947 5.436 0.947 0.805 0 1.553-0.103 2.115-0.375 2.281-1.106 4.256-1.283 4.787-1.311v0.795h3.721v-8.451H23.436zM23.436 20.986v4.329c-0.564 0.022-2.723 0.192-5.26 1.421-1.201 0.584-4.311 0.123-6.76-0.632-1.381-0.427-3.156-2.38-5.283-5.815C5.861 19.854 5.893 19.551 6 19.426c0.09-0.104 0.244-0.125 0.398-0.059 0.504 0.216 1.967 1.048 3.059 1.682-0.246 0.31-0.379 0.69-0.379 1.072 0 0.494 0.209 0.973 0.574 1.314 0.277 0.261 0.783 0.571 1.605 0.571h4.965c0.297 0 0.539-0.241 0.539-0.54s-0.242-0.54-0.539-0.54h-4.965c-0.373 0-0.672-0.097-0.867-0.279-0.15-0.142-0.232-0.327-0.232-0.526 0-0.301 0.201-0.651 0.77-0.651h4.225c0.979 0 1.879-0.683 2.748-1.343 0.633-0.481 1.287-0.979 1.797-1.043 0.746-0.096 2.658 1.093 3.738 1.893V20.986z" fill="#0a6e95" data-fill-palette-color="accent"></path><path d="M8.197 11.032l0.814-1.274 0.814 1.274h1.807l0.814-1.274 0.814 1.274h2.064c0.809 1.606 2.467 2.711 4.387 2.711 2.715 0 4.914-2.2 4.914-4.913 0-2.714-2.199-4.914-4.914-4.914-1.92 0-3.578 1.105-4.387 2.711H8.072L5.42 8.83l2.652 2.202H8.197zM20.313 6.945c1.041 0 1.885 0.844 1.885 1.885 0 1.04-0.844 1.883-1.885 1.883-1.039 0-1.883-0.843-1.883-1.883C18.43 7.789 19.273 6.945 20.313 6.945z" fill="#0a6e95" data-fill-palette-color="accent"></path></svg></g></svg></g></svg></g><defs></defs></svg><rect width="395.5199999999999" height="71.67757922445092" fill="none" stroke="none" visibility="hidden"></rect></g></svg></g></svg>