<svg xmlns="http://www.w3.org/2000/svg" version="1.1" xmlns:xlink="http://www.w3.org/1999/xlink" xmlns:svgjs="http://svgjs.dev/svgjs" width="1500" height="1500" viewBox="0 0 1500 1500"><rect width="1500" height="1500" fill="#000000"></rect><g transform="matrix(0.6666666666666666,0,0,0.6666666666666666,249.39393939393938,622.7717569070081)"><svg viewBox="0 0 396 101" data-background-color="#010536" preserveAspectRatio="xMidYMid meet" height="382" width="1500" xmlns="http://www.w3.org/2000/svg" xmlns:xlink="http://www.w3.org/1999/xlink"><g id="tight-bounds" transform="matrix(1,0,0,1,0.2400000000000091,-0.041678459193008166)"><svg viewBox="0 0 395.52 101.08331013373046" height="101.08331013373046" width="395.52"><g><svg viewBox="0 0 559.735338881575 143.05193379089545" height="101.08331013373046" width="395.52"><g transform="matrix(1,0,0,1,164.21533888157498,41.631908655305324)"><svg viewBox="0 0 395.52 59.78811648028479" height="59.78811648028479" width="395.52"><g id="textblocktransform"><svg viewBox="0 0 395.52 59.78811648028479" height="59.78811648028479" width="395.52" id="textblock"><g><svg viewBox="0 0 395.52 44.8232880315651" height="44.8232880315651" width="395.52"><g transform="matrix(1,0,0,1,0,0)"><svg width="395.52" viewBox="2 -37.99 447.69 50.49" height="44.8232880315651" data-palette-color="#2f96a8"><g class="wordmark-text-0" data-fill-palette-color="primary" id="text-0"><path d="M18.75-34.4L18.75-34.4Q18.09-34.4 17.21-34.13 16.33-33.86 15.42-33.12 14.5-32.37 13.62-31.03 12.74-29.69 12.05-27.55 11.35-25.42 10.93-22.36 10.5-19.31 10.5-15.16L10.5-15.16Q10.5-11.21 10.93-8.3 11.35-5.4 12.07-3.36 12.79-1.32 13.72-0.02 14.65 1.27 15.67 1.99 16.7 2.71 17.72 2.98 18.75 3.25 19.65 3.25L19.65 3.25Q20.61 3.25 21.58 3 22.56 2.76 23.5 2.29 24.44 1.83 25.31 1.17 26.17 0.51 26.9-0.34L26.9-0.34 28 0.76Q27.27 1.66 26.25 2.6 25.22 3.54 23.86 4.31 22.51 5.08 20.83 5.57 19.14 6.05 17.09 6.05L17.09 6.05Q13.89 6.05 11.15 4.83 8.4 3.61 6.36 1.04 4.32-1.54 3.16-5.57 2-9.59 2-15.21L2-15.21Q2-20.48 3.22-24.46 4.44-28.44 6.54-31.12 8.64-33.79 11.47-35.14 14.31-36.5 17.5-36.5L17.5-36.5Q19.63-36.5 21.37-36.1 23.12-35.69 24.39-34.92 25.66-34.16 26.35-33.02 27.05-31.88 27.05-30.44L27.05-30.44Q27.05-29.79 26.83-29.06 26.61-28.34 26.16-27.75 25.71-27.15 25.05-26.77 24.39-26.39 23.51-26.39L23.51-26.39Q22.73-26.39 22.3-26.73 21.88-27.08 21.67-27.64 21.46-28.2 21.4-28.92 21.34-29.64 21.31-30.4 21.29-31.15 21.2-31.87 21.12-32.59 20.86-33.15 20.61-33.72 20.12-34.06 19.63-34.4 18.75-34.4ZM28.73-12.5L28.73-12.5Q28.73-15.7 29.66-18.1 30.59-20.51 32.14-22.12 33.69-23.73 35.74-24.54 37.79-25.34 40.04-25.34L40.04-25.34Q42.28-25.34 44.33-24.6 46.38-23.85 47.93-22.31 49.48-20.78 50.41-18.42 51.34-16.06 51.34-12.84L51.34-12.84Q51.34-9.64 50.41-7.18 49.48-4.71 47.93-3.03 46.38-1.34 44.33-0.48 42.28 0.39 40.04 0.39L40.04 0.39Q37.79 0.39 35.74-0.43 33.69-1.25 32.14-2.86 30.59-4.47 29.66-6.88 28.73-9.3 28.73-12.5ZM43.75-12.74L43.75-12.74Q43.75-14.7 43.61-16.52 43.48-18.33 43.09-19.75 42.7-21.17 41.97-22.01 41.23-22.85 40.04-22.85L40.04-22.85Q38.84-22.85 38.11-21.96 37.38-21.07 36.98-19.62 36.59-18.16 36.47-16.31 36.35-14.45 36.35-12.5L36.35-12.5Q36.35-10.55 36.47-8.68 36.59-6.81 36.98-5.35 37.38-3.88 38.11-2.99 38.84-2.1 40.04-2.1L40.04-2.1Q41.23-2.1 41.97-3.03 42.7-3.96 43.09-5.47 43.48-6.98 43.61-8.89 43.75-10.79 43.75-12.74ZM63.69-20.19L63.69-20.19Q64.62-21.61 65.67-22.75L65.67-22.75Q66.11-23.24 66.62-23.71 67.13-24.17 67.68-24.54 68.23-24.9 68.82-25.12 69.4-25.34 69.99-25.34L69.99-25.34Q71.24-25.34 71.94-24.6 72.65-23.85 72.65-22.51L72.65-22.51Q72.65-21.68 72.52-20.91 72.38-20.14 71.99-19.04L71.99-19.04 71.31-19.04Q71.16-19.8 70.62-20.3 70.09-20.8 69.06-20.8L69.06-20.8Q68.31-20.8 67.57-20.52 66.84-20.24 66.14-19.82 65.45-19.41 64.83-18.92 64.2-18.43 63.69-17.99L63.69-17.99 63.69-2.15Q63.69-1.83 63.59-1.39 63.5-0.95 63.12-0.56 62.74-0.17 61.99 0.11 61.25 0.39 59.96 0.39L59.96 0.39Q58.66 0.39 57.92 0.09 57.17-0.22 56.78-0.63 56.39-1.05 56.29-1.49 56.2-1.93 56.2-2.2L56.2-2.2 56.2-21.04Q56.2-21.75 55.87-22.28 55.54-22.8 54.76-22.8L54.76-22.8Q54.34-22.8 54.05-22.66 53.75-22.51 53.41-22.24L53.41-22.24 52.9-22.85Q53.46-23.32 54.16-23.77 54.85-24.22 55.66-24.56 56.46-24.9 57.39-25.12 58.32-25.34 59.35-25.34L59.35-25.34Q60.4-25.34 61.14-25.06 61.88-24.78 62.36-24.33 62.84-23.88 63.11-23.32 63.37-22.75 63.51-22.18 63.64-21.61 63.67-21.08 63.69-20.56 63.69-20.19ZM76.04 9.91L76.04-21.04Q76.04-21.75 75.71-22.28 75.38-22.8 74.6-22.8L74.6-22.8Q74.19-22.8 73.89-22.66 73.6-22.51 73.26-22.24L73.26-22.24 72.75-22.85Q73.31-23.32 74-23.77 74.7-24.22 75.51-24.56 76.31-24.9 77.24-25.12 78.17-25.34 79.19-25.34L79.19-25.34Q80.29-25.34 81.07-25 81.85-24.66 82.38-24.18 82.9-23.71 83.17-23.18 83.44-22.66 83.49-22.29L83.49-22.29Q83.98-22.97 84.65-23.54 85.32-24.1 86.11-24.5 86.91-24.9 87.8-25.12 88.69-25.34 89.64-25.34L89.64-25.34Q91.59-25.34 93.18-24.54 94.77-23.73 95.9-22.14 97.04-20.56 97.65-18.21 98.26-15.87 98.26-12.79L98.26-12.79Q98.26-9.23 97.51-6.73 96.77-4.22 95.56-2.64 94.35-1.05 92.8-0.33 91.25 0.39 89.64 0.39L89.64 0.39Q88.3 0.39 87.28 0.12 86.27-0.15 85.54-0.54 84.81-0.93 84.32-1.33 83.83-1.73 83.54-2L83.54-2 83.54 9.91Q83.54 10.23 83.44 10.67 83.34 11.11 82.96 11.51 82.59 11.91 81.84 12.21 81.1 12.5 79.8 12.5L79.8 12.5Q78.51 12.5 77.76 12.19 77.02 11.89 76.63 11.46 76.24 11.04 76.14 10.61 76.04 10.18 76.04 9.91L76.04 9.91ZM83.54-19.09L83.54-5.49Q83.54-5.3 83.71-4.81 83.88-4.32 84.25-3.81 84.61-3.3 85.19-2.89 85.76-2.49 86.59-2.49L86.59-2.49Q87.66-2.49 88.42-3.31 89.18-4.13 89.67-5.53 90.15-6.93 90.37-8.8 90.59-10.67 90.59-12.79L90.59-12.79Q90.59-15.41 90.31-17.21 90.03-19.02 89.49-20.13 88.96-21.24 88.21-21.74 87.47-22.24 86.54-22.24L86.54-22.24Q86-22.24 85.47-21.94 84.93-21.63 84.5-21.18 84.07-20.73 83.81-20.17 83.54-19.6 83.54-19.09L83.54-19.09ZM101.33-12.5L101.33-12.5Q101.33-15.7 102.26-18.1 103.19-20.51 104.74-22.12 106.29-23.73 108.34-24.54 110.39-25.34 112.64-25.34L112.64-25.34Q114.88-25.34 116.93-24.6 118.98-23.85 120.53-22.31 122.08-20.78 123.01-18.42 123.94-16.06 123.94-12.84L123.94-12.84Q123.94-9.64 123.01-7.18 122.08-4.71 120.53-3.03 118.98-1.34 116.93-0.48 114.88 0.39 112.64 0.39L112.64 0.39Q110.39 0.39 108.34-0.43 106.29-1.25 104.74-2.86 103.19-4.47 102.26-6.88 101.33-9.3 101.33-12.5ZM116.35-12.74L116.35-12.74Q116.35-14.7 116.21-16.52 116.08-18.33 115.69-19.75 115.3-21.17 114.57-22.01 113.83-22.85 112.64-22.85L112.64-22.85Q111.44-22.85 110.71-21.96 109.98-21.07 109.58-19.62 109.19-18.16 109.07-16.31 108.95-14.45 108.95-12.5L108.95-12.5Q108.95-10.55 109.07-8.68 109.19-6.81 109.58-5.35 109.98-3.88 110.71-2.99 111.44-2.1 112.64-2.1L112.64-2.1Q113.83-2.1 114.57-3.03 115.3-3.96 115.69-5.47 116.08-6.98 116.21-8.89 116.35-10.79 116.35-12.74ZM136.29-20.19L136.29-20.19Q137.22-21.61 138.27-22.75L138.27-22.75Q138.71-23.24 139.22-23.71 139.73-24.17 140.28-24.54 140.83-24.9 141.42-25.12 142-25.34 142.59-25.34L142.59-25.34Q143.84-25.34 144.54-24.6 145.25-23.85 145.25-22.51L145.25-22.51Q145.25-21.68 145.12-20.91 144.98-20.14 144.59-19.04L144.59-19.04 143.91-19.04Q143.76-19.8 143.22-20.3 142.69-20.8 141.66-20.8L141.66-20.8Q140.91-20.8 140.17-20.52 139.44-20.24 138.74-19.82 138.05-19.41 137.43-18.92 136.8-18.43 136.29-17.99L136.29-17.99 136.29-2.15Q136.29-1.83 136.19-1.39 136.1-0.95 135.72-0.56 135.34-0.17 134.59 0.11 133.85 0.39 132.56 0.39L132.56 0.39Q131.26 0.39 130.52 0.09 129.77-0.22 129.38-0.63 128.99-1.05 128.89-1.49 128.8-1.93 128.8-2.2L128.8-2.2 128.8-21.04Q128.8-21.75 128.47-22.28 128.14-22.8 127.36-22.8L127.36-22.8Q126.94-22.8 126.65-22.66 126.35-22.51 126.01-22.24L126.01-22.24 125.5-22.85Q126.06-23.32 126.76-23.77 127.45-24.22 128.26-24.56 129.06-24.9 129.99-25.12 130.92-25.34 131.95-25.34L131.95-25.34Q133-25.34 133.74-25.06 134.48-24.78 134.96-24.33 135.44-23.88 135.71-23.32 135.97-22.75 136.11-22.18 136.24-21.61 136.27-21.08 136.29-20.56 136.29-20.19ZM159.34-6.69L159.34-12.65Q159.34-13.26 158.94-13.57 158.55-13.89 157.94-13.89L157.94-13.89Q157.09-13.89 156.32-13.5 155.55-13.11 154.97-12.35 154.38-11.6 154.04-10.49 153.7-9.38 153.7-7.91L153.7-7.91Q153.7-6.49 153.9-5.57 154.11-4.64 154.46-4.09 154.82-3.54 155.28-3.32 155.75-3.1 156.26-3.1L156.26-3.1Q156.89-3.1 157.46-3.43 158.02-3.76 158.43-4.27 158.85-4.79 159.09-5.42 159.34-6.05 159.34-6.69L159.34-6.69ZM155.45-23.34L155.45-23.34Q154.62-23.34 153.92-23.14 153.21-22.95 152.69-22.66 152.18-22.36 151.89-22.01 151.6-21.66 151.6-21.34L151.6-21.34Q151.6-20.97 151.97-20.81 152.35-20.65 152.82-20.45 153.28-20.24 153.66-19.86 154.04-19.48 154.04-18.7L154.04-18.7Q154.04-18.19 153.83-17.76 153.62-17.33 153.27-17 152.91-16.67 152.44-16.49 151.96-16.31 151.45-16.31L151.45-16.31Q150.08-16.31 149.24-17.24 148.4-18.16 148.4-19.7L148.4-19.7Q148.4-21.19 149.18-22.25 149.96-23.32 151.22-24 152.48-24.68 154.06-25.01 155.65-25.34 157.24-25.34L157.24-25.34Q159.14-25.34 160.87-24.93 162.61-24.51 163.94-23.61 165.27-22.71 166.06-21.31 166.86-19.92 166.86-17.94L166.86-17.94 166.86-4.15Q166.86-3.93 166.88-3.66 166.9-3.39 167-3.17 167.1-2.95 167.29-2.81 167.49-2.66 167.86-2.66L167.86-2.66Q168.3-2.66 168.67-2.99 169.05-3.32 169.35-3.66L169.35-3.66 169.96-3.15Q169.59-2.64 169.08-2.03 168.56-1.42 167.83-0.88 167.1-0.34 166.12 0.02 165.15 0.39 163.9 0.39L163.9 0.39Q162.36 0.39 161.17-0.52 159.97-1.44 159.6-3.34L159.6-3.34Q158.82-2.29 157.98-1.59 157.14-0.88 156.26-0.44 155.38 0 154.49 0.2 153.6 0.39 152.69 0.39L152.69 0.39Q151.52 0.39 150.42 0.02 149.33-0.34 148.46-1.14 147.59-1.93 147.07-3.2 146.54-4.47 146.54-6.3L146.54-6.3Q146.54-8.52 147.42-9.94 148.3-11.35 149.73-12.32 151.16-13.28 152.98-13.96 154.79-14.65 156.7-15.41L156.7-15.41Q158.11-15.97 158.76-17.08 159.41-18.19 159.41-19.36L159.41-19.36Q159.41-21.17 158.35-22.25 157.28-23.34 155.45-23.34ZM184.94-23.24L181.16-23.24 181.16-5.2Q181.16-3.91 181.65-3.41 182.14-2.91 182.99-2.91L182.99-2.91Q183.65-2.91 184.16-3.27 184.67-3.64 185.04-4.1L185.04-4.1Q185.48-4.61 185.8-5.3L185.8-5.3 186.55-4.96Q186.19-4.17 185.69-3.25 185.19-2.32 184.36-1.53 183.53-0.73 182.27-0.2 181.01 0.34 179.11 0.34L179.11 0.34Q178.03 0.34 177.05 0.02 176.06-0.29 175.29-0.98 174.52-1.66 174.05-2.69 173.59-3.71 173.59-5.15L173.59-5.15 173.59-23.24 170.86-23.24 170.86-25Q171.54-25 172.76-25.35 173.98-25.71 175.26-26.54 176.55-27.37 177.64-28.76 178.74-30.15 179.21-32.2L179.21-32.2 181.16-32.2 181.16-25 185.14-25Q187.09-25 187.09-25.66L187.09-25.66Q187.09-25.9 186.85-25.99 186.6-26.07 186.3-26.21 185.99-26.34 185.75-26.59 185.5-26.83 185.5-27.39L185.5-27.39Q185.5-28.08 185.93-28.47 186.36-28.86 187.04-28.86L187.04-28.86Q187.48-28.86 187.81-28.67 188.14-28.49 188.36-28.19 188.58-27.88 188.69-27.49 188.8-27.1 188.8-26.71L188.8-26.71Q188.8-25.12 187.89-24.18 186.97-23.24 184.94-23.24L184.94-23.24ZM206.03-16.89L196.39-11.21Q196.39-10.42 196.62-9.51 196.86-8.59 197.29-7.67 197.73-6.74 198.38-5.9 199.03-5.05 199.87-4.39 200.71-3.74 201.74-3.34 202.76-2.95 203.98-2.95L203.98-2.95Q204.84-2.95 205.57-3.15 206.3-3.34 206.94-3.69 207.57-4.03 208.16-4.48 208.74-4.93 209.33-5.44L209.33-5.44 209.94-4.86Q209.38-4.1 208.5-3.2 207.62-2.29 206.38-1.5 205.13-0.71 203.47-0.18 201.81 0.34 199.69 0.34L199.69 0.34Q197.56 0.34 195.55-0.43 193.53-1.2 191.97-2.73 190.41-4.27 189.47-6.57 188.53-8.86 188.53-11.94L188.53-11.94Q188.53-14.16 189.09-16.02 189.65-17.87 190.62-19.36 191.58-20.85 192.86-21.97 194.15-23.1 195.56-23.84 196.98-24.58 198.45-24.96 199.93-25.34 201.3-25.34L201.3-25.34Q203.11-25.34 204.45-24.95 205.79-24.56 206.68-23.9 207.57-23.24 208.01-22.38 208.45-21.51 208.45-20.56L208.45-20.56Q208.45-19.41 207.79-18.49 207.13-17.58 206.03-16.89L206.03-16.89ZM196.15-13.21L201.3-16.16Q201.62-16.36 201.82-16.54 202.03-16.72 202.15-16.98 202.27-17.24 202.34-17.61 202.4-17.99 202.4-18.55L202.4-18.55Q202.4-19.17 202.26-19.91 202.13-20.65 201.81-21.31 201.49-21.97 201.01-22.41 200.52-22.85 199.83-22.85L199.83-22.85Q198.95-22.85 198.33-22.33 197.71-21.8 197.31-20.97 196.9-20.14 196.67-19.08 196.44-18.02 196.32-16.94 196.2-15.87 196.17-14.88 196.15-13.89 196.15-13.21L196.15-13.21Z" fill="#ffffff" data-fill-palette-color="primary"></path><path d="M236.94-28.76L236.94-28.76Q236.94-27.91 237.21-27.36 237.48-26.81 237.88-26.43 238.28-26.05 238.75-25.81 239.21-25.56 239.61-25.29 240.02-25.02 240.28-24.68 240.55-24.34 240.55-23.8L240.55-23.8Q240.55-22.9 239.92-22.42 239.28-21.95 238.45-21.95L238.45-21.95Q237.67-21.95 237-22.44 236.33-22.92 235.83-23.77 235.33-24.61 235.04-25.74 234.74-26.88 234.74-28.15L234.74-28.15Q234.74-29.71 235.23-31.14 235.72-32.57 236.67-33.65 237.62-34.74 239.03-35.38 240.43-36.01 242.24-36.01L242.24-36.01Q243.46-36.01 244.9-35.61 246.34-35.21 247.77-34.33 249.2-33.45 250.53-32.06 251.86-30.66 252.89-28.66 253.93-26.66 254.54-24.02 255.15-21.39 255.15-18.04L255.15-18.04Q255.15-13.72 253.87-10.3 252.59-6.88 250.4-4.5 248.22-2.12 245.34-0.87 242.46 0.39 239.23 0.39L239.23 0.39Q236.04 0.39 233.13-0.71 230.23-1.81 228.02-4.06 225.81-6.32 224.5-9.8 223.19-13.28 223.19-18.04L223.19-18.04Q223.19-21.73 224.18-24.76 225.17-27.78 226.84-30.13 228.52-32.47 230.74-34.07 232.96-35.67 235.45-36.5L235.45-36.5 236.28-35.45Q235.57-34.74 234.96-33.98 234.35-33.23 233.84-32.26 233.33-31.3 232.92-30.04 232.52-28.78 232.25-27.09 231.98-25.39 231.84-23.17 231.69-20.95 231.69-18.04L231.69-18.04Q231.69-14.28 232.09-11.62 232.5-8.96 233.14-7.17 233.79-5.37 234.61-4.31 235.43-3.25 236.26-2.71 237.09-2.17 237.87-2.01 238.65-1.86 239.23-1.86L239.23-1.86Q239.82-1.86 240.59-2.01 241.36-2.17 242.18-2.71 242.99-3.25 243.8-4.31 244.61-5.37 245.23-7.17 245.85-8.96 246.24-11.62 246.63-14.28 246.63-18.04L246.63-18.04Q246.63-21.34 246.34-23.78 246.05-26.22 245.57-27.95 245.09-29.69 244.47-30.8 243.85-31.91 243.18-32.56 242.51-33.2 241.83-33.45 241.16-33.69 240.6-33.69L240.6-33.69Q239.72-33.69 239.04-33.28 238.36-32.86 237.89-32.17 237.43-31.47 237.18-30.58 236.94-29.69 236.94-28.76ZM289.94-17.6L289.94-17.6Q289.94-19.21 289.72-20.26 289.5-21.31 289.24-22.01 288.99-22.71 288.77-23.16 288.55-23.61 288.55-24L288.55-24Q288.55-24.37 288.84-24.61 289.13-24.85 289.54-25.02 289.94-25.2 290.37-25.27 290.79-25.34 291.06-25.34L291.06-25.34Q291.77-25.34 292.09-25.15 292.41-24.95 292.6-24.39L292.6-24.39Q292.82-23.68 292.91-22.52 292.99-21.36 292.99-20.04L292.99-20.04Q292.99-18.16 292.77-15.92 292.55-13.67 292.08-11.4 291.6-9.13 290.86-7.01 290.11-4.88 289.06-3.23 288.01-1.59 286.64-0.6 285.28 0.39 283.54 0.39L283.54 0.39Q282.18 0.39 281.09-0.16 280-0.71 279.15-1.66 278.29-2.61 277.65-3.89 277-5.18 276.51-6.64L276.51-6.64Q275.95-5.15 275.22-3.87 274.49-2.59 273.59-1.64 272.7-0.68 271.63-0.15 270.56 0.39 269.31 0.39L269.31 0.39Q267.77 0.39 266.59-0.28 265.4-0.95 264.5-2.11 263.6-3.27 262.94-4.81 262.28-6.35 261.8-8.06 261.33-9.77 261.01-11.57 260.69-13.38 260.47-15.06 260.25-16.75 260.11-18.21 259.96-19.68 259.81-20.75L259.81-20.75Q259.64-21.73 259.31-22.27 258.98-22.8 258.2-22.8L258.2-22.8Q257.79-22.8 257.49-22.66 257.2-22.51 256.86-22.24L256.86-22.24 256.35-22.85Q256.91-23.32 257.6-23.77 258.3-24.22 259.1-24.56 259.91-24.9 260.84-25.12 261.77-25.34 262.79-25.34L262.79-25.34Q264.26-25.34 265.16-24.84 266.06-24.34 266.59-23.6 267.11-22.85 267.33-22 267.55-21.14 267.65-20.46L267.65-20.46Q268.09-16.77 268.52-13.96 268.94-11.16 269.43-9.27 269.92-7.37 270.49-6.41 271.07-5.44 271.85-5.44L271.85-5.44Q272.36-5.44 272.85-5.88 273.34-6.32 273.78-7.1 274.22-7.89 274.61-9 275-10.11 275.29-11.45L275.29-11.45Q275.05-12.79 274.88-14.11 274.71-15.43 274.57-16.64 274.44-17.85 274.31-18.9 274.19-19.95 274.05-20.75L274.05-20.75Q273.68-23.05 274.47-24.19 275.27-25.34 277.66-25.34L277.66-25.34Q278.71-25.34 279.43-25.16 280.15-24.98 280.63-24.48 281.1-23.97 281.39-23.11 281.69-22.24 281.86-20.9L281.86-20.9Q282.32-17.24 282.76-14.36 283.2-11.47 283.69-9.5 284.18-7.52 284.75-6.48 285.33-5.44 286.11-5.44L286.11-5.44Q286.94-5.44 287.64-6.47 288.35-7.5 288.87-9.18 289.38-10.86 289.66-13.06 289.94-15.26 289.94-17.6ZM312.11-12.16L312.11-12.16Q312.11-15.23 311.82-17.08 311.54-18.92 311.08-19.89 310.62-20.85 310.05-21.15 309.49-21.46 308.91-21.46L308.91-21.46Q308.2-21.46 307.65-21.08 307.1-20.7 306.7-20.21 306.29-19.73 306.01-19.24 305.73-18.75 305.54-18.51L305.54-18.51 305.54-2.2Q305.54-1.88 305.44-1.43 305.34-0.98 304.96-0.57 304.59-0.17 303.84 0.11 303.1 0.39 301.8 0.39L301.8 0.39Q300.51 0.39 299.76 0.09 299.02-0.22 298.63-0.63 298.24-1.05 298.14-1.49 298.04-1.93 298.04-2.2L298.04-2.2 298.04-21.04Q298.04-21.75 297.71-22.28 297.38-22.8 296.6-22.8L296.6-22.8Q296.19-22.8 295.89-22.66 295.6-22.51 295.26-22.24L295.26-22.24 294.75-22.85Q295.31-23.32 296-23.77 296.7-24.22 297.51-24.56 298.31-24.9 299.24-25.12 300.17-25.34 301.19-25.34L301.19-25.34Q302.78-25.34 303.66-24.82 304.54-24.29 304.95-23.56 305.37-22.83 305.45-22.03 305.54-21.24 305.54-20.7L305.54-20.7Q306.44-22 307.59-23.02L307.59-23.02Q308.05-23.46 308.63-23.88 309.2-24.29 309.85-24.62 310.49-24.95 311.21-25.15 311.93-25.34 312.69-25.34L312.69-25.34Q314.35-25.34 315.63-24.71 316.91-24.07 317.79-22.58 318.67-21.09 319.14-18.64 319.6-16.19 319.6-12.55L319.6-12.55Q319.6-9.01 318.97-6.4 318.33-3.78 317.31-1.95 316.28-0.12 314.99 1.04 313.69 2.2 312.37 2.86 311.06 3.52 309.85 3.77 308.64 4.03 307.76 4.05L307.76 4.05 307.49 3.05Q308.22 2.88 308.85 2.51 309.47 2.15 309.98 1.44 310.49 0.73 310.88-0.35 311.28-1.44 311.56-3.08 311.84-4.71 311.97-6.95 312.11-9.18 312.11-12.16ZM340.59-16.89L330.95-11.21Q330.95-10.42 331.18-9.51 331.41-8.59 331.85-7.67 332.29-6.74 332.94-5.9 333.59-5.05 334.43-4.39 335.27-3.74 336.3-3.34 337.32-2.95 338.54-2.95L338.54-2.95Q339.4-2.95 340.13-3.15 340.86-3.34 341.5-3.69 342.13-4.03 342.72-4.48 343.3-4.93 343.89-5.44L343.89-5.44 344.5-4.86Q343.94-4.1 343.06-3.2 342.18-2.29 340.94-1.5 339.69-0.71 338.03-0.18 336.37 0.34 334.25 0.34L334.25 0.34Q332.12 0.34 330.11-0.43 328.09-1.2 326.53-2.73 324.97-4.27 324.03-6.57 323.09-8.86 323.09-11.94L323.09-11.94Q323.09-14.16 323.65-16.02 324.21-17.87 325.18-19.36 326.14-20.85 327.42-21.97 328.7-23.1 330.12-23.84 331.54-24.58 333.01-24.96 334.49-25.34 335.86-25.34L335.86-25.34Q337.66-25.34 339.01-24.95 340.35-24.56 341.24-23.9 342.13-23.24 342.57-22.38 343.01-21.51 343.01-20.56L343.01-20.56Q343.01-19.41 342.35-18.49 341.69-17.58 340.59-16.89L340.59-16.89ZM330.71-13.21L335.86-16.16Q336.18-16.36 336.38-16.54 336.59-16.72 336.71-16.98 336.83-17.24 336.9-17.61 336.96-17.99 336.96-18.55L336.96-18.55Q336.96-19.17 336.82-19.91 336.69-20.65 336.37-21.31 336.05-21.97 335.56-22.41 335.08-22.85 334.39-22.85L334.39-22.85Q333.51-22.85 332.89-22.33 332.27-21.8 331.87-20.97 331.46-20.14 331.23-19.08 331-18.02 330.88-16.94 330.76-15.87 330.73-14.88 330.71-13.89 330.71-13.21L330.71-13.21ZM355.58-20.19L355.58-20.19Q356.51-21.61 357.56-22.75L357.56-22.75Q358-23.24 358.51-23.71 359.02-24.17 359.57-24.54 360.12-24.9 360.71-25.12 361.29-25.34 361.88-25.34L361.88-25.34Q363.13-25.34 363.83-24.6 364.54-23.85 364.54-22.51L364.54-22.51Q364.54-21.68 364.41-20.91 364.27-20.14 363.88-19.04L363.88-19.04 363.2-19.04Q363.05-19.8 362.52-20.3 361.98-20.8 360.95-20.8L360.95-20.8Q360.2-20.8 359.46-20.52 358.73-20.24 358.04-19.82 357.34-19.41 356.72-18.92 356.09-18.43 355.58-17.99L355.58-17.99 355.58-2.15Q355.58-1.83 355.48-1.39 355.39-0.95 355.01-0.56 354.63-0.17 353.89 0.11 353.14 0.39 351.85 0.39L351.85 0.39Q350.55 0.39 349.81 0.09 349.06-0.22 348.67-0.63 348.28-1.05 348.18-1.49 348.09-1.93 348.09-2.2L348.09-2.2 348.09-21.04Q348.09-21.75 347.76-22.28 347.43-22.8 346.65-22.8L346.65-22.8Q346.23-22.8 345.94-22.66 345.65-22.51 345.3-22.24L345.3-22.24 344.79-22.85Q345.35-23.32 346.05-23.77 346.74-24.22 347.55-24.56 348.36-24.9 349.28-25.12 350.21-25.34 351.24-25.34L351.24-25.34Q352.29-25.34 353.03-25.06 353.78-24.78 354.25-24.33 354.73-23.88 355-23.32 355.26-22.75 355.4-22.18 355.53-21.61 355.56-21.08 355.58-20.56 355.58-20.19ZM375.48-23.39L375.48-23.39Q374.92-23.39 374.41-23.24 373.91-23.1 373.52-22.77 373.13-22.44 372.91-21.94 372.69-21.44 372.69-20.75L372.69-20.75Q372.69-19.8 373.39-18.86 374.09-17.92 375.12-16.91 376.16-15.89 377.37-14.81 378.58-13.72 379.61-12.51 380.65-11.3 381.35-9.94 382.04-8.57 382.04-7.01L382.04-7.01Q382.04-5.25 381.45-3.88 380.85-2.51 379.74-1.56 378.63-0.61 377.05-0.11 375.48 0.39 373.55 0.39L373.55 0.39Q371.86 0.39 370.5-0.09 369.13-0.56 368.07-1.26 367.01-1.95 366.25-2.73 365.49-3.52 365.08-4.15L365.08-4.15 365.93-4.76Q366.25-4.39 366.74-3.97 367.22-3.54 367.82-3.17 368.42-2.81 369.1-2.58 369.79-2.34 370.5-2.34L370.5-2.34Q372.25-2.34 373.38-3.19 374.5-4.03 374.5-5.69L374.5-5.69Q374.5-6.62 373.89-7.6 373.28-8.59 372.35-9.64 371.42-10.69 370.35-11.82 369.28-12.94 368.35-14.14 367.42-15.33 366.81-16.6 366.2-17.87 366.2-19.24L366.2-19.24Q366.2-20.78 366.82-21.92 367.44-23.07 368.48-23.83 369.52-24.58 370.85-24.96 372.18-25.34 373.6-25.34L373.6-25.34Q375.23-25.34 376.58-25.05 377.92-24.76 378.88-24.16 379.85-23.56 380.37-22.66 380.9-21.75 380.9-20.56L380.9-20.56Q380.9-19.63 380.29-18.95 379.68-18.26 378.58-18.26L378.58-18.26Q377.53-18.26 376.98-18.71 376.43-19.17 376.43-19.95L376.43-19.95Q376.43-20.46 376.69-20.75 376.94-21.04 377.26-21.23 377.58-21.41 377.83-21.55 378.09-21.68 378.09-21.9L378.09-21.9Q378.09-22.58 377.36-22.99 376.62-23.39 375.48-23.39ZM394.13-33.96L394.13-20.7Q395.03-22 396.18-23.02L396.18-23.02Q396.64-23.46 397.21-23.88 397.79-24.29 398.44-24.62 399.08-24.95 399.8-25.15 400.52-25.34 401.28-25.34L401.28-25.34Q402.92-25.34 404.21-24.71 405.5-24.07 406.38-22.58 407.26-21.09 407.73-18.64 408.19-16.19 408.19-12.55L408.19-12.55Q408.19-9.01 407.55-6.4 406.92-3.78 405.89-1.95 404.87-0.12 403.57 1.04 402.28 2.2 400.96 2.86 399.64 3.52 398.42 3.77 397.2 4.03 396.32 4.05L396.32 4.05 396.08 3.05Q397.18 2.78 398.03 2.05 398.89 1.32 399.47-0.35 400.06-2.03 400.36-4.86 400.67-7.69 400.67-12.16L400.67-12.16Q400.67-15.23 400.39-17.08 400.11-18.92 399.66-19.89 399.2-20.85 398.63-21.15 398.06-21.46 397.47-21.46L397.47-21.46Q396.76-21.46 396.23-21.08 395.69-20.7 395.29-20.21 394.88-19.73 394.6-19.24 394.32-18.75 394.13-18.51L394.13-18.51 394.13-2.2Q394.13-1.88 394.03-1.43 393.93-0.98 393.55-0.57 393.17-0.17 392.43 0.11 391.69 0.39 390.39 0.39L390.39 0.39Q389.1 0.39 388.34 0.09 387.58-0.22 387.21-0.63 386.83-1.05 386.73-1.49 386.63-1.93 386.63-2.2L386.63-2.2 386.63-33.69Q386.63-34.4 386.3-34.92 385.97-35.45 385.19-35.45L385.19-35.45Q384.78-35.45 384.47-35.31 384.17-35.18 383.82-34.91L383.82-34.91 383.34-35.5Q383.9-35.96 384.58-36.41 385.26-36.87 386.08-37.21 386.9-37.55 387.83-37.77 388.76-37.99 389.78-37.99L389.78-37.99Q391.37-37.99 392.25-37.56 393.13-37.13 393.54-36.51 393.96-35.89 394.04-35.19 394.13-34.5 394.13-33.96L394.13-33.96ZM421.03-21.29L421.03-2.2Q421.03-1.88 420.92-1.43 420.81-0.98 420.41-0.57 420-0.17 419.25 0.11 418.49 0.39 417.2 0.39L417.2 0.39Q415.9 0.39 415.17 0.09 414.44-0.22 414.07-0.63 413.7-1.05 413.62-1.49 413.53-1.93 413.53-2.2L413.53-2.2 413.53-21.04Q413.53-21.75 413.2-22.28 412.87-22.8 412.09-22.8L412.09-22.8Q411.68-22.8 411.38-22.66 411.09-22.51 410.75-22.24L410.75-22.24 410.24-22.85Q410.8-23.32 411.49-23.77 412.19-24.22 413-24.56 413.8-24.9 414.73-25.12 415.66-25.34 416.68-25.34L416.68-25.34Q418.27-25.34 419.15-24.91 420.03-24.49 420.44-23.86 420.86-23.24 420.94-22.53 421.03-21.83 421.03-21.29L421.03-21.29ZM412.78-30.91L412.78-30.91Q412.78-31.59 413.08-32.21 413.39-32.84 413.94-33.3 414.49-33.76 415.21-34.03 415.93-34.3 416.78-34.3L416.78-34.3Q417.61-34.3 418.33-34.03 419.05-33.76 419.59-33.3 420.13-32.84 420.43-32.21 420.74-31.59 420.74-30.91L420.74-30.91Q420.74-30.2 420.43-29.59 420.13-28.98 419.59-28.53 419.05-28.08 418.33-27.81 417.61-27.54 416.78-27.54L416.78-27.54Q415.93-27.54 415.21-27.81 414.49-28.08 413.94-28.53 413.39-28.98 413.08-29.59 412.78-30.2 412.78-30.91ZM427.47 9.91L427.47-21.04Q427.47-21.75 427.14-22.28 426.81-22.8 426.03-22.8L426.03-22.8Q425.62-22.8 425.32-22.66 425.03-22.51 424.69-22.24L424.69-22.24 424.18-22.85Q424.74-23.32 425.43-23.77 426.13-24.22 426.93-24.56 427.74-24.9 428.67-25.12 429.6-25.34 430.62-25.34L430.62-25.34Q431.72-25.34 432.5-25 433.28-24.66 433.81-24.18 434.33-23.71 434.6-23.18 434.87-22.66 434.92-22.29L434.92-22.29Q435.41-22.97 436.08-23.54 436.75-24.1 437.54-24.5 438.34-24.9 439.23-25.12 440.12-25.34 441.07-25.34L441.07-25.34Q443.02-25.34 444.61-24.54 446.2-23.73 447.33-22.14 448.47-20.56 449.08-18.21 449.69-15.87 449.69-12.79L449.69-12.79Q449.69-9.23 448.94-6.73 448.2-4.22 446.99-2.64 445.78-1.05 444.23-0.33 442.68 0.39 441.07 0.39L441.07 0.39Q439.73 0.39 438.71 0.12 437.7-0.15 436.97-0.54 436.24-0.93 435.75-1.33 435.26-1.73 434.97-2L434.97-2 434.97 9.91Q434.97 10.23 434.87 10.67 434.77 11.11 434.39 11.51 434.01 11.91 433.27 12.21 432.52 12.5 431.23 12.5L431.23 12.5Q429.94 12.5 429.19 12.19 428.45 11.89 428.06 11.46 427.67 11.04 427.57 10.61 427.47 10.18 427.47 9.91L427.47 9.91ZM434.97-19.09L434.97-5.49Q434.97-5.3 435.14-4.81 435.31-4.32 435.67-3.81 436.04-3.3 436.61-2.89 437.19-2.49 438.02-2.49L438.02-2.49Q439.09-2.49 439.85-3.31 440.61-4.13 441.09-5.53 441.58-6.93 441.8-8.8 442.02-10.67 442.02-12.79L442.02-12.79Q442.02-15.41 441.74-17.21 441.46-19.02 440.92-20.13 440.39-21.24 439.64-21.74 438.9-22.24 437.97-22.24L437.97-22.24Q437.43-22.24 436.9-21.94 436.36-21.63 435.93-21.18 435.5-20.73 435.23-20.17 434.97-19.6 434.97-19.09L434.97-19.09Z" fill="#ffffff" data-fill-palette-color="secondary"></path></g></svg></g></svg></g><g transform="matrix(1,0,0,1,0,55.404990576904865)"><svg viewBox="0 0 232.209792 4.383125903379932" height="4.383125903379932" width="232.209792"><g transform="matrix(1,0,0,1,0,0)"><svg width="232.209792" viewBox="6.25 -31.25 1655.45 31.25" height="4.383125903379932" data-palette-color="#0c6da3"><path d="M31.25 0L6.25 0 6.25-31.25 31.25-31.25 31.25 0ZM7.03-30.47L7.03-0.78 30.47-0.78 30.47-30.47 7.03-30.47ZM68.75 0L43.75 0 43.75-31.25 68.75-31.25 68.75 0ZM44.53-30.47L44.53-0.78 67.97-0.78 67.97-30.47 44.53-30.47ZM106.25 0L81.25 0 81.25-31.25 106.25-31.25 106.25 0ZM82.03-30.47L82.03-0.78 105.46-0.78 105.46-30.47 82.03-30.47ZM143.74 0L118.74 0 118.74-31.25 143.74-31.25 143.74 0ZM119.52-30.47L119.52-0.78 142.96-0.78 142.96-30.47 119.52-30.47ZM181.24 0L156.24 0 156.24-31.25 181.24-31.25 181.24 0ZM157.02-30.47L157.02-0.78 180.46-0.78 180.46-30.47 157.02-30.47ZM218.74 0L193.74 0 193.74-31.25 218.74-31.25 218.74 0ZM194.52-30.47L194.52-0.78 217.96-0.78 217.96-30.47 194.52-30.47ZM256.24 0L231.24 0 231.24-31.25 256.24-31.25 256.24 0ZM232.02-30.47L232.02-0.78 255.45-0.78 255.45-30.47 232.02-30.47ZM293.73 0L268.73 0 268.73-31.25 293.73-31.25 293.73 0ZM269.51-30.47L269.51-0.78 292.95-0.78 292.95-30.47 269.51-30.47ZM345.12 0L320.12 0 320.12-31.25 345.12-31.25 345.12 0ZM320.9-30.47L320.9-0.78 344.34-0.78 344.34-30.47 320.9-30.47ZM382.62 0L357.62 0 357.62-31.25 382.62-31.25 382.62 0ZM358.4-30.47L358.4-0.78 381.84-0.78 381.84-30.47 358.4-30.47ZM420.11 0L395.11 0 395.11-31.25 420.11-31.25 420.11 0ZM395.9-30.47L395.9-0.78 419.33-0.78 419.33-30.47 395.9-30.47ZM457.61 0L432.61 0 432.61-31.25 457.61-31.25 457.61 0ZM433.39-30.47L433.39-0.78 456.83-0.78 456.83-30.47 433.39-30.47ZM495.11 0L470.11 0 470.11-31.25 495.11-31.25 495.11 0ZM470.89-30.47L470.89-0.78 494.33-0.78 494.33-30.47 470.89-30.47ZM532.61 0L507.61 0 507.61-31.25 532.61-31.25 532.61 0ZM508.39-30.47L508.39-0.78 531.83-0.78 531.83-30.47 508.39-30.47ZM570.1 0L545.1 0 545.1-31.25 570.1-31.25 570.1 0ZM545.89-30.47L545.89-0.78 569.32-0.78 569.32-30.47 545.89-30.47ZM621.49 0L596.49 0 596.49-31.25 621.49-31.25 621.49 0ZM597.27-30.47L597.27-0.78 620.71-0.78 620.71-30.47 597.27-30.47ZM658.99 0L633.99 0 633.99-31.25 658.99-31.25 658.99 0ZM634.77-30.47L634.77-0.78 658.21-0.78 658.21-30.47 634.77-30.47ZM696.49 0L671.49 0 671.49-31.25 696.49-31.25 696.49 0ZM672.27-30.47L672.27-0.78 695.7-0.78 695.7-30.47 672.27-30.47ZM733.98 0L708.98 0 708.98-31.25 733.98-31.25 733.98 0ZM709.76-30.47L709.76-0.78 733.2-0.78 733.2-30.47 709.76-30.47ZM771.48 0L746.48 0 746.48-31.25 771.48-31.25 771.48 0ZM747.26-30.47L747.26-0.78 770.7-0.78 770.7-30.47 747.26-30.47ZM808.98 0L783.98 0 783.98-31.25 808.98-31.25 808.98 0ZM784.76-30.47L784.76-0.78 808.2-0.78 808.2-30.47 784.76-30.47ZM846.48 0L821.48 0 821.48-31.25 846.48-31.25 846.48 0ZM822.26-30.47L822.26-0.78 845.69-0.78 845.69-30.47 822.26-30.47ZM883.97 0L858.97 0 858.97-31.25 883.97-31.25 883.97 0ZM859.75-30.47L859.75-0.78 883.19-0.78 883.19-30.47 859.75-30.47ZM921.47 0L896.47 0 896.47-31.25 921.47-31.25 921.47 0ZM897.25-30.47L897.25-0.78 920.69-0.78 920.69-30.47 897.25-30.47ZM972.86 0L947.86 0 947.86-31.25 972.86-31.25 972.86 0ZM948.64-30.47L948.64-0.78 972.08-0.78 972.08-30.47 948.64-30.47ZM1010.35 0L985.35 0 985.35-31.25 1010.35-31.25 1010.35 0ZM986.14-30.47L986.14-0.78 1009.57-0.78 1009.57-30.47 986.14-30.47ZM1047.85 0L1022.85 0 1022.85-31.25 1047.85-31.25 1047.85 0ZM1023.63-30.47L1023.63-0.78 1047.07-0.78 1047.07-30.47 1023.63-30.47ZM1085.35 0L1060.35 0 1060.35-31.25 1085.35-31.25 1085.35 0ZM1061.13-30.47L1061.13-0.78 1084.57-0.78 1084.57-30.47 1061.13-30.47ZM1122.85 0L1097.85 0 1097.85-31.25 1122.85-31.25 1122.85 0ZM1098.63-30.47L1098.63-0.78 1122.07-0.78 1122.07-30.47 1098.63-30.47ZM1160.34 0L1135.34 0 1135.34-31.25 1160.34-31.25 1160.34 0ZM1136.13-30.47L1136.13-0.78 1159.56-0.78 1159.56-30.47 1136.13-30.47ZM1197.84 0L1172.84 0 1172.84-31.25 1197.84-31.25 1197.84 0ZM1173.62-30.47L1173.62-0.78 1197.06-0.78 1197.06-30.47 1173.62-30.47ZM1235.34 0L1210.34 0 1210.34-31.25 1235.34-31.25 1235.34 0ZM1211.12-30.47L1211.12-0.78 1234.56-0.78 1234.56-30.47 1211.12-30.47ZM1272.84 0L1247.84 0 1247.84-31.25 1272.84-31.25 1272.84 0ZM1248.62-30.47L1248.62-0.78 1272.06-0.78 1272.06-30.47 1248.62-30.47ZM1310.33 0L1285.33 0 1285.33-31.25 1310.33-31.25 1310.33 0ZM1286.12-30.47L1286.12-0.78 1309.55-0.78 1309.55-30.47 1286.12-30.47ZM1361.72 0L1336.72 0 1336.72-31.25 1361.72-31.25 1361.72 0ZM1337.5-30.47L1337.5-0.78 1360.94-0.78 1360.94-30.47 1337.5-30.47ZM1399.22 0L1374.22 0 1374.22-31.25 1399.22-31.25 1399.22 0ZM1375-30.47L1375-0.78 1398.44-0.78 1398.44-30.47 1375-30.47ZM1436.72 0L1411.72 0 1411.72-31.25 1436.72-31.25 1436.72 0ZM1412.5-30.47L1412.5-0.78 1435.94-0.78 1435.94-30.47 1412.5-30.47ZM1474.21 0L1449.21 0 1449.21-31.25 1474.21-31.25 1474.21 0ZM1450-30.47L1450-0.78 1473.43-0.78 1473.43-30.47 1450-30.47ZM1511.71 0L1486.71 0 1486.71-31.25 1511.71-31.25 1511.71 0ZM1487.49-30.47L1487.49-0.78 1510.93-0.78 1510.93-30.47 1487.49-30.47ZM1549.21 0L1524.21 0 1524.21-31.25 1549.21-31.25 1549.21 0ZM1524.99-30.47L1524.99-0.78 1548.43-0.78 1548.43-30.47 1524.99-30.47ZM1586.71 0L1561.71 0 1561.71-31.25 1586.71-31.25 1586.71 0ZM1562.49-30.47L1562.49-0.78 1585.93-0.78 1585.93-30.47 1562.49-30.47ZM1624.2 0L1599.2 0 1599.2-31.25 1624.2-31.25 1624.2 0ZM1599.99-30.47L1599.99-0.78 1623.42-0.78 1623.42-30.47 1599.99-30.47ZM1661.7 0L1636.7 0 1636.7-31.25 1661.7-31.25 1661.7 0ZM1637.48-30.47L1637.48-0.78 1660.92-0.78 1660.92-30.47 1637.48-30.47Z" opacity="1" transform="matrix(1,0,0,1,0,0)" fill="#ffffff" class="slogan-text-1" data-fill-palette-color="secondary" id="text-1"></path></svg></g></svg></g></svg></g></svg></g><g><svg viewBox="0 0 143.05193379089545 143.05193379089545" height="143.05193379089545" width="143.05193379089545"><g><svg></svg></g><g id="icon-0"><svg viewBox="0 0 143.05193379089545 143.05193379089545" height="143.05193379089545" width="143.05193379089545"><g><path d="M0 71.526c0-39.503 32.023-71.526 71.526-71.526 39.503 0 71.526 32.023 71.526 71.526 0 39.503-32.023 71.526-71.526 71.526-39.503 0-71.526-32.023-71.526-71.526zM71.526 139.01c37.27 0 67.484-30.214 67.484-67.484 0-37.27-30.214-67.484-67.484-67.484-37.27 0-67.484 30.214-67.484 67.484 0 37.27 30.214 67.484 67.484 67.484z" data-fill-palette-color="accent" fill="#ffffff" stroke="transparent"></path></g><g transform="matrix(1,0,0,1,35.73675710892774,32.44969864753456)"><svg viewBox="0 0 71.57841957303997 78.15253649582633" height="78.15253649582633" width="71.57841957303997"><g><svg xmlns="http://www.w3.org/2000/svg" xmlns:xlink="http://www.w3.org/1999/xlink" version="1.1" x="0" y="0" viewBox="8.799999999999999 5.099999999999997 82.33769763774646 89.9" enable-background="new 0 0 100 100" xml:space="preserve" height="78.15253649582633" width="71.57841957303997" class="icon-cg-0" data-fill-palette-color="accent" id="cg-0"><g fill="#17a993" data-fill-palette-color="accent"><path d="M91.1 85.1c-1.1-9.2-10-13.9-15.2-15.9-0.1 0-0.1 0-0.2 0 0 0 0 0 0 0L68.2 69c0 0 0 0 0 0h0-7.9c0 0 0 0 0 0 0 0 0 0 0 0l-7.5 0.1c0 0 0 0 0 0l0 0c0 0 0 0 0 0-0.1 0-0.1 0-0.2 0-0.6 0.2-1.1 0.5-1.8 0.7 0 0-0.1 0-0.1 0H31.5c-0.4 0-0.7 0.3-0.7 0.7v3.6c0 0.4 0.3 0.7 0.7 0.7h0.9V91H11.8c-0.9 0-1.6-0.7-1.6-1.6V14.2c0-0.5 0.4-0.9 0.9-0.9h14.8 26.1 14.8c0.5 0 0.9 0.4 0.9 0.9v24.6c-1.1-0.3-2.3-0.5-3.5-0.5-7.6 0-13.8 6.5-13.8 14.5 0 8 6.2 14.5 13.8 14.5 7.6 0 13.8-6.5 13.8-14.5 0-6.2-3.7-11.4-8.9-13.5v-25c0-1.3-1.1-2.4-2.4-2.4H52.8v-4c0-1.6-1.3-2.8-2.8-2.8H28.1c-1.6 0-2.8 1.3-2.8 2.8v4H11.2c-1.3 0-2.4 1.1-2.4 2.4v75.2c0 1.7 1.4 3 3 3h21.3 13.2c4.2 1.4 10 2.5 17.9 2.5 0 0 0 0 0 0 14.4 0 22-3.8 25.2-6.1C90.7 88 91.3 86.6 91.1 85.1zM76.7 52.8c0 7.2-5.6 13.1-12.4 13.1S51.8 60 51.8 52.8s5.6-13.1 12.4-13.1S76.7 45.6 76.7 52.8zM28.1 6.4h21.9c0.8 0 1.4 0.6 1.4 1.4v4H26.6v-4C26.6 7.1 27.3 6.4 28.1 6.4zM59.8 70.4l1.7 4.1-0.6 7.7L54 70.5 59.8 70.4zM62.9 75.2l2.6 0 0.7 9.3-2 3.5-2-3.5L62.9 75.2zM67.5 82.3l-0.6-7.7 1.8-4.1 5.8 0.1L67.5 82.3zM67.1 70.4l-1.4 3.3-2.9 0-1.4-3.3H67.1zM32.2 73.5v-2.2H48c-1.1 0.6-2.3 1.4-3.5 2.2-0.1 0-0.1 0-0.2 0H32.2zM33.8 91V74.9h9c-2.8 2.5-5 5.8-5.5 10.2-0.2 1.5 0.5 3 1.7 3.8 0.9 0.6 2.1 1.4 3.8 2.1H33.8zM88.6 87.7c-3.1 2.2-10.4 5.8-24.3 5.8-0.1 0-0.2 0-0.3 0-7.6 0-13.3-1.1-17.3-2.5 0 0-0.1 0-0.1 0-3.3-1.1-5.5-2.4-6.9-3.3-0.8-0.6-1.2-1.5-1.1-2.5 1-8.2 8.8-12.5 13.8-14.5l8.4 14.2c0 0 0 0 0 0l2.7 4.8c0.1 0.2 0.4 0.4 0.6 0.4 0 0 0 0 0 0 0.3 0 0.5-0.1 0.6-0.4l2.7-4.8L76 70.7c5 2 12.8 6.4 13.8 14.5C89.9 86.2 89.4 87.2 88.6 87.7z" fill="#ffffff" data-fill-palette-color="accent"></path><path d="M80.4 84.4h-7.6c-0.4 0-0.7 0.3-0.7 0.7 0 0.4 0.3 0.7 0.7 0.7h7.6c0.4 0 0.7-0.3 0.7-0.7C81.1 84.7 80.8 84.4 80.4 84.4z" fill="#ffffff" data-fill-palette-color="accent"></path><path d="M26.9 24.8c0-0.4-0.3-0.7-0.7-0.7H22c0 0-0.1 0-0.1 0 0 0-0.1 0-0.1 0h-4.2c-0.4 0-0.7 0.3-0.7 0.7v9.7c0 0.4 0.3 0.7 0.7 0.7h4.2c0 0 0.1 0 0.1 0 0 0 0.1 0 0.1 0h4.2c0.4 0 0.7-0.3 0.7-0.7V24.8zM21.3 33.8h-3v-8.3h3V33.8zM25.5 33.8h-2.8v-8.3h2.8V33.8z" fill="#ffffff" data-fill-palette-color="accent"></path><path d="M26.9 44.8c0-0.4-0.3-0.7-0.7-0.7H22c0 0-0.1 0-0.1 0 0 0-0.1 0-0.1 0h-4.2c-0.4 0-0.7 0.3-0.7 0.7v9.7c0 0.4 0.3 0.7 0.7 0.7h4.2c0 0 0.1 0 0.1 0 0 0 0.1 0 0.1 0h4.2c0.4 0 0.7-0.3 0.7-0.7V44.8zM21.3 53.8h-3v-8.3h3V53.8zM25.5 53.8h-2.8v-8.3h2.8V53.8z" fill="#ffffff" data-fill-palette-color="accent"></path><path d="M26.2 65.7H22c0 0-0.1 0-0.1 0 0 0-0.1 0-0.1 0h-4.2c-0.4 0-0.7 0.3-0.7 0.7v9.7c0 0.4 0.3 0.7 0.7 0.7h4.2c0 0 0.1 0 0.1 0 0 0 0.1 0 0.1 0h4.2c0.4 0 0.7-0.3 0.7-0.7v-9.7C26.9 66 26.6 65.7 26.2 65.7zM21.3 75.4h-3v-8.3h3V75.4zM25.5 75.4h-2.8v-8.3h2.8V75.4z" fill="#ffffff" data-fill-palette-color="accent"></path><path d="M56.9 35.2C56.9 35.2 56.9 35.2 56.9 35.2c0.1 0 0.1 0 0.2 0h4.2c0.4 0 0.7-0.3 0.7-0.7v-9.7c0-0.4-0.3-0.7-0.7-0.7h-4.2c0 0-0.1 0-0.1 0 0 0-0.1 0-0.1 0h-4.2c-0.4 0-0.7 0.3-0.7 0.7v9.7c0 0.4 0.3 0.7 0.7 0.7H56.9zM57.8 25.5h2.8v8.3h-2.8V25.5zM53.4 25.5h3v8.3h-3V25.5z" fill="#ffffff" data-fill-palette-color="accent"></path><path d="M43.7 44.1h-4.2c0 0-0.1 0-0.1 0 0 0-0.1 0-0.1 0h-4.2c-0.4 0-0.7 0.3-0.7 0.7v9.7c0 0.4 0.3 0.7 0.7 0.7h4.2c0 0 0.1 0 0.1 0 0 0 0.1 0 0.1 0h4.2c0.4 0 0.7-0.3 0.7-0.7v-9.7C44.4 44.4 44.1 44.1 43.7 44.1zM38.8 53.8h-3v-8.3h3V53.8zM43 53.8h-2.8v-8.3H43V53.8z" fill="#ffffff" data-fill-palette-color="accent"></path><path d="M44.4 24.8c0-0.4-0.3-0.7-0.7-0.7h-4.2c0 0-0.1 0-0.1 0 0 0-0.1 0-0.1 0h-4.2c-0.4 0-0.7 0.3-0.7 0.7v9.7c0 0.4 0.3 0.7 0.7 0.7h4.2c0 0 0.1 0 0.1 0 0 0 0.1 0 0.1 0h4.2c0.4 0 0.7-0.3 0.7-0.7V24.8zM38.8 33.8h-3v-8.3h3V33.8zM43 33.8h-2.8v-8.3H43V33.8z" fill="#ffffff" data-fill-palette-color="accent"></path></g></svg></g></svg></g></svg></g></svg></g></svg></g><defs></defs></svg><rect width="395.52" height="101.08331013373046" fill="none" stroke="none" visibility="hidden"></rect></g></svg></g></svg>