<svg xmlns="http://www.w3.org/2000/svg" version="1.1" xmlns:xlink="http://www.w3.org/1999/xlink" xmlns:svgjs="http://svgjs.dev/svgjs" width="1500" height="1500" viewBox="0 0 1500 1500"><rect width="1500" height="1500" fill="#000000"></rect><g transform="matrix(0.6666666666666666,0,0,0.6666666666666666,249.39393939393938,684.6727918687697)"><svg viewBox="0 0 396 52" data-background-color="#ffffff" preserveAspectRatio="xMidYMid meet" height="196" width="1500" xmlns="http://www.w3.org/2000/svg" xmlns:xlink="http://www.w3.org/1999/xlink"><g id="tight-bounds" transform="matrix(1,0,0,1,0.2400000000000091,-0.0024375804287046776)"><svg viewBox="0 0 395.52 52.0048751608574" height="52.0048751608574" width="395.52"><g><svg viewBox="0 0 488.95540919240034 64.29021292040031" height="52.0048751608574" width="395.52"><g><rect width="2.2626870419478844" height="46.752289424748405" x="80.02513834692913" y="8.768961747825951" fill="#ffffff" opacity="1" stroke-width="0" stroke="transparent" fill-opacity="1" class="rect-qz-0" data-fill-palette-color="primary" rx="1%" id="qz-0" data-palette-color="#093a4b"></rect></g><g><rect width="2.2626870419478844" height="46.752289424748405" x="85.24945764273549" y="8.768961747825951" fill="#ffffff" opacity="1" stroke-width="0" stroke="transparent" fill-opacity="1" class="rect-qz-1" data-fill-palette-color="primary" rx="1%" id="qz-1" data-palette-color="#093a4b"></rect></g><g transform="matrix(1,0,0,1,93.43540919240036,8.885260975250695)"><svg viewBox="0 0 395.52 46.51969096989892" height="46.51969096989892" width="395.52"><g id="textblocktransform"><svg viewBox="0 0 395.52 46.51969096989892" height="46.51969096989892" width="395.52" id="textblock"><g><svg viewBox="0 0 395.52 25.090498431509236" height="25.090498431509236" width="395.52"><g transform="matrix(1,0,0,1,0,0)"><svg width="395.52" viewBox="1.95 -30.74 490.27000000000004 31.11" height="25.090498431509236" data-palette-color="#093a4b"><g class="wordmark-text-0" data-fill-palette-color="primary" id="text-0"><path d="M16.24 0.37Q8.91 0.37 5.43-3.44 1.95-7.25 1.95-15.28L1.95-15.28Q1.95-30.74 16.46-30.74L16.46-30.74Q18.43-30.74 20.56-30.35 22.68-29.96 24.11-29.26 25.54-28.56 25.54-27.71L25.54-27.71Q25.54-27.1 25.05-26.11 24.56-25.12 23.89-24.37 23.22-23.61 22.71-23.61L22.71-23.61Q22.58-23.61 22.05-23.85L22.05-23.85Q20.87-24.34 19.59-24.67 18.31-25 16.33-25L16.33-25Q12.5-25 10.66-22.57 8.81-20.14 8.81-15.23L8.81-15.23Q8.81-10.33 10.67-7.84 12.52-5.35 16.24-5.35L16.24-5.35Q18.16-5.35 19.59-5.74 21.02-6.13 22.39-6.74L22.39-6.74Q22.46-6.76 22.83-6.92 23.19-7.08 23.36-7.08L23.36-7.08Q24-7.08 24.58-6.34 25.17-5.59 25.54-4.65 25.9-3.71 25.9-3.3L25.9-3.3Q25.9-2.1 24.3-1.27 22.71-0.44 20.45-0.04 18.19 0.37 16.24 0.37L16.24 0.37ZM42.75 0.37Q38.3 0.37 35.19-1.44 32.08-3.25 30.45-6.73 28.83-10.21 28.83-15.21L28.83-15.21Q28.83-20.19 30.45-23.67 32.08-27.15 35.19-28.94 38.3-30.74 42.75-30.74L42.75-30.74Q47.21-30.74 50.33-28.94 53.44-27.15 55.05-23.67 56.66-20.19 56.66-15.21L56.66-15.21Q56.66-10.21 55.05-6.73 53.44-3.25 50.33-1.44 47.21 0.37 42.75 0.37L42.75 0.37ZM42.75-5.35Q46.24-5.35 48.02-7.87 49.8-10.4 49.8-15.21L49.8-15.21Q49.8-20.02 48.02-22.51 46.24-25 42.75-25L42.75-25Q39.28-25 37.49-22.5 35.69-20 35.69-15.21L35.69-15.21Q35.69-10.4 37.5-7.87 39.3-5.35 42.75-5.35L42.75-5.35ZM64.23 0.07Q61.62 0.07 61.62-1.29L61.62-1.29 61.62-28.66Q61.62-29.57 62.03-29.97 62.45-30.37 63.35-30.37L63.35-30.37 71.82-30.37Q82.61-30.37 82.61-22.24L82.61-22.24Q82.61-19.78 81.23-17.99 79.85-16.21 77.53-15.33L77.53-15.33 77.53-15.16Q78.34-14.82 79.23-13.7 80.12-12.57 80.66-11.16L80.66-11.16 84.49-1.61Q84.69-1.03 84.69-0.78L84.69-0.78Q84.69 0.07 82.1 0.07L82.1 0.07 80.32 0.07Q78.14 0.07 77.8-0.83L77.8-0.83 74.36-9.3Q73.87-10.28 73.42-10.82 72.97-11.35 72.16-11.63 71.36-11.91 69.99-11.91L69.99-11.91 68.31-11.91 68.31-1.29Q68.31 0.07 65.69 0.07L65.69 0.07 64.23 0.07ZM68.31-17.68L72.41-17.68Q73.29-17.68 74.07-18.18 74.85-18.68 75.31-19.53 75.78-20.39 75.78-21.41L75.78-21.41Q75.78-22.92 74.79-23.82 73.8-24.71 72.11-24.71L72.11-24.71 68.31-24.71 68.31-17.68ZM90.72 0.07Q88.1 0.07 88.1-1.29L88.1-1.29 88.1-28.66Q88.1-29.57 88.52-29.97 88.93-30.37 89.84-30.37L89.84-30.37 98.97-30.37Q103.02-30.37 106.14-28.39 109.27-26.42 109.27-20.87L109.27-20.87Q109.27-17.07 107.46-14.95 105.66-12.84 103.4-12.11 101.14-11.38 99.38-11.38L99.38-11.38 94.79-11.38 94.79-1.29Q94.79 0.07 92.18 0.07L92.18 0.07 90.72 0.07ZM94.79-17.11L98.65-17.11Q100.21-17.11 101.32-17.94 102.43-18.77 102.43-20.87L102.43-20.87Q102.43-23 101.31-23.85 100.19-24.71 98.65-24.71L98.65-24.71 94.79-24.71 94.79-17.11ZM125.72 0.37Q121.28 0.37 118.17-1.44 115.05-3.25 113.43-6.73 111.81-10.21 111.81-15.21L111.81-15.21Q111.81-20.19 113.43-23.67 115.05-27.15 118.17-28.94 121.28-30.74 125.72-30.74L125.72-30.74Q130.19-30.74 133.3-28.94 136.42-27.15 138.03-23.67 139.64-20.19 139.64-15.21L139.64-15.21Q139.64-10.21 138.03-6.73 136.42-3.25 133.3-1.44 130.19 0.37 125.72 0.37L125.72 0.37ZM125.72-5.35Q129.21-5.35 131-7.87 132.78-10.4 132.78-15.21L132.78-15.21Q132.78-20.02 131-22.51 129.21-25 125.72-25L125.72-25Q122.26-25 120.46-22.5 118.67-20 118.67-15.21L118.67-15.21Q118.67-10.4 120.47-7.87 122.28-5.35 125.72-5.35L125.72-5.35ZM147.2 0.07Q144.59 0.07 144.59-1.29L144.59-1.29 144.59-28.66Q144.59-29.57 145.01-29.97 145.42-30.37 146.33-30.37L146.33-30.37 154.8-30.37Q165.59-30.37 165.59-22.24L165.59-22.24Q165.59-19.78 164.21-17.99 162.83-16.21 160.51-15.33L160.51-15.33 160.51-15.16Q161.32-14.82 162.21-13.7 163.1-12.57 163.63-11.16L163.63-11.16 167.47-1.61Q167.66-1.03 167.66-0.78L167.66-0.78Q167.66 0.07 165.08 0.07L165.08 0.07 163.29 0.07Q161.12 0.07 160.78-0.83L160.78-0.83 157.34-9.3Q156.85-10.28 156.4-10.82 155.94-11.35 155.14-11.63 154.33-11.91 152.97-11.91L152.97-11.91 151.28-11.91 151.28-1.29Q151.28 0.07 148.67 0.07L148.67 0.07 147.2 0.07ZM151.28-17.68L155.38-17.68Q156.26-17.68 157.04-18.18 157.82-18.68 158.29-19.53 158.75-20.39 158.75-21.41L158.75-21.41Q158.75-22.92 157.76-23.82 156.77-24.71 155.09-24.71L155.09-24.71 151.28-24.71 151.28-17.68ZM170.74 0.07Q168.08 0.07 168.08-0.88L168.08-0.88Q168.08-1.15 168.25-1.66L168.25-1.66 177.82-29.57Q178.16-30.49 180.28-30.49L180.28-30.49 182.53-30.49Q184.65-30.49 184.99-29.57L184.99-29.57 194.57-1.66Q194.69-1.17 194.69-0.88L194.69-0.88Q194.69-0.39 194.16-0.16 193.64 0.07 192.51 0.07L192.51 0.07 190.61 0.07Q189.58 0.07 188.96-0.13 188.34-0.34 188.19-0.83L188.19-0.83 186.44-6.13 176.21-6.13 174.45-0.83Q174.18 0.07 172.45 0.07L172.45 0.07 170.74 0.07ZM178.06-11.87L184.58-11.87 182.11-19.58Q181.89-20.17 181.74-20.92 181.58-21.68 181.45-22.36L181.45-22.36 181.28-22.36 181.19-21.83Q180.94-20.39 180.62-19.58L180.62-19.58 178.06-11.87ZM205.84 0.07Q203.23 0.07 203.23-1.29L203.23-1.29 203.23-24.71 196.34-24.71Q195.66-24.71 195.36-25.22 195.05-25.73 195.05-26.88L195.05-26.88 195.05-28.2Q195.05-29.35 195.36-29.86 195.66-30.37 196.34-30.37L196.34-30.37 216.88-30.37Q217.56-30.37 217.87-29.86 218.17-29.35 218.17-28.2L218.17-28.2 218.17-26.88Q218.17-25.73 217.87-25.22 217.56-24.71 216.88-24.71L216.88-24.71 209.97-24.71 209.97-1.29Q209.97 0.07 207.36 0.07L207.36 0.07 205.84 0.07ZM223.25 0Q222.34 0 221.93-0.42 221.51-0.83 221.51-1.73L221.51-1.73 221.51-28.66Q221.51-29.57 221.93-29.97 222.34-30.37 223.25-30.37L223.25-30.37 239.14-30.37Q239.82-30.37 240.13-29.86 240.43-29.35 240.43-28.2L240.43-28.2 240.43-26.88Q240.43-25.73 240.13-25.22 239.82-24.71 239.14-24.71L239.14-24.71 228.2-24.71 228.2-18.41 237.97-18.41Q238.65-18.41 238.96-17.9 239.26-17.38 239.26-16.24L239.26-16.24 239.26-14.89Q239.26-13.75 238.96-13.23 238.65-12.72 237.97-12.72L237.97-12.72 228.2-12.72 228.2-5.69 239.16-5.69Q239.85-5.69 240.15-5.18 240.46-4.66 240.46-3.54L240.46-3.54 240.46-2.17Q240.46-1.03 240.15-0.51 239.85 0 239.16 0L239.16 0 223.25 0Z" fill="#ffffff" data-fill-palette-color="primary"></path><path d="M266.75 0.37Q262.31 0.37 259.2-1.44 256.08-3.25 254.46-6.73 252.84-10.21 252.84-15.21L252.84-15.21Q252.84-20.19 254.46-23.67 256.08-27.15 259.2-28.94 262.31-30.74 266.75-30.74L266.75-30.74Q271.22-30.74 274.33-28.94 277.44-27.15 279.06-23.67 280.67-20.19 280.67-15.21L280.67-15.21Q280.67-10.21 279.06-6.73 277.44-3.25 274.33-1.44 271.22 0.37 266.75 0.37L266.75 0.37ZM266.75-5.35Q270.24-5.35 272.02-7.87 273.81-10.4 273.81-15.21L273.81-15.21Q273.81-20.02 272.02-22.51 270.24-25 266.75-25L266.75-25Q263.28-25 261.49-22.5 259.7-20 259.7-15.21L259.7-15.21Q259.7-10.4 261.5-7.87 263.31-5.35 266.75-5.35L266.75-5.35ZM291.77 0.07Q290.72 0.07 290.11-0.16 289.5-0.39 289.41-0.83L289.41-0.83 282.54-28.69Q282.45-28.96 282.45-29.35L282.45-29.35Q282.45-29.88 283.12-30.19 283.79-30.49 285.16-30.49L285.16-30.49 286.28-30.49Q288.82-30.49 289.19-29.13L289.19-29.13 292.43-15.16Q292.51-14.79 293.02-12.4L293.02-12.4 293.78-8.91Q294.07-10.69 294.9-13.87L294.9-13.87 295.24-15.16 298.83-29.57Q298.93-30.05 299.52-30.27 300.12-30.49 301.2-30.49L301.2-30.49 302.86-30.49Q303.93-30.49 304.53-30.27 305.13-30.05 305.23-29.57L305.23-29.57 308.67-15.16Q309.3-12.48 310.16-8.62L310.16-8.62Q310.25-9.06 310.84-11.69L310.84-11.69 311.62-15.16 314.99-29.13Q315.36-30.49 317.9-30.49L317.9-30.49 318.38-30.49Q319.73-30.49 320.4-30.19 321.07-29.88 321.07-29.35L321.07-29.35Q321.07-29.17 321.05-29.02 321.02-28.86 321-28.69L321-28.69 313.92-0.83Q313.79-0.39 313.14-0.16 312.48 0.07 311.52 0.07L311.52 0.07 308.35 0.07Q307.4 0.07 306.74-0.16 306.08-0.39 305.98-0.83L305.98-0.83 302.42-15.84 301.73-18.8 300.98-15.84 297.29-0.83Q297.17-0.39 296.51-0.16 295.85 0.07 294.9 0.07L294.9 0.07 291.77 0.07ZM326.51 0.07Q323.9 0.07 323.9-1.29L323.9-1.29 323.9-29.08Q323.9-29.79 324.53-30.14 325.17-30.49 326.51-30.49L326.51-30.49 328.37-30.49Q329.42-30.49 330.1-30.25 330.78-30 331.22-29.3L331.22-29.3 341.48-13.5 342.65-11.74 342.65-29.08Q342.65-29.79 343.28-30.14 343.92-30.49 345.26-30.49L345.26-30.49 346.51-30.49Q347.85-30.49 348.47-30.14 349.1-29.79 349.1-29.08L349.1-29.08 349.1-1.29Q349.1 0.07 346.51 0.07L346.51 0.07 344.85 0.07Q343.77 0.07 343.11-0.16 342.45-0.39 342.02-1.07L342.02-1.07 331.27-17.5 330.35-18.87 330.35-1.29Q330.35 0.07 327.76 0.07L327.76 0.07 326.51 0.07ZM356.83 0Q355.93 0 355.51-0.42 355.1-0.83 355.1-1.73L355.1-1.73 355.1-28.66Q355.1-29.57 355.51-29.97 355.93-30.37 356.83-30.37L356.83-30.37 372.73-30.37Q373.41-30.37 373.71-29.86 374.02-29.35 374.02-28.2L374.02-28.2 374.02-26.88Q374.02-25.73 373.71-25.22 373.41-24.71 372.73-24.71L372.73-24.71 361.79-24.71 361.79-18.41 371.55-18.41Q372.24-18.41 372.54-17.9 372.85-17.38 372.85-16.24L372.85-16.24 372.85-14.89Q372.85-13.75 372.54-13.23 372.24-12.72 371.55-12.72L371.55-12.72 361.79-12.72 361.79-5.69 372.75-5.69Q373.43-5.69 373.74-5.18 374.04-4.66 374.04-3.54L374.04-3.54 374.04-2.17Q374.04-1.03 373.74-0.51 373.43 0 372.75 0L372.75 0 356.83 0ZM381.41 0.07Q378.8 0.07 378.8-1.29L378.8-1.29 378.8-28.66Q378.8-29.57 379.22-29.97 379.63-30.37 380.54-30.37L380.54-30.37 389.01-30.37Q399.8-30.37 399.8-22.24L399.8-22.24Q399.8-19.78 398.42-17.99 397.04-16.21 394.72-15.33L394.72-15.33 394.72-15.16Q395.53-14.82 396.42-13.7 397.31-12.57 397.84-11.16L397.84-11.16 401.68-1.61Q401.87-1.03 401.87-0.78L401.87-0.78Q401.87 0.07 399.29 0.07L399.29 0.07 397.5 0.07Q395.33 0.07 394.99-0.83L394.99-0.83 391.55-9.3Q391.06-10.28 390.61-10.82 390.15-11.35 389.35-11.63 388.54-11.91 387.18-11.91L387.18-11.91 385.49-11.91 385.49-1.29Q385.49 0.07 382.88 0.07L382.88 0.07 381.41 0.07ZM385.49-17.68L389.59-17.68Q390.47-17.68 391.25-18.18 392.03-18.68 392.5-19.53 392.96-20.39 392.96-21.41L392.96-21.41Q392.96-22.92 391.97-23.82 390.98-24.71 389.3-24.71L389.3-24.71 385.49-24.71 385.49-17.68ZM413.44 0.37Q410.37 0.37 408.04-0.26 405.7-0.88 404.47-1.78 403.24-2.69 403.24-3.49L403.24-3.49Q403.24-4.13 403.71-5.05 404.19-5.98 404.85-6.65 405.51-7.32 405.95-7.32L405.95-7.32Q406.22-7.32 407.1-6.86L407.1-6.86Q408.41-6.18 409.6-5.76 410.78-5.35 412.32-5.35L412.32-5.35Q414.03-5.35 415.21-6.02 416.4-6.69 416.4-8.37L416.4-8.37Q416.4-9.35 415.79-10.06 415.18-10.77 414.22-11.25 413.27-11.74 411.64-12.4L411.64-12.4 409.71-13.23Q407.95-14.09 406.69-15.11 405.44-16.14 404.64-17.82 403.85-19.51 403.85-21.95L403.85-21.95Q403.85-24.93 405.31-26.9 406.78-28.88 409.12-29.81 411.47-30.74 414.15-30.74L414.15-30.74Q416.35-30.74 418.13-30.29 419.91-29.83 420.93-29.13 421.94-28.42 421.94-27.71L421.94-27.71Q421.94-27.12 421.56-26.21 421.18-25.29 420.62-24.61 420.06-23.93 419.57-23.93L419.57-23.93Q419.35-23.93 418.79-24.17L418.79-24.17Q417.89-24.54 416.97-24.77 416.06-25 414.74-25L414.74-25Q412.47-25 411.59-24.28 410.71-23.56 410.71-22.58L410.71-22.58Q410.71-21.46 411.31-20.7 411.9-19.95 412.82-19.46 413.74-18.97 415.37-18.33L415.37-18.33Q417.84-17.29 419.4-16.35 420.96-15.41 422.1-13.65 423.23-11.89 423.23-9.16L423.23-9.16Q423.23-5.81 421.83-3.67 420.43-1.54 418.22-0.59 416.01 0.37 413.44 0.37L413.44 0.37ZM430.24 0.07Q427.65 0.07 427.65-1.29L427.65-1.29 427.65-29.08Q427.65-29.79 428.27-30.14 428.89-30.49 430.24-30.49L430.24-30.49 431.78-30.49Q433.12-30.49 433.74-30.14 434.36-29.79 434.36-29.08L434.36-29.08 434.36-18.36 446.08-18.36 446.08-29.08Q446.08-29.79 446.72-30.14 447.35-30.49 448.69-30.49L448.69-30.49 450.21-30.49Q452.82-30.49 452.82-29.08L452.82-29.08 452.82-1.29Q452.82 0.07 450.21 0.07L450.21 0.07 448.69 0.07Q446.08 0.07 446.08-1.29L446.08-1.29 446.08-12.62 434.36-12.62 434.36-1.29Q434.36 0.07 431.78 0.07L431.78 0.07 430.24 0.07ZM461.14 0.12Q459.82 0.12 459.18-0.24 458.53-0.61 458.53-1.29L458.53-1.29 458.53-29.08Q458.53-30.52 461.14-30.52L461.14-30.52 462.66-30.52Q464-30.52 464.62-30.15 465.24-29.79 465.24-29.08L465.24-29.08 465.24-1.29Q465.24 0.12 462.66 0.12L462.66 0.12 461.14 0.12ZM473.67 0.07Q471.05 0.07 471.05-1.29L471.05-1.29 471.05-28.66Q471.05-29.57 471.47-29.97 471.88-30.37 472.79-30.37L472.79-30.37 481.92-30.37Q485.97-30.37 489.09-28.39 492.22-26.42 492.22-20.87L492.22-20.87Q492.22-17.07 490.41-14.95 488.61-12.84 486.35-12.11 484.09-11.38 482.33-11.38L482.33-11.38 477.74-11.38 477.74-1.29Q477.74 0.07 475.13 0.07L475.13 0.07 473.67 0.07ZM477.74-17.11L481.6-17.11Q483.16-17.11 484.27-17.94 485.38-18.77 485.38-20.87L485.38-20.87Q485.38-23 484.26-23.85 483.14-24.71 481.6-24.71L481.6-24.71 477.74-24.71 477.74-17.11Z" fill="#ffffff" data-fill-palette-color="secondary"></path></g></svg></g></svg></g><g transform="matrix(1,0,0,1,0,31.01376293922621)"><svg viewBox="0 0 224.9225377687834 15.505928030672706" height="15.505928030672706" width="224.9225377687834"><g transform="matrix(1,0,0,1,0,0)"><svg width="224.9225377687834" viewBox="2.35 -38.5 713.87 49.300000000000004" height="15.505928030672706" data-palette-color="#0e616a"><path d="M19.25-36.9L19.25-36.9Q21.2-36.9 23.43-36.48 25.65-36.05 27.73-35.13 29.8-34.2 31.2-32.75L31.2-32.75 28.55-29.65Q27-30.9 25.65-31.7 24.3-32.5 22.83-32.9 21.35-33.3 19.25-33.3L19.25-33.3Q15.95-33.3 13.68-32.05 11.4-30.8 9.98-28.65 8.55-26.5 7.9-23.8 7.25-21.1 7.25-18.2L7.25-18.2Q7.25-15.45 7.85-12.78 8.45-10.1 9.8-7.9 11.15-5.7 13.35-4.4 15.55-3.1 18.75-3.1L18.75-3.1Q21.4-3.1 23.33-4.28 25.25-5.45 26.33-7.48 27.4-9.5 27.4-12.05L27.4-12.05 27.4-15.35 18.45-15.35 19.05-18.75 32.1-18.75 32.1-8.3Q32.1-6.25 32.27-4.15 32.45-2.05 32.55 0L32.55 0 30.05 0 28.45-3.8Q26.25-1.45 23.73-0.43 21.2 0.6 17.95 0.6L17.95 0.6Q14 0.6 11.08-0.88 8.15-2.35 6.2-4.93 4.25-7.5 3.3-10.8 2.35-14.1 2.35-17.75L2.35-17.75Q2.35-23.1 4.23-27.43 6.1-31.75 9.85-34.33 13.6-36.9 19.25-36.9ZM38.9-38.1L43.7-38.1 43.7 0 39.55 0 39.55-35.2 38.9-38.1ZM61.15 0.65L61.15 0.65Q57.5 0.65 55.02-1.18 52.55-3 51.32-5.95 50.1-8.9 50.1-12.25L50.1-12.25Q50.1-15.6 51.42-18.63 52.75-21.65 55.3-23.55 57.85-25.45 61.45-25.45L61.45-25.45Q65.15-25.45 67.62-23.65 70.1-21.85 71.32-18.9 72.55-15.95 72.55-12.55L72.55-12.55Q72.55-9.15 71.25-6.13 69.95-3.1 67.4-1.23 64.85 0.65 61.15 0.65ZM61.2-2.5L61.2-2.5Q63.15-2.5 64.47-3.43 65.8-4.35 66.62-5.85 67.45-7.35 67.8-9.08 68.15-10.8 68.15-12.4L68.15-12.4Q68.15-14.05 67.82-15.78 67.5-17.5 66.75-18.98 66-20.45 64.67-21.38 63.35-22.3 61.4-22.3L61.4-22.3Q59.45-22.3 58.12-21.38 56.8-20.45 56-18.95 55.2-17.45 54.85-15.73 54.5-14 54.5-12.4L54.5-12.4Q54.5-10.85 54.85-9.13 55.2-7.4 55.97-5.9 56.75-4.4 58.05-3.45 59.35-2.5 61.2-2.5ZM89.99-25.35L89.99-25.35Q92.59-25.35 94.54-24.25 96.49-23.15 97.77-21.28 99.04-19.4 99.69-17.15 100.34-14.9 100.34-12.55L100.34-12.55Q100.34-9.2 99.17-6.18 97.99-3.15 95.57-1.25 93.14 0.65 89.39 0.65L89.39 0.65Q87.29 0.65 85.37-0.15 83.44-0.95 82.09-2.55L82.09-2.55 81.19 0.05 78.69 0.05Q78.74-0.8 78.79-1.68 78.84-2.55 78.84-3.4L78.84-3.4 78.84-35.2 78.14-38.1 82.99-38.1 82.99-24.3Q82.99-23.85 82.97-23.43 82.94-23 82.89-22.55L82.89-22.55Q84.49-24 86.17-24.68 87.84-25.35 89.99-25.35ZM88.94-21.8L88.94-21.8Q87.29-21.8 85.72-21.03 84.14-20.25 82.99-19.05L82.99-19.05 82.99-9.95Q82.99-7.85 83.59-6.15 84.19-4.45 85.57-3.45 86.94-2.45 89.24-2.45L89.24-2.45Q91.14-2.45 92.42-3.43 93.69-4.4 94.44-5.93 95.19-7.45 95.54-9.18 95.89-10.9 95.89-12.4L95.89-12.4Q95.89-14.05 95.52-15.7 95.14-17.35 94.32-18.73 93.49-20.1 92.17-20.95 90.84-21.8 88.94-21.8ZM115.29-25.45L115.29-25.45Q119.24-25.45 121.24-23.3 123.24-21.15 123.24-17.25L123.24-17.25 123.24-4.8Q123.24-3.75 123.64-3.38 124.04-3 124.59-3L124.59-3Q125.04-3 125.54-3.13 126.04-3.25 126.49-3.45L126.49-3.45 127.39-0.75Q126.59-0.3 125.37 0.08 124.14 0.45 122.84 0.45L122.84 0.45Q121.54 0.45 120.49-0.28 119.44-1 119.19-2.95L119.19-2.95Q117.74-1.4 115.79-0.43 113.84 0.55 111.69 0.55L111.69 0.55Q108.74 0.55 106.79-1.2 104.84-2.95 104.84-6L104.84-6Q104.84-8.85 106.22-10.55 107.59-12.25 109.79-13.1 111.99-13.95 114.47-14.25 116.94-14.55 119.09-14.55L119.09-14.55 119.09-17.2Q119.09-19.3 118.24-20.75 117.39-22.2 114.94-22.2L114.94-22.2Q113.04-22.2 111.29-21.45 109.54-20.7 107.79-19.25L107.79-19.25 105.74-22.2Q107.79-23.85 110.24-24.65 112.69-25.45 115.29-25.45ZM119.09-9.7L119.09-11.3Q117.74-11.3 116.04-11.18 114.34-11.05 112.74-10.58 111.14-10.1 110.12-9.05 109.09-8 109.09-6.15L109.09-6.15Q109.09-4.5 110.22-3.73 111.34-2.95 113.04-2.95L113.04-2.95Q114.84-2.95 116.19-3.95 117.54-4.95 118.32-6.5 119.09-8.05 119.09-9.7L119.09-9.7ZM130.89-38.1L135.69-38.1 135.69 0 131.54 0 131.54-35.2 130.89-38.1ZM170.28 0.6L170.28 0.6Q165.98 0.6 162.86-0.9 159.73-2.4 157.68-4.98 155.63-7.55 154.66-10.8 153.68-14.05 153.68-17.5L153.68-17.5Q153.68-21.25 154.78-24.73 155.88-28.2 158.01-30.95 160.13-33.7 163.33-35.3 166.53-36.9 170.73-36.9L170.73-36.9Q172.48-36.9 174.56-36.48 176.63-36.05 178.53-35.2 180.43-34.35 181.63-32.95L181.63-32.95 179.03-30.05Q177.58-31.65 175.16-32.52 172.73-33.4 170.63-33.4L170.63-33.4Q167.73-33.4 165.53-32.08 163.33-30.75 161.83-28.5 160.33-26.25 159.56-23.45 158.78-20.65 158.78-17.75L158.78-17.75Q158.78-13.25 160.23-9.98 161.68-6.7 164.33-4.93 166.98-3.15 170.58-3.15L170.58-3.15Q172.68-3.15 175.13-3.75 177.58-4.35 180.18-5.65L180.18-5.65 181.73-2.8Q180.28-1.75 178.26-1 176.23-0.25 174.13 0.18 172.03 0.6 170.28 0.6ZM194.48 0.65L194.48 0.65Q190.83 0.65 188.36-1.18 185.88-3 184.66-5.95 183.43-8.9 183.43-12.25L183.43-12.25Q183.43-15.6 184.76-18.63 186.08-21.65 188.63-23.55 191.18-25.45 194.78-25.45L194.78-25.45Q198.48-25.45 200.96-23.65 203.43-21.85 204.66-18.9 205.88-15.95 205.88-12.55L205.88-12.55Q205.88-9.15 204.58-6.13 203.28-3.1 200.73-1.23 198.18 0.65 194.48 0.65ZM194.53-2.5L194.53-2.5Q196.48-2.5 197.81-3.43 199.13-4.35 199.96-5.85 200.78-7.35 201.13-9.08 201.48-10.8 201.48-12.4L201.48-12.4Q201.48-14.05 201.16-15.78 200.83-17.5 200.08-18.98 199.33-20.45 198.01-21.38 196.68-22.3 194.73-22.3L194.73-22.3Q192.78-22.3 191.46-21.38 190.13-20.45 189.33-18.95 188.53-17.45 188.18-15.73 187.83-14 187.83-12.4L187.83-12.4Q187.83-10.85 188.18-9.13 188.53-7.4 189.31-5.9 190.08-4.4 191.38-3.45 192.68-2.5 194.53-2.5ZM210.18-24.75L214.68-25.3Q215.58-23.1 215.83-20.65L215.83-20.65Q217.13-22.7 219.33-24 221.53-25.3 223.98-25.3L223.98-25.3 222.98-20.9Q220.58-20.9 218.9-19.65 217.23-18.4 215.93-16.5L215.93-16.5 215.93 0 211.78 0 211.78-18Q211.78-19 211.63-20.25 211.48-21.5 211.13-22.7 210.78-23.9 210.18-24.75L210.18-24.75ZM227.68-24.65L232.08-25.2Q232.48-24.4 232.7-23.53 232.93-22.65 233.03-21.8L233.03-21.8Q234.33-23.45 236.25-24.43 238.18-25.4 240.33-25.4L240.33-25.4Q242.98-25.4 244.93-24.3 246.88-23.2 248.15-21.33 249.43-19.45 250.05-17.18 250.68-14.9 250.68-12.55L250.68-12.55Q250.68-9.15 249.45-6.13 248.23-3.1 245.75-1.23 243.28 0.65 239.53 0.65L239.53 0.65Q237.83 0.65 236.15 0.1 234.48-0.45 233.23-1.6L233.23-1.6Q233.33-0.9 233.33-0.2 233.33 0.5 233.33 0.9L233.33 0.9 233.33 7.85 234.03 10.8 229.23 10.8 229.23-17.6Q229.23-18.65 229.08-19.95 228.93-21.25 228.6-22.5 228.28-23.75 227.68-24.65L227.68-24.65ZM239.08-21.75L239.08-21.75Q237.38-21.75 235.88-20.73 234.38-19.7 233.33-18.45L233.33-18.45 233.33-10.05Q233.33-8.1 233.95-6.43 234.58-4.75 235.93-3.75 237.28-2.75 239.43-2.75L239.43-2.75Q241.38-2.75 242.7-3.6 244.03-4.45 244.83-5.85 245.63-7.25 245.95-8.93 246.28-10.6 246.28-12.25L246.28-12.25Q246.28-14 245.9-15.68 245.53-17.35 244.68-18.73 243.83-20.1 242.45-20.93 241.08-21.75 239.08-21.75ZM266.22 0.65L266.22 0.65Q262.57 0.65 260.1-1.18 257.62-3 256.4-5.95 255.17-8.9 255.17-12.25L255.17-12.25Q255.17-15.6 256.5-18.63 257.82-21.65 260.37-23.55 262.92-25.45 266.52-25.45L266.52-25.45Q270.22-25.45 272.7-23.65 275.17-21.85 276.4-18.9 277.62-15.95 277.62-12.55L277.62-12.55Q277.62-9.15 276.32-6.13 275.02-3.1 272.47-1.23 269.92 0.65 266.22 0.65ZM266.27-2.5L266.27-2.5Q268.22-2.5 269.55-3.43 270.87-4.35 271.7-5.85 272.52-7.35 272.87-9.08 273.22-10.8 273.22-12.4L273.22-12.4Q273.22-14.05 272.9-15.78 272.57-17.5 271.82-18.98 271.07-20.45 269.75-21.38 268.42-22.3 266.47-22.3L266.47-22.3Q264.52-22.3 263.2-21.38 261.87-20.45 261.07-18.95 260.27-17.45 259.92-15.73 259.57-14 259.57-12.4L259.57-12.4Q259.57-10.85 259.92-9.13 260.27-7.4 261.05-5.9 261.82-4.4 263.12-3.45 264.42-2.5 266.27-2.5ZM281.92-24.75L286.42-25.3Q287.32-23.1 287.57-20.65L287.57-20.65Q288.87-22.7 291.07-24 293.27-25.3 295.72-25.3L295.72-25.3 294.72-20.9Q292.32-20.9 290.65-19.65 288.97-18.4 287.67-16.5L287.67-16.5 287.67 0 283.52 0 283.52-18Q283.52-19 283.37-20.25 283.22-21.5 282.87-22.7 282.52-23.9 281.92-24.75L281.92-24.75ZM308.82-25.45L308.82-25.45Q312.77-25.45 314.77-23.3 316.77-21.15 316.77-17.25L316.77-17.25 316.77-4.8Q316.77-3.75 317.17-3.38 317.57-3 318.12-3L318.12-3Q318.57-3 319.07-3.13 319.57-3.25 320.02-3.45L320.02-3.45 320.92-0.75Q320.12-0.3 318.89 0.08 317.67 0.45 316.37 0.45L316.37 0.45Q315.07 0.45 314.02-0.28 312.97-1 312.72-2.95L312.72-2.95Q311.27-1.4 309.32-0.43 307.37 0.55 305.22 0.55L305.22 0.55Q302.27 0.55 300.32-1.2 298.37-2.95 298.37-6L298.37-6Q298.37-8.85 299.74-10.55 301.12-12.25 303.32-13.1 305.52-13.95 307.99-14.25 310.47-14.55 312.62-14.55L312.62-14.55 312.62-17.2Q312.62-19.3 311.77-20.75 310.92-22.2 308.47-22.2L308.47-22.2Q306.57-22.2 304.82-21.45 303.07-20.7 301.32-19.25L301.32-19.25 299.27-22.2Q301.32-23.85 303.77-24.65 306.22-25.45 308.82-25.45ZM312.62-9.7L312.62-11.3Q311.27-11.3 309.57-11.18 307.87-11.05 306.27-10.58 304.67-10.1 303.64-9.05 302.62-8 302.62-6.15L302.62-6.15Q302.62-4.5 303.74-3.73 304.87-2.95 306.57-2.95L306.57-2.95Q308.37-2.95 309.72-3.95 311.07-4.95 311.84-6.5 312.62-8.05 312.62-9.7L312.62-9.7ZM327.67-31.95L330.72-31.95Q330.37-30.25 330.09-28.43 329.81-26.6 329.72-24.85L329.72-24.85 336.22-24.85 335.37-21.7 329.72-21.7 329.72-5.8Q329.72-4.85 329.94-4.13 330.17-3.4 330.74-3.03 331.31-2.65 332.37-2.65L332.37-2.65Q333.17-2.65 333.97-2.8 334.76-2.95 335.51-3.15L335.51-3.15 336.22-0.35Q334.97 0 333.84 0.28 332.72 0.55 331.26 0.55L331.26 0.55Q328.06 0.55 326.81-1.15 325.56-2.85 325.56-5.9L325.56-5.9 325.56-21.7 321.87-21.7 321.87-24.2Q323.87-24.25 325.01-25.53 326.17-26.8 326.76-28.6 327.37-30.4 327.67-31.95L327.67-31.95ZM349.96-25.45L349.96-25.45Q352.96-25.45 355.01-24.23 357.06-23 358.09-20.83 359.11-18.65 359.11-15.75L359.11-15.75Q359.11-15.05 359.04-14.33 358.96-13.6 358.86-12.8L358.86-12.8 343.06-12.8Q343.06-8.05 345.16-5.45 347.26-2.85 350.76-2.85L350.76-2.85Q352.21-2.85 353.79-3.3 355.36-3.75 357.06-4.65L357.06-4.65 358.61-2.15Q356.86-0.75 354.66-0.05 352.46 0.65 350.21 0.65L350.21 0.65Q346.31 0.65 343.74-1.2 341.16-3.05 339.91-6 338.66-8.95 338.66-12.15L338.66-12.15Q338.66-14.65 339.36-17 340.06-19.35 341.49-21.28 342.91-23.2 345.01-24.33 347.11-25.45 349.96-25.45ZM349.56-22.3L349.56-22.3Q347.86-22.3 346.56-21.35 345.26-20.4 344.46-18.93 343.66-17.45 343.36-15.9L343.36-15.9 354.76-15.9Q354.81-18 354.19-19.43 353.56-20.85 352.39-21.58 351.21-22.3 349.56-22.3ZM376.96-33.1L376.21-36.4 387.11-36.4Q390.71-36.4 393.48-35.27 396.26-34.15 397.81-31.75 399.36-29.35 399.36-25.4L399.36-25.4Q399.36-21.75 397.71-19.3 396.06-16.85 393.31-15.63 390.56-14.4 387.16-14.4L387.16-14.4 381.61-14.4 381.61 0 376.96 0 376.96-33.1ZM387.11-32.95L381.61-32.95 381.61-17.8 387.06-17.8Q390.51-17.8 392.51-19.9 394.51-22 394.51-25.4L394.51-25.4Q394.51-28.95 392.61-30.95 390.71-32.95 387.11-32.95L387.11-32.95ZM403.86-24.75L408.36-25.3Q409.26-23.1 409.51-20.65L409.51-20.65Q410.81-22.7 413.01-24 415.21-25.3 417.66-25.3L417.66-25.3 416.66-20.9Q414.26-20.9 412.58-19.65 410.91-18.4 409.61-16.5L409.61-16.5 409.61 0 405.46 0 405.46-18Q405.46-19 405.31-20.25 405.16-21.5 404.81-22.7 404.46-23.9 403.86-24.75L403.86-24.75ZM432.1 0.65L432.1 0.65Q428.45 0.65 425.98-1.18 423.5-3 422.28-5.95 421.05-8.9 421.05-12.25L421.05-12.25Q421.05-15.6 422.38-18.63 423.7-21.65 426.25-23.55 428.8-25.45 432.4-25.45L432.4-25.45Q436.1-25.45 438.58-23.65 441.05-21.85 442.28-18.9 443.5-15.95 443.5-12.55L443.5-12.55Q443.5-9.15 442.2-6.13 440.9-3.1 438.35-1.23 435.8 0.65 432.1 0.65ZM432.15-2.5L432.15-2.5Q434.1-2.5 435.43-3.43 436.75-4.35 437.58-5.85 438.4-7.35 438.75-9.08 439.1-10.8 439.1-12.4L439.1-12.4Q439.1-14.05 438.78-15.78 438.45-17.5 437.7-18.98 436.95-20.45 435.63-21.38 434.3-22.3 432.35-22.3L432.35-22.3Q430.4-22.3 429.08-21.38 427.75-20.45 426.95-18.95 426.15-17.45 425.8-15.73 425.45-14 425.45-12.4L425.45-12.4Q425.45-10.85 425.8-9.13 426.15-7.4 426.93-5.9 427.7-4.4 429-3.45 430.3-2.5 432.15-2.5ZM460.85-38.5L460.85-38.5Q462.25-38.5 463.38-38.23 464.5-37.95 465.7-37.25L465.7-37.25 464.55-34.15Q463.9-34.75 462.88-35.08 461.85-35.4 460.95-35.4L460.95-35.4Q458.75-35.4 457.48-34.4 456.2-33.4 455.58-31.78 454.95-30.15 454.75-28.33 454.55-26.5 454.55-24.85L454.55-24.85 461.7-24.85 460.8-21.75 454.55-21.75 454.55 0 450.45 0 450.45-21.75 446.7-21.75 446.7-24.35Q447.5-24.45 448.33-24.53 449.15-24.6 449.75-25 450.35-25.4 450.55-26.35L450.55-26.35Q451.05-28.65 451.3-30.08 451.55-31.5 452-32.6 452.45-33.7 453.45-35L453.45-35Q454.7-36.6 456.55-37.55 458.4-38.5 460.85-38.5ZM469.35-33.2L469.35-33.2Q469.35-31.95 468.47-31.05 467.6-30.15 466.3-30.15L466.3-30.15Q465.05-30.15 464.17-31.05 463.3-31.95 463.3-33.2L463.3-33.2Q463.3-34.45 464.17-35.35 465.05-36.25 466.3-36.25L466.3-36.25Q467.55-36.25 468.45-35.35 469.35-34.45 469.35-33.2ZM463.7-24.85L468.45-24.85 468.45 0 464.3 0 464.3-21.9 463.7-24.85ZM476.2-38.1L481-38.1 481 0 476.85 0 476.85-35.2 476.2-38.1ZM498.69-25.45L498.69-25.45Q501.69-25.45 503.74-24.23 505.79-23 506.82-20.83 507.84-18.65 507.84-15.75L507.84-15.75Q507.84-15.05 507.77-14.33 507.69-13.6 507.59-12.8L507.59-12.8 491.79-12.8Q491.79-8.05 493.89-5.45 495.99-2.85 499.49-2.85L499.49-2.85Q500.94-2.85 502.52-3.3 504.09-3.75 505.79-4.65L505.79-4.65 507.34-2.15Q505.59-0.75 503.39-0.05 501.19 0.65 498.94 0.65L498.94 0.65Q495.04 0.65 492.47-1.2 489.89-3.05 488.64-6 487.39-8.95 487.39-12.15L487.39-12.15Q487.39-14.65 488.09-17 488.79-19.35 490.22-21.28 491.64-23.2 493.74-24.33 495.84-25.45 498.69-25.45ZM498.29-22.3L498.29-22.3Q496.59-22.3 495.29-21.35 493.99-20.4 493.19-18.93 492.39-17.45 492.09-15.9L492.09-15.9 503.49-15.9Q503.54-18 502.92-19.43 502.29-20.85 501.12-21.58 499.94-22.3 498.29-22.3ZM535.39-36.9L535.39-36.9Q537.89-36.9 540.26-36.2 542.64-35.5 544.79-34.2L544.79-34.2 542.49-30.85Q540.94-32 539.11-32.68 537.29-33.35 535.34-33.35L535.34-33.35Q532.69-33.35 530.84-32.02 528.99-30.7 528.99-27.8L528.99-27.8Q528.99-26.2 529.86-25.08 530.74-23.95 532.19-23.1 533.64-22.25 535.34-21.45L535.34-21.45Q537.09-20.65 538.91-19.7 540.74-18.75 542.26-17.48 543.79-16.2 544.71-14.38 545.64-12.55 545.64-9.9L545.64-9.9Q545.64-6.3 543.89-3.98 542.14-1.65 539.29-0.53 536.44 0.6 533.14 0.6L533.14 0.6Q530.44 0.6 527.91-0.13 525.39-0.85 522.99-2.1L522.99-2.1 524.79-6.2Q526.44-4.8 528.79-3.9 531.14-3 533.29-3L533.29-3Q534.94-3 536.64-3.63 538.34-4.25 539.49-5.65 540.64-7.05 540.64-9.25L540.64-9.25Q540.64-11.45 539.59-12.88 538.54-14.3 536.84-15.28 535.14-16.25 533.24-17.15L533.24-17.15Q531.59-17.95 529.94-18.8 528.29-19.65 526.94-20.8 525.59-21.95 524.79-23.55 523.99-25.15 523.99-27.4L523.99-27.4Q523.99-30.55 525.66-32.65 527.34-34.75 529.96-35.83 532.59-36.9 535.39-36.9ZM553.98-31.95L557.03-31.95Q556.68-30.25 556.41-28.43 556.13-26.6 556.03-24.85L556.03-24.85 562.53-24.85 561.68-21.7 556.03-21.7 556.03-5.8Q556.03-4.85 556.26-4.13 556.48-3.4 557.06-3.03 557.63-2.65 558.68-2.65L558.68-2.65Q559.48-2.65 560.28-2.8 561.08-2.95 561.83-3.15L561.83-3.15 562.53-0.35Q561.28 0 560.16 0.28 559.03 0.55 557.58 0.55L557.58 0.55Q554.38 0.55 553.13-1.15 551.88-2.85 551.88-5.9L551.88-5.9 551.88-21.7 548.18-21.7 548.18-24.2Q550.18-24.25 551.33-25.53 552.48-26.8 553.08-28.6 553.68-30.4 553.98-31.95L553.98-31.95ZM565.98-24.75L570.48-25.3Q571.38-23.1 571.63-20.65L571.63-20.65Q572.93-22.7 575.13-24 577.33-25.3 579.78-25.3L579.78-25.3 578.78-20.9Q576.38-20.9 574.71-19.65 573.03-18.4 571.73-16.5L571.73-16.5 571.73 0 567.58 0 567.58-18Q567.58-19 567.43-20.25 567.28-21.5 566.93-22.7 566.58-23.9 565.98-24.75L565.98-24.75ZM584.33-24.85L589.13-24.85 589.13-9.55Q589.13-8.1 589.38-6.58 589.63-5.05 590.5-4.05 591.38-3.05 593.28-3.05L593.28-3.05Q595.13-3.05 596.65-3.85 598.18-4.65 599.13-6.08 600.08-7.5 600.08-9.4L600.08-9.4 600.08-21.9Q600.08-21.95 599.93-22.63 599.78-23.3 599.63-24.03 599.48-24.75 599.43-24.85L599.43-24.85 604.23-24.85 604.23-4.85Q604.23-3.9 604.55-3.45 604.88-3 605.58-3L605.58-3Q606.28-3 607.48-3.45L607.48-3.45 608.38-0.75Q607.38-0.2 606.15 0.13 604.93 0.45 603.83 0.45L603.83 0.45Q602.53 0.45 601.53-0.3 600.53-1.05 600.23-2.95L600.23-2.95Q598.78-1.45 596.75-0.4 594.73 0.65 592.58 0.65L592.58 0.65Q589.83 0.65 588.15-0.5 586.48-1.65 585.73-3.63 584.98-5.6 584.98-8.2L584.98-8.2 584.98-21.9 584.33-24.85ZM622.33-25.45L622.33-25.45Q624.23-25.45 626.15-24.83 628.08-24.2 629.93-22.9L629.93-22.9 627.68-20Q626.28-21.15 624.93-21.68 623.58-22.2 622.33-22.2L622.33-22.2Q620.83-22.2 619.55-21.5 618.28-20.8 617.3-19.53 616.33-18.25 615.8-16.45 615.28-14.65 615.28-12.45L615.28-12.45Q615.28-7.75 617.4-5.25 619.53-2.75 622.78-2.75L622.78-2.75Q624.23-2.75 625.6-3.2 626.98-3.65 628.48-4.5L628.48-4.5 629.83-1.85Q627.83-0.6 625.98 0.03 624.13 0.65 621.83 0.65L621.83 0.65Q618.63 0.65 616.15-0.98 613.68-2.6 612.25-5.6 610.83-8.6 610.83-12.65L610.83-12.65Q610.83-16.55 612.4-19.43 613.98-22.3 616.6-23.88 619.23-25.45 622.33-25.45ZM638.92-31.95L641.97-31.95Q641.62-30.25 641.35-28.43 641.07-26.6 640.97-24.85L640.97-24.85 647.47-24.85 646.62-21.7 640.97-21.7 640.97-5.8Q640.97-4.85 641.2-4.13 641.42-3.4 642-3.03 642.57-2.65 643.62-2.65L643.62-2.65Q644.42-2.65 645.22-2.8 646.02-2.95 646.77-3.15L646.77-3.15 647.47-0.35Q646.22 0 645.1 0.28 643.97 0.55 642.52 0.55L642.52 0.55Q639.32 0.55 638.07-1.15 636.82-2.85 636.82-5.9L636.82-5.9 636.82-21.7 633.12-21.7 633.12-24.2Q635.12-24.25 636.27-25.53 637.42-26.8 638.02-28.6 638.62-30.4 638.92-31.95L638.92-31.95ZM651.82-24.85L656.62-24.85 656.62-9.55Q656.62-8.1 656.87-6.58 657.12-5.05 658-4.05 658.87-3.05 660.77-3.05L660.77-3.05Q662.62-3.05 664.15-3.85 665.67-4.65 666.62-6.08 667.57-7.5 667.57-9.4L667.57-9.4 667.57-21.9Q667.57-21.95 667.42-22.63 667.27-23.3 667.12-24.03 666.97-24.75 666.92-24.85L666.92-24.85 671.72-24.85 671.72-4.85Q671.72-3.9 672.05-3.45 672.37-3 673.07-3L673.07-3Q673.77-3 674.97-3.45L674.97-3.45 675.87-0.75Q674.87-0.2 673.65 0.13 672.42 0.45 671.32 0.45L671.32 0.45Q670.02 0.45 669.02-0.3 668.02-1.05 667.72-2.95L667.72-2.95Q666.27-1.45 664.25-0.4 662.22 0.65 660.07 0.65L660.07 0.65Q657.32 0.65 655.65-0.5 653.97-1.65 653.22-3.63 652.47-5.6 652.47-8.2L652.47-8.2 652.47-21.9 651.82-24.85ZM678.57-24.75L683.07-25.3Q683.97-23.1 684.22-20.65L684.22-20.65Q685.52-22.7 687.72-24 689.92-25.3 692.37-25.3L692.37-25.3 691.37-20.9Q688.97-20.9 687.29-19.65 685.62-18.4 684.32-16.5L684.32-16.5 684.32 0 680.17 0 680.17-18Q680.17-19 680.02-20.25 679.87-21.5 679.52-22.7 679.17-23.9 678.57-24.75L678.57-24.75ZM707.07-25.45L707.07-25.45Q710.07-25.45 712.12-24.23 714.17-23 715.19-20.83 716.22-18.65 716.22-15.75L716.22-15.75Q716.22-15.05 716.14-14.33 716.07-13.6 715.97-12.8L715.97-12.8 700.17-12.8Q700.17-8.05 702.27-5.45 704.37-2.85 707.87-2.85L707.87-2.85Q709.32-2.85 710.89-3.3 712.47-3.75 714.17-4.65L714.17-4.65 715.72-2.15Q713.97-0.75 711.77-0.05 709.57 0.65 707.32 0.65L707.32 0.65Q703.42 0.65 700.84-1.2 698.27-3.05 697.02-6 695.77-8.95 695.77-12.15L695.77-12.15Q695.77-14.65 696.47-17 697.17-19.35 698.59-21.28 700.02-23.2 702.12-24.33 704.22-25.45 707.07-25.45ZM706.67-22.3L706.67-22.3Q704.97-22.3 703.67-21.35 702.37-20.4 701.57-18.93 700.77-17.45 700.47-15.9L700.47-15.9 711.87-15.9Q711.92-18 711.29-19.43 710.67-20.85 709.49-21.58 708.32-22.3 706.67-22.3Z" opacity="1" transform="matrix(1,0,0,1,0,0)" fill="#ffffff" class="slogan-text-1" data-fill-palette-color="secondary" id="text-1"></path></svg></g></svg></g></svg></g></svg></g><g><svg viewBox="0 0 74.10187383921215 64.29021292040031" height="64.29021292040031" width="74.10187383921215"><g><svg xmlns="http://www.w3.org/2000/svg" xmlns:xlink="http://www.w3.org/1999/xlink" version="1.1" x="0" y="0" viewBox="4.899999999999999 11 89.9039822222222 78.00000000000001" enable-background="new 0 0 100 100" xml:space="preserve" height="64.29021292040031" width="74.10187383921215" class="icon-icon-0" data-fill-palette-color="accent" id="icon-0"><g fill="#0e616a" data-fill-palette-color="accent"><path d="M77.3 38.3C77.3 23.3 65 11 50 11c-15 0-27.3 12.2-27.3 27.3 0 15 12.2 27.3 27.3 27.3C65 65.6 77.3 53.4 77.3 38.3zM25.5 39.7H35c0.1 3.9 0.8 7.2 1.7 10.1-2.7 1.4-4.7 3-5.8 4C27.8 49.9 25.8 45 25.5 39.7zM30.8 23.1c0.7 0.6 1.7 1.5 3 2.4 0 0.3-0.1 0.5-0.1 0.8 0 1.6 0.8 3.1 2 4-0.4 2-0.7 4.3-0.8 6.7h-9.5C25.8 31.7 27.8 26.9 30.8 23.1zM74.5 36.9h-5c-0.5-1.7-1.9-3-3.7-3.4-0.3-2.5-0.8-4.8-1.5-6.9 2.3-1.3 4-2.7 4.9-3.6C72.2 26.9 74.2 31.7 74.5 36.9zM59.9 36.9h-8.6v-6.7c4.1-0.2 7.6-1.2 10.3-2.4 0.6 1.7 1 3.7 1.3 5.8C61.5 34.2 60.4 35.4 59.9 36.9zM51.4 27.5V14.2c1.9 1.2 6.4 4.5 9.3 11.1C58.2 26.4 55.1 27.3 51.4 27.5zM48.6 14.9v12.6c-1.8-0.1-3.4-0.3-4.9-0.7 0-0.2 0-0.3 0-0.5 0-1.6-0.7-3-1.9-3.9C44.1 18.6 46.8 16.2 48.6 14.9zM38.8 24.7c0.9 0 1.6 0.7 1.6 1.6 0 0.9-0.7 1.6-1.6 1.6s-1.6-0.7-1.6-1.6C37.2 25.4 37.9 24.7 38.8 24.7zM38.8 31.2c1.5 0 2.9-0.7 3.8-1.8 1.8 0.5 3.8 0.8 6 0.9v6.6H37.8c0.1-2.1 0.3-4 0.7-5.7C38.6 31.2 38.7 31.2 38.8 31.2zM48.6 39.7v7c-3.6 0.2-6.7 0.9-9.3 1.9-0.8-2.6-1.4-5.5-1.5-8.9H48.6zM48.6 49.5v12.2c-2.2-1.6-5.8-4.9-8.3-10.4C42.6 50.4 45.4 49.7 48.6 49.5zM51.4 49.5c3.7 0.2 6.7 1.1 9.2 2.2-2.9 6.4-7.3 9.6-9.2 10.8V49.5zM51.4 46.7v-7h8.6c0.4 1.5 1.6 2.7 3.1 3.3-0.3 2.3-0.8 4.3-1.4 6.1C58.9 47.9 55.5 46.9 51.4 46.7zM64.7 39.9c-0.9 0-1.6-0.7-1.6-1.6s0.7-1.6 1.6-1.6c0.9 0 1.6 0.7 1.6 1.6S65.6 39.9 64.7 39.9zM63.2 24c-1.9-4.2-4.4-7.2-6.6-9.2 4.1 1.2 7.7 3.3 10.6 6.2C66.5 21.7 65.2 22.8 63.2 24zM39.2 21.3c-0.1 0-0.3 0-0.4 0-1.4 0-2.7 0.6-3.6 1.6-1.1-0.8-1.9-1.5-2.4-1.9 3.3-3.3 7.5-5.6 12.1-6.6C43 16 41 18.3 39.2 21.3zM37.8 52.4c2 4.6 4.7 7.8 7.1 9.8-4.6-1-8.7-3.3-11.9-6.4C33.8 55 35.4 53.7 37.8 52.4zM63.1 52.9c1.9 1.1 3.2 2.2 4 2.9-2.9 2.8-6.4 4.9-10.4 6C58.8 59.9 61.2 57 63.1 52.9zM64.2 50.3c0.7-2.1 1.3-4.5 1.6-7.2 1.7-0.4 3.1-1.7 3.7-3.4h5C74.2 45 72.2 49.9 69 53.8 68 52.9 66.4 51.6 64.2 50.3z" fill="#ffffff" data-fill-palette-color="accent"></path><path d="M31.9 65.1c-3.7-3.9-9.8-13.6-13.6-12.3-3.8 1.3-1.2 6.3-1.2 6.3l-1.9-2.5c-1.9-3.4-2.8-5.2-2.8-9.1l-0.1-8.9c0-10.2-7.4-9.1-7.4-9.1v25.6c0 2.9 1.1 5.7 3.2 7.8L23 78c2 2 3.1 4.7 3.1 7.5 0 1.9 1.5 3.4 3.4 3.4h6.8c1.9 0 3.4-1.5 3.4-3.4v-5.9C39.6 71.6 35.6 68.9 31.9 65.1z" fill="#ffffff" data-fill-palette-color="accent"></path><path d="M87.6 38.7l-0.1 8.9c0 3.9-0.9 5.7-2.8 9.1l-1.9 2.5c0 0 2.5-5-1.2-6.3-3.8-1.3-9.8 8.4-13.6 12.3-3.7 3.8-7.7 6.5-7.9 14.5v5.9c0 1.9 1.5 3.4 3.4 3.4h6.8c1.9 0 3.4-1.5 3.4-3.4 0-2.8 1.1-5.5 3.1-7.5l14.8-15.1c2-2.1 3.2-4.9 3.2-7.8V29.6C95 29.6 87.6 28.5 87.6 38.7z" fill="#ffffff" data-fill-palette-color="accent"></path></g></svg></g></svg></g></svg></g><defs></defs></svg><rect width="395.52" height="52.0048751608574" fill="none" stroke="none" visibility="hidden"></rect></g></svg></g></svg>